<svg xmlns="http://www.w3.org/2000/svg" width="250" height="228" viewBox="0 0 250 228" fill="none"><path d="M110.74 12.6144C112.788 -4.20478 137.212 -4.20478 139.26 12.6144C140.812 25.3563 157.086 29.7783 164.827 19.5388L168.066 15.2538C177.857 2.30265 197.934 14.4283 191.342 29.2653C186.228 40.7769 198.197 52.4929 209.55 47.0342L214.837 44.4918C228.86 37.749 240.544 57.0446 228.191 66.5046C218.362 74.0314 224.083 89.7614 236.462 89.617C251.88 89.4371 255.417 111.683 240.317 114.8C228.233 117.295 226.423 133.805 237.67 138.878C251.716 145.214 244.613 166.417 229.601 162.946L225.613 162.024C213.46 159.215 204.628 173.369 212.418 183.11C222.318 195.49 206.209 211.827 193.876 201.869L188.931 197.876C179.03 189.882 164.482 198.307 166.393 210.889C168.89 227.334 145.833 233.951 139.517 218.563L138.349 215.717C133.451 203.782 116.549 203.782 111.651 215.717L110.483 218.563C104.167 233.951 81.11 227.334 83.6072 210.889C85.5178 198.307 70.9704 189.882 61.0687 197.876L56.1241 201.869C43.791 211.827 27.6821 195.49 37.5823 183.11C45.3724 173.369 36.5398 159.215 24.3874 162.024L20.3991 162.946C5.38689 166.417 -1.71576 145.214 12.3297 138.878C23.5768 133.805 21.7666 117.295 9.68297 114.8C-5.41689 111.683 -1.8796 89.4371 13.5376 89.617C25.9168 89.7614 31.6385 74.0314 21.8093 66.5046C9.45562 57.0446 21.1402 37.7491 35.1631 44.4918L40.4505 47.0342C51.803 52.4929 63.7723 40.7769 58.6577 29.2653C52.0656 14.4283 72.1431 2.30267 81.9339 15.2538L85.1733 19.5389C92.9141 29.7783 109.188 25.3563 110.74 12.6144Z" fill="url(#paint0_linear_719_176)"></path><path d="M125.121 160.064C150.245 160.064 170.612 139.697 170.612 114.574C170.612 89.4499 150.245 69.083 125.121 69.083C99.9977 69.083 79.6309 89.4499 79.6309 114.574C79.6309 139.697 99.9977 160.064 125.121 160.064Z" stroke="#FAFAFA" stroke-width="4.96691" stroke-dasharray="0.83 6.62"></path><path d="M64.5054 91.9512L67.5796 95.3291V95.3301C67.9595 95.7524 68.4767 95.9829 69.0845 96.1982V96.1992L70.6196 96.7432L70.5142 97.04L68.8022 96.4541L68.7983 96.4521L68.4263 96.3154C68.1375 96.1955 67.8991 96.0549 67.6792 95.8428L67.5493 95.7061L67.5474 95.7041L64.7837 92.6279L64.3804 92.1787L64.1782 92.748L62.8823 96.4014L62.7007 96.3369L64.2837 91.873L64.5054 91.9512Z" fill="#FAFAFA" stroke="#FAFAFA" stroke-width="0.718163"></path><path d="M73.199 77.2051C73.7137 77.1255 74.2437 77.2658 74.7605 77.5732L74.9812 77.7148L77.0837 79.167C77.6757 79.5757 78.0933 80.0704 78.2253 80.6611C78.3475 81.2083 78.2407 81.9107 77.6667 82.8076L77.5457 82.9893L76.1687 84.9814L69.9158 80.6631L71.3455 78.5938C71.9766 77.6796 72.6164 77.2953 73.199 77.2051ZM74.7781 77.9678C74.2541 77.6061 73.678 77.4063 73.0828 77.5205C72.4894 77.6345 71.9592 78.0443 71.4919 78.7207L70.447 80.2129L70.24 80.5098L70.5378 80.7148L75.8826 84.4053L76.1785 84.6094L76.3826 84.3135L77.4373 82.7852C77.8912 82.1273 78.09 81.4944 77.9744 80.8926C77.8734 80.3673 77.5458 79.9339 77.0857 79.5713L76.8806 79.4199L74.7781 77.9678Z" fill="#FAFAFA" stroke="#FAFAFA" stroke-width="0.718163"></path><path d="M78.8516 69.7246L78.2598 70.3486L78.0127 70.6094L78.2734 70.8564L83.0801 75.416L83.3408 75.6631L83.5879 75.4033L84.1787 74.7793L84.2842 74.8789L82.3848 76.8818L82.2793 76.7812L82.8799 76.1494L83.127 75.8896L82.8662 75.6416L78.0596 71.082L77.7988 70.835L77.5518 71.0957L76.9521 71.7266L76.8457 71.627L78.7451 69.624L78.8516 69.7246Z" fill="#FAFAFA" stroke="#FAFAFA" stroke-width="0.718163"></path><path d="M91.8896 68.3389L91.6289 68.5449L89.8135 67.3096L89.5967 67.1611L89.3896 67.3232L86.793 69.3613L86.5869 69.5234L86.6787 69.7695L87.4463 71.8262L87.2178 72.0039L84.4971 64.4805L85.2061 63.9248L91.8896 68.3389ZM84.9746 64.3213L84.9277 64.3584L84.7207 64.5205L84.8135 64.7666L86.3359 68.835L86.5078 69.2949L86.8945 68.9922L89.0078 67.334L89.3936 67.0312L88.9883 66.7549L85.3984 64.3076L85.1816 64.1592L84.9746 64.3213Z" fill="#FAFAFA" stroke="#FAFAFA" stroke-width="0.718163"></path><path d="M93.6062 58.1816C94.4037 57.7438 94.9622 57.6879 95.3318 57.7695C95.6507 57.84 95.8717 58.0219 96.0125 58.2314L96.0671 58.3232H96.0681L96.3679 58.8691L96.1511 58.999L95.9607 58.6514H95.9597C95.8011 58.3622 95.5319 58.0764 95.1121 57.9727C94.7489 57.8829 94.3282 57.943 93.8503 58.167L93.6423 58.2734C93.0631 58.5915 92.6932 58.9735 92.5408 59.416C92.4057 59.8085 92.4603 60.1936 92.6082 60.5342L92.6765 60.6777L92.6794 60.6826C92.8919 61.0693 93.1838 61.3356 93.5662 61.4688C93.8432 61.5652 94.1459 61.5842 94.4656 61.5527L94.7898 61.5059L96.1619 61.252C96.6445 61.1621 97.0504 61.1449 97.4021 61.2646C97.6975 61.3653 97.9927 61.576 98.2703 62.0068L98.3884 62.2051C98.6975 62.7683 98.7884 63.3166 98.6423 63.8125C98.5146 64.246 98.1904 64.6915 97.5652 65.0957L97.2791 65.2656C96.379 65.7599 95.7878 65.8106 95.4119 65.7168C95.0888 65.6361 94.867 65.4341 94.7136 65.1973L94.6521 65.0938L94.406 64.6465L94.6414 64.502L94.7732 64.7432C94.9414 65.0492 95.2153 65.3589 95.6648 65.4619C96.0471 65.5494 96.4939 65.4722 97.0164 65.2227L97.2449 65.1055C97.9161 64.7369 98.2837 64.2837 98.3865 63.7686C98.4736 63.3313 98.3554 62.9155 98.1873 62.5684L98.113 62.4238C97.878 61.9958 97.5755 61.7157 97.1775 61.585C96.8934 61.4917 96.5868 61.4841 96.2683 61.5186L95.9451 61.5654L94.5916 61.7969L94.5886 61.7979C94.0065 61.9021 93.5823 61.8687 93.2595 61.7344C92.9833 61.6193 92.7475 61.4162 92.5408 61.0898L92.4539 60.9424V60.9414C92.1829 60.4476 92.1172 59.9709 92.2683 59.5312C92.4024 59.1413 92.7239 58.7305 93.3289 58.3447L93.6062 58.1816Z" fill="#FAFAFA" stroke="#FAFAFA" stroke-width="0.718163"></path><path d="M109.649 52.123C110.729 51.8607 111.462 51.9989 111.957 52.3193C112.394 52.6024 112.696 53.0596 112.877 53.6328L112.947 53.8857L113.551 56.3691C113.72 57.0679 113.703 57.7145 113.409 58.2432C113.136 58.733 112.589 59.1861 111.563 59.4736L111.352 59.5293L108.999 60.1016L107.203 52.7168L109.649 52.123ZM111.659 52.4775C111.205 52.2064 110.636 52.1368 109.966 52.2539L109.672 52.3154L107.901 52.7344L107.549 52.8174L107.635 53.168L109.169 59.4795L109.253 59.8291L109.602 59.7441L111.408 59.3047C112.184 59.1159 112.753 58.7752 113.067 58.249C113.341 57.7898 113.386 57.2486 113.284 56.6719L113.231 56.4219L112.628 53.9385C112.477 53.3197 112.179 52.7882 111.659 52.4775Z" fill="#FAFAFA" stroke="#FAFAFA" stroke-width="0.718163"></path><path d="M122.965 50.4609L119.629 50.6855L119.27 50.709L119.295 51.0674L119.473 53.7354L119.497 54.0938L119.855 54.0703L122.991 53.8594L123.006 54.0635L119.869 54.2744L119.51 54.2979L119.535 54.6562L119.726 57.501L119.75 57.8594L120.108 57.8359L123.68 57.5957L123.695 57.8115L119.454 58.0957L118.945 50.5137L122.95 50.2451L122.965 50.4609Z" fill="#FAFAFA" stroke="#FAFAFA" stroke-width="0.718163"></path><path d="M135.517 51.6631C135.975 51.2961 136.643 51.0847 137.621 51.2344L137.821 51.2695C138.896 51.479 139.429 51.9036 139.687 52.3408C139.919 52.732 139.963 53.1888 139.905 53.6338L139.874 53.8232L139.845 53.9658L139.537 53.9238L139.564 53.7871C139.645 53.3735 139.663 52.864 139.387 52.4062C139.143 51.9994 138.706 51.6978 138.046 51.5205L137.749 51.4521C136.953 51.2971 136.294 51.4119 135.798 51.7979C135.371 52.1291 135.112 52.6234 134.967 53.1885L134.912 53.4346L134.421 55.9541V55.9551C134.279 56.684 134.289 57.3465 134.587 57.876C134.854 58.3518 135.317 58.656 135.938 58.8242L136.215 58.8887C137.097 59.0606 137.762 58.906 138.231 58.5381C138.633 58.2235 138.848 57.7866 138.955 57.3799L138.994 57.207L139.132 56.499L139.2 56.1465L138.848 56.0781L136.935 55.7051L136.97 55.5273L139.494 56.0186L138.835 59.3994L138.851 58.8438L138.873 58.0605L138.265 58.5547C137.799 58.9346 137.151 59.2134 136.227 59.082L136.039 59.0508C135.048 58.8577 134.513 58.4499 134.241 57.9561C133.996 57.5115 133.933 56.9399 134.026 56.2666L134.076 55.9717L134.574 53.417C134.715 52.6947 135.018 52.0635 135.517 51.6631Z" fill="#FAFAFA" stroke="#FAFAFA" stroke-width="0.718163"></path><path d="M148.909 54.6709L148.571 62.6748L148.261 62.5566L148.384 60.3643L148.399 60.1025L148.154 60.0088L145.069 58.834L144.823 58.7402L144.66 58.9453L143.292 60.6631L143.023 60.5605L148.068 54.3506L148.909 54.6709ZM147.986 54.7686L145.284 58.1709L144.98 58.5547L145.438 58.7295L147.948 59.6865L148.406 59.8604L148.434 59.3711L148.681 55.0332L148.696 54.7715L148.449 54.6777L148.395 54.6562L148.149 54.5635L147.986 54.7686Z" fill="#FAFAFA" stroke="#FAFAFA" stroke-width="0.718163"></path><path d="M158.77 59.4932C159.285 59.7956 159.625 60.1933 159.776 60.6025C159.906 60.954 159.903 61.3304 159.735 61.7012L159.653 61.8594L159.215 62.6045H159.214C158.78 63.3445 158.008 63.5168 157.262 63.3047L156.822 63.1797L156.805 63.6367L156.681 67.0801L156.371 66.8975L156.542 63.2559L156.553 63.0391L156.366 62.9297L154.958 62.1016L154.649 61.9199L154.467 62.2295L152.917 64.8672L152.648 64.71L156.499 58.1582L158.77 59.4932ZM156.488 58.792L154.929 61.4443L154.747 61.7539L155.056 61.9355L156.373 62.709C156.769 62.9422 157.243 63.1347 157.715 63.126C158.155 63.1178 158.563 62.9344 158.871 62.5273L158.997 62.3389L159.278 61.8594C159.512 61.4603 159.581 61.0156 159.415 60.5771C159.273 60.206 158.978 59.8804 158.563 59.6025L158.377 59.4854L156.979 58.6641L156.67 58.4824L156.488 58.792Z" fill="#FAFAFA" stroke="#FAFAFA" stroke-width="0.718163"></path><path d="M167.617 65.832L164.669 73.2793L164.415 73.0664L165.252 71.0361L165.352 70.7939L165.151 70.625L162.623 68.502L162.422 68.333L162.2 68.4727L160.345 69.6465L160.123 69.46L166.927 65.252L167.617 65.832ZM166.714 65.6201L163.044 67.9463L162.63 68.209L163.005 68.5244L165.062 70.252L165.438 70.5674L165.625 70.1143L167.283 66.0986L167.384 65.8564L167.183 65.6875L167.137 65.6494L166.936 65.4795L166.714 65.6201Z" fill="#FAFAFA" stroke="#FAFAFA" stroke-width="0.718163"></path><path d="M173.402 72.7812L173.53 72.9375L173.462 73.1279L170.948 80.2227L171.308 80.6553L177.157 75.8047L176.99 75.6016L172.138 79.624L171.864 79.8516L171.634 79.5791L171.612 79.5518L171.479 79.3936L171.548 79.1992L174.093 72.1064L173.72 71.6572L167.869 76.5078L168.037 76.7109L172.872 72.7041L173.151 72.4736L173.379 72.7539L173.402 72.7812ZM173.402 72.7812L173.123 73.0078V73.0068L173.402 72.7812Z" fill="#FAFAFA" stroke="#FAFAFA" stroke-width="0.718163"></path><path d="M183.328 85.5127L183.129 85.625L182.074 83.7676L181.897 83.4551L181.585 83.6318L175.487 87.0938L175.333 86.8242L181.431 83.3623L181.743 83.1846L181.566 82.8721L180.51 81.0127L180.709 80.9004L183.328 85.5127Z" fill="#FAFAFA" stroke="#FAFAFA" stroke-width="0.718163"></path><path d="M186.601 93.0078L186.464 93.0615L186.151 92.2617L186.02 91.9277L185.686 92.0586L179.519 94.4805L179.185 94.6113L179.316 94.9463L179.629 95.7451L179.494 95.7988L178.485 93.2295L178.621 93.1768L178.94 93.9883L179.071 94.3223L179.405 94.1914L185.572 91.7695L185.906 91.6377L185.775 91.3037L185.457 90.4922L185.592 90.4385L186.601 93.0078Z" fill="#FAFAFA" stroke="#FAFAFA" stroke-width="0.718163"></path><path d="M188.826 100.396L189.029 101.274L182.198 105.458L182.123 105.134L184.011 104.014L184.238 103.88L184.178 103.624L183.433 100.408L183.374 100.152L183.112 100.132L180.922 99.9541L180.857 99.6729L188.826 100.396ZM183.725 100.656L184.331 103.272L184.442 103.751L184.864 103.501L188.601 101.287L188.826 101.153L188.768 100.898L188.755 100.842L188.698 100.583L188.434 100.562L184.103 100.218L183.614 100.179L183.725 100.656Z" fill="#FAFAFA" stroke="#FAFAFA" stroke-width="0.718163"></path><path d="M181.689 132.615L181.692 132.616C182.161 132.772 182.505 132.93 182.812 133.227L182.942 133.363L182.944 133.365L185.707 136.441L186.11 136.891L186.312 136.321L187.608 132.667L187.79 132.731L186.207 137.195L185.983 137.116L182.91 133.737C182.625 133.422 182.264 133.212 181.845 133.037L181.406 132.87L179.871 132.325L179.976 132.028L181.689 132.615Z" fill="#FAFAFA" stroke="#FAFAFA" stroke-width="0.718163"></path><path d="M180.572 148.403L179.144 150.475C178.512 151.389 177.873 151.773 177.29 151.863C176.775 151.943 176.246 151.802 175.729 151.495L175.509 151.353L173.406 149.9C172.814 149.492 172.396 148.998 172.264 148.407C172.141 147.86 172.248 147.158 172.822 146.261L172.943 146.079L174.319 144.086L180.572 148.403ZM174.107 144.755L173.052 146.283C172.598 146.941 172.4 147.574 172.516 148.176C172.617 148.701 172.943 149.135 173.403 149.497L173.608 149.648L175.712 151.101C176.236 151.462 176.812 151.662 177.407 151.548C178.001 151.434 178.531 151.023 178.999 150.346L178.998 150.345L180.042 148.854L180.249 148.559L179.952 148.353L174.606 144.663L174.312 144.459L174.107 144.755Z" fill="#FAFAFA" stroke="#FAFAFA" stroke-width="0.718163"></path><path d="M168.209 152.286L167.609 152.919L167.362 153.18L167.623 153.427L172.43 157.987L172.69 158.234L172.938 157.974L173.536 157.341L173.642 157.44L171.742 159.443L171.638 159.344L172.229 158.721L172.477 158.46L172.216 158.213L167.409 153.652L167.148 153.405L166.901 153.666L166.31 154.289L166.204 154.188L168.104 152.187L168.209 152.286Z" fill="#FAFAFA" stroke="#FAFAFA" stroke-width="0.718163"></path><path d="M165.992 164.588L165.283 165.144L158.598 160.729L158.86 160.524L160.675 161.76L160.892 161.907L161.099 161.745L163.696 159.708L163.903 159.546L163.811 159.3L163.042 157.242L163.269 157.063L165.992 164.588ZM163.595 160.077L161.482 161.734L161.096 162.038L161.501 162.314L165.091 164.762L165.31 164.911L165.517 164.746L165.563 164.709L165.767 164.547L165.675 164.303L164.153 160.234L163.981 159.774L163.595 160.077Z" fill="#FAFAFA" stroke="#FAFAFA" stroke-width="0.718163"></path><path d="M153.208 163.803C154.108 163.309 154.698 163.258 155.074 163.352C155.398 163.432 155.62 163.635 155.773 163.872L155.836 163.976L156.08 164.421L155.845 164.565L155.713 164.325H155.712C155.544 164.019 155.271 163.709 154.821 163.606C154.439 163.519 153.993 163.596 153.471 163.846L153.242 163.963C152.571 164.332 152.202 164.785 152.1 165.3C152.013 165.737 152.131 166.153 152.3 166.5L152.375 166.645C152.61 167.072 152.912 167.353 153.31 167.483C153.688 167.608 154.107 167.58 154.541 167.503L154.54 167.502L155.896 167.271L155.899 167.271C156.481 167.166 156.905 167.199 157.228 167.333C157.504 167.448 157.74 167.652 157.947 167.979L158.034 168.126C158.305 168.62 158.37 169.097 158.219 169.537C158.085 169.927 157.763 170.338 157.158 170.724L156.882 170.887C156.084 171.325 155.525 171.38 155.155 171.298C154.836 171.227 154.616 171.046 154.475 170.836L154.419 170.745L154.118 170.198L154.335 170.068L154.526 170.416V170.417C154.685 170.706 154.955 170.991 155.375 171.095C155.738 171.184 156.158 171.125 156.636 170.901L156.845 170.796V170.795C157.424 170.477 157.794 170.094 157.946 169.651C158.081 169.259 158.027 168.875 157.879 168.534L157.811 168.391L157.808 168.386L157.724 168.246C157.52 167.934 157.255 167.716 156.921 167.6C156.644 167.503 156.342 167.484 156.022 167.516L155.697 167.562L154.325 167.816C153.842 167.906 153.437 167.923 153.085 167.804C152.79 167.703 152.495 167.492 152.217 167.062L152.099 166.862C151.79 166.299 151.699 165.752 151.845 165.256C151.972 164.822 152.296 164.377 152.921 163.973L153.208 163.803Z" fill="#FAFAFA" stroke="#FAFAFA" stroke-width="0.718163"></path><path d="M143.288 176.35L140.842 176.945C139.763 177.208 139.03 177.069 138.535 176.748C138.097 176.465 137.796 176.008 137.615 175.435L137.544 175.182L136.941 172.699C136.771 172 136.788 171.353 137.083 170.824C137.355 170.334 137.903 169.881 138.928 169.594L139.139 169.538L141.491 168.966L143.288 176.35ZM140.888 169.324L139.083 169.763C138.307 169.951 137.739 170.292 137.424 170.818C137.15 171.278 137.105 171.819 137.208 172.396L137.26 172.646L137.864 175.129C138.014 175.748 138.311 176.28 138.832 176.591C139.351 176.901 140.02 176.947 140.82 176.753L140.819 176.752L142.59 176.334L142.942 176.25L142.857 175.899L141.322 169.588L141.238 169.239L140.888 169.324Z" fill="#FAFAFA" stroke="#FAFAFA" stroke-width="0.718163"></path><path d="M131.544 178.554L127.538 178.822L127.523 178.606L130.86 178.383L131.219 178.359L131.195 178.001L131.016 175.333L130.992 174.975L130.634 174.999L127.497 175.208L127.483 175.004L130.62 174.795L130.978 174.771L130.954 174.412L130.763 171.567L130.739 171.209L130.381 171.232L126.808 171.472L126.794 171.256L131.035 170.972L131.544 178.554Z" fill="#FAFAFA" stroke="#FAFAFA" stroke-width="0.718163"></path><path d="M111.638 170.225L111.616 171.008L112.224 170.513C112.69 170.133 113.338 169.855 114.262 169.986L114.45 170.019C115.441 170.211 115.976 170.618 116.248 171.112C116.493 171.557 116.555 172.128 116.463 172.802L116.414 173.097L115.915 175.651C115.774 176.374 115.47 177.005 114.972 177.405C114.515 177.772 113.847 177.983 112.869 177.833L112.669 177.799C111.594 177.59 111.06 177.165 110.802 176.728C110.571 176.336 110.526 175.88 110.584 175.435L110.615 175.245L110.643 175.102L110.951 175.144L110.925 175.281C110.844 175.695 110.826 176.204 111.101 176.662C111.345 177.069 111.783 177.371 112.443 177.548L112.74 177.616C113.536 177.771 114.195 177.657 114.691 177.271C115.118 176.939 115.377 176.445 115.522 175.88L115.577 175.634L116.068 173.113C116.21 172.385 116.2 171.723 115.902 171.193C115.634 170.717 115.172 170.412 114.55 170.244L114.274 170.181C113.392 170.009 112.727 170.162 112.258 170.53C111.856 170.845 111.641 171.282 111.534 171.688L111.495 171.86V171.861L111.357 172.569L111.289 172.922L111.641 172.99L113.553 173.362L113.519 173.54L110.994 173.049L111.653 169.668L111.638 170.225Z" fill="#FAFAFA" stroke="#FAFAFA" stroke-width="0.718163"></path><path d="M102.229 166.51L102.107 168.703L102.093 168.965L102.338 169.059L105.423 170.233L105.668 170.327L105.831 170.121L107.197 168.402L107.468 168.506L102.423 174.716L101.581 174.395L101.92 166.392L102.229 166.51ZM102.057 169.696L101.81 174.033L101.796 174.296L102.041 174.39L102.095 174.41L102.342 174.504L102.505 174.298L105.207 170.896L105.511 170.512L105.053 170.337L102.544 169.381L102.086 169.207L102.057 169.696Z" fill="#FAFAFA" stroke="#FAFAFA" stroke-width="0.718163"></path><path d="M94.1184 162.17L93.9465 165.812L93.9368 166.029L94.1233 166.14L95.5305 166.967L95.8411 167.148L96.0227 166.839L97.5725 164.2L97.8411 164.357L93.9895 170.909L91.72 169.575H91.719C91.2046 169.273 90.8653 168.875 90.7141 168.466C90.5843 168.114 90.5865 167.737 90.7551 167.366L90.8372 167.208L91.2747 166.463C91.7094 165.723 92.4804 165.552 93.2278 165.764L93.6682 165.889L93.6848 165.431L93.8079 161.987L94.1184 162.17ZM92.7747 165.941C92.3343 165.949 91.9261 166.134 91.6184 166.541L91.4934 166.729H91.4924L91.2112 167.209C90.9765 167.608 90.9083 168.053 91.0754 168.491C91.217 168.863 91.5119 169.188 91.928 169.466L92.1135 169.582L93.511 170.403L93.8206 170.586L94.0022 170.276L95.5608 167.624L95.7424 167.314L95.4329 167.132L94.1174 166.359C93.7205 166.126 93.2467 165.933 92.7747 165.941Z" fill="#FAFAFA" stroke="#FAFAFA" stroke-width="0.718163"></path><path d="M86.0728 155.998L85.2378 158.029L85.1372 158.271L85.3384 158.44L87.8667 160.563L88.0669 160.732L88.2896 160.592L90.144 159.418L90.3657 159.604L83.5601 163.812L82.8706 163.232L85.8188 155.785L86.0728 155.998ZM84.8647 158.951L83.2065 162.967L83.105 163.212L83.3101 163.381L83.355 163.418L83.5562 163.584L83.7759 163.444L87.4448 161.119L87.8589 160.856L87.4839 160.541L85.4272 158.812L85.0513 158.497L84.8647 158.951Z" fill="#FAFAFA" stroke="#FAFAFA" stroke-width="0.718163"></path><path d="M78.8789 149.517L79.0098 149.675L78.9404 149.867L76.3955 156.958L76.7676 157.407L82.6191 152.558L82.4502 152.354L77.6172 156.361L77.3408 156.591L77.1113 156.314L77.0889 156.287L76.959 156.13L77.0273 155.938L79.5391 148.842L79.1807 148.41L73.3301 153.26L73.499 153.464L78.3506 149.442L78.6279 149.213L78.8564 149.489L78.8789 149.517ZM78.8789 149.517L78.6025 149.746V149.745L78.8789 149.517Z" fill="#FAFAFA" stroke="#FAFAFA" stroke-width="0.718163"></path><path d="M75.1565 142.246L69.0598 145.709L68.7473 145.886L68.925 146.198L69.9797 148.057L69.7815 148.169L67.1624 143.557L67.3606 143.444L68.4163 145.303L68.594 145.615L68.9065 145.438L75.0032 141.976L75.1565 142.246Z" fill="#FAFAFA" stroke="#FAFAFA" stroke-width="0.718163"></path><path d="M72.0029 135.838L71.8682 135.892L71.5498 135.08L71.4189 134.746L71.084 134.878L64.917 137.299L64.583 137.431L64.7139 137.765L65.0322 138.575L64.8965 138.628L63.8877 136.06L64.0234 136.006L64.3379 136.807L64.4688 137.141L64.8037 137.01L70.9707 134.588L71.3047 134.457L71.1738 134.122L70.8594 133.321L70.9941 133.269L72.0029 135.838Z" fill="#FAFAFA" stroke="#FAFAFA" stroke-width="0.718163"></path><path d="M68.3682 123.934L66.4805 125.055L66.2539 125.188L66.3135 125.444L67.0586 128.66L67.1182 128.916L67.3799 128.938L69.5674 129.112L69.6328 129.395L61.665 128.672L61.4609 127.793L68.293 123.61L68.3682 123.934ZM65.6279 125.568L61.8896 127.782L61.6641 127.916L61.7236 128.173L61.7363 128.229L61.7959 128.485L62.0576 128.507L66.3887 128.852L66.8779 128.891L66.7666 128.412L66.1602 125.796L66.0498 125.318L65.6279 125.568Z" fill="#FAFAFA" stroke="#FAFAFA" stroke-width="0.718163"></path><path opacity="0.3" d="M125.123 197.147C170.727 197.147 207.697 160.177 207.697 114.572C207.697 68.9679 170.727 31.998 125.123 31.998C79.5182 31.998 42.5483 68.9679 42.5483 114.572C42.5483 160.177 79.5182 197.147 125.123 197.147Z" stroke="#FAFAFA" stroke-width="0.790188"></path><path d="M110.242 143.006L132.079 99.2753V98.9109H106.641V89.6963H143.602V99.041L121.739 143.006H110.242Z" fill="#FAFAFA"></path><defs><linearGradient id="paint0_linear_719_176" x1="237.654" y1="44.3673" x2="125" y2="113.426" gradientUnits="userSpaceOnUse"><stop stop-color="#FF9697"></stop><stop offset="1" stop-color="#E72B39"></stop></linearGradient></defs></svg>