<svg xmlns="http://www.w3.org/2000/svg" width="50" height="51" viewBox="0 0 50 51" fill="none"><circle cx="25" cy="25.249" r="25" fill="#FF5B67" fill-opacity="0.33"></circle><circle cx="25" cy="25.249" r="17.5" fill="#E72B39"></circle><path d="M20.8333 24.416L24.1666 16.916C24.8297 16.916 25.4656 17.1794 25.9344 17.6482C26.4032 18.1171 26.6666 18.753 26.6666 19.416V22.7493H31.3833C31.6249 22.7466 31.8642 22.7964 32.0846 22.8954C32.305 22.9943 32.5013 23.14 32.6598 23.3223C32.8184 23.5046 32.9354 23.7192 33.0027 23.9512C33.0701 24.1832 33.0862 24.4271 33.05 24.666L31.9 32.166C31.8397 32.5634 31.6378 32.9257 31.3315 33.186C31.0253 33.4464 30.6352 33.5872 30.2333 33.5827H20.8333M20.8333 24.416V33.5827M20.8333 24.416H18.3333C17.8913 24.416 17.4673 24.5916 17.1548 24.9042C16.8422 25.2167 16.6666 25.6407 16.6666 26.0827V31.916C16.6666 32.358 16.8422 32.782 17.1548 33.0945C17.4673 33.4071 17.8913 33.5827 18.3333 33.5827H20.8333" stroke="#FAFAFA" stroke-width="1.46" stroke-linecap="round" stroke-linejoin="round"></path></svg>