<svg xmlns="http://www.w3.org/2000/svg" width="300" height="220" viewBox="0 0 300 220" fill="none"><g clip-path="url(#clip0_721_703)"><rect width="300" height="220" rx="10" fill="#15181C"></rect><path d="M259.446 154.821C260.014 154.821 260.475 154.361 260.469 153.792C260.469 153.775 260.469 153.758 260.469 153.741C260.463 153.173 259.992 152.722 259.424 152.734V152.734C258.856 152.745 258.406 153.22 258.412 153.788V153.788C258.417 154.356 258.878 154.821 259.446 154.821V154.821Z" fill="#E9EDF0"></path><path d="M283.654 154.5C284.119 154.5 284.497 154.123 284.494 153.658V153.658C284.491 153.193 284.109 152.821 283.644 152.827L266.452 153.043C266.052 153.048 265.732 153.376 265.735 153.776V153.776C265.737 154.176 266.061 154.5 266.461 154.5H283.654Z" fill="#E9EDF0"></path><path d="M259.059 145.325C259.625 145.275 260.044 144.776 259.989 144.211C259.988 144.194 259.986 144.177 259.984 144.16C259.929 143.594 259.421 143.186 258.856 143.247V143.247C258.291 143.308 257.884 143.82 257.939 144.385V144.385C257.994 144.951 258.493 145.374 259.059 145.325V145.325Z" fill="#E9EDF0"></path><path d="M283.148 142.894C283.611 142.854 283.954 142.446 283.91 141.983V141.983C283.867 141.52 283.454 141.182 282.991 141.229L265.884 142.942C265.486 142.982 265.196 143.337 265.233 143.735V143.735C265.27 144.133 265.621 144.428 266.02 144.393L283.148 142.894Z" fill="#E9EDF0"></path><path d="M257.847 135.898C258.406 135.799 258.78 135.265 258.676 134.707C258.673 134.69 258.67 134.673 258.667 134.657C258.562 134.098 258.021 133.736 257.463 133.846V133.846C256.906 133.956 256.544 134.501 256.649 135.06V135.06C256.753 135.618 257.287 135.996 257.847 135.898V135.898Z" fill="#E9EDF0"></path><path d="M281.632 131.378C282.09 131.297 282.396 130.86 282.312 130.403V130.403C282.228 129.946 281.788 129.645 281.331 129.732L264.437 132.93C264.044 133.004 263.786 133.383 263.858 133.776V133.776C263.93 134.17 264.306 134.433 264.699 134.363L281.632 131.378Z" fill="#E9EDF0"></path><path d="M255.817 126.613C256.366 126.466 256.692 125.902 256.539 125.354C256.535 125.338 256.53 125.322 256.526 125.305C256.373 124.758 255.801 124.444 255.256 124.602V124.602C254.71 124.761 254.398 125.335 254.55 125.883V125.883C254.703 126.43 255.268 126.76 255.817 126.613V126.613Z" fill="#E9EDF0"></path><path d="M279.117 120.037C279.567 119.916 279.833 119.454 279.71 119.006V119.006C279.587 118.558 279.122 118.297 278.674 118.423L262.124 123.081C261.739 123.19 261.515 123.59 261.621 123.975V123.975C261.727 124.361 262.123 124.59 262.51 124.487L279.117 120.037Z" fill="#E9EDF0"></path><path d="M252.985 117.541C253.519 117.346 253.795 116.756 253.595 116.224C253.589 116.208 253.583 116.192 253.577 116.176C253.378 115.644 252.781 115.381 252.251 115.587V115.587C251.722 115.792 251.461 116.392 251.66 116.924V116.924C251.86 117.455 252.451 117.735 252.985 117.541V117.541Z" fill="#E9EDF0"></path><path d="M275.624 108.959C276.061 108.8 276.287 108.316 276.125 107.88V107.88C275.963 107.444 275.477 107.225 275.042 107.39L258.961 113.473C258.587 113.614 258.398 114.032 258.537 114.407V114.407C258.677 114.782 259.092 114.976 259.468 114.839L275.624 108.959Z" fill="#E9EDF0"></path><path d="M249.374 108.748C249.889 108.508 250.113 107.896 249.867 107.383C249.86 107.368 249.853 107.353 249.845 107.337C249.6 106.825 248.983 106.615 248.473 106.866V106.866C247.963 107.116 247.755 107.737 248 108.249V108.249C248.246 108.762 248.859 108.989 249.374 108.748V108.748Z" fill="#E9EDF0"></path><path d="M271.179 98.2257C271.6 98.0292 271.783 97.5281 271.584 97.108V97.108C271.385 96.6878 270.881 96.5119 270.462 96.7137L254.972 104.175C254.612 104.349 254.461 104.781 254.632 105.143V105.143C254.803 105.504 255.234 105.661 255.596 105.492L271.179 98.2257Z" fill="#E9EDF0"></path><path d="M245.011 100.305C245.503 100.021 245.672 99.3919 245.383 98.9027C245.374 98.8881 245.365 98.8734 245.357 98.8588C245.068 98.3697 244.435 98.2143 243.948 98.5085V98.5085C243.462 98.8026 243.309 99.4386 243.598 99.9277V99.9277C243.888 100.417 244.519 100.59 245.011 100.305V100.305Z" fill="#E9EDF0"></path><path d="M265.815 87.9229C266.218 87.6904 266.356 87.1754 266.121 86.7741V86.7741C265.886 86.3729 265.369 86.2416 264.97 86.4791L250.189 95.2623C249.845 95.4666 249.732 95.9108 249.934 96.2558V96.2558C250.136 96.6009 250.579 96.7196 250.925 96.5197L265.815 87.9229Z" fill="#E9EDF0"></path><path d="M239.927 92.275C240.393 91.9491 240.506 91.3073 240.176 90.8451C240.166 90.8313 240.156 90.8174 240.146 90.8036C239.815 90.3416 239.171 90.242 238.713 90.5774V90.5774C238.254 90.9127 238.157 91.5597 238.488 92.0218V92.0218C238.818 92.4838 239.462 92.6009 239.927 92.275V92.275Z" fill="#E9EDF0"></path><path d="M259.574 78.1261C259.955 77.8594 260.047 77.3343 259.778 76.9551V76.9551C259.509 76.5758 258.983 76.49 258.605 76.7615L244.646 86.7995C244.322 87.033 244.248 87.4853 244.479 87.8114V87.8114C244.711 88.1375 245.162 88.2173 245.49 87.9879L259.574 78.1261Z" fill="#E9EDF0"></path><path d="M234.164 84.7175C234.599 84.3523 234.656 83.703 234.287 83.2714C234.276 83.2585 234.265 83.2456 234.254 83.2327C233.884 82.8013 233.234 82.7582 232.806 83.1322V83.1322C232.378 83.5063 232.338 84.1592 232.708 84.5907V84.5907C233.077 85.0222 233.729 85.0827 234.164 84.7175V84.7175Z" fill="#E9EDF0"></path><path d="M252.502 68.9096C252.859 68.6107 252.905 68.0795 252.604 67.7252V67.7252C252.303 67.3709 251.771 67.3313 251.419 67.6346L238.388 78.8511C238.085 79.1119 238.051 79.569 238.31 79.8737V79.8737C238.568 80.1784 239.025 80.2185 239.331 79.9614L252.502 68.9096Z" fill="#E9EDF0"></path><path d="M227.764 77.6902C228.166 77.2884 228.166 76.6366 227.76 76.2389C227.748 76.227 227.736 76.2151 227.724 76.2032C227.318 75.8057 226.666 75.8194 226.273 76.2293V76.2293C225.879 76.6392 225.896 77.2932 226.302 77.6908V77.6908C226.708 78.0884 227.362 78.092 227.764 77.6902V77.6902Z" fill="#E9EDF0"></path><path d="M244.655 60.3453C244.983 60.0165 244.984 59.4833 244.653 59.1565V59.1565C244.322 58.8298 243.789 58.8367 243.464 59.1696L231.46 71.4791C231.181 71.7654 231.187 72.2237 231.471 72.5046V72.5046C231.756 72.7856 232.214 72.7858 232.497 72.503L244.655 60.3453Z" fill="#E9EDF0"></path><path d="M220.775 71.2491C221.14 70.8138 221.084 70.1645 220.645 69.8036C220.632 69.7928 220.619 69.782 220.606 69.7712C220.167 69.4106 219.519 69.4811 219.162 69.9237V69.9237C218.806 70.3664 218.88 71.0164 219.319 71.3771V71.3771C219.758 71.7378 220.41 71.6843 220.775 71.2491V71.2491Z" fill="#E9EDF0"></path><path d="M236.09 52.4976C236.389 52.1414 236.343 51.6101 235.985 51.3135V51.3135C235.627 51.0169 235.096 51.0702 234.802 51.4301L223.916 64.739C223.663 65.0485 223.709 65.5045 224.017 65.7596V65.7596C224.325 66.0147 224.781 65.975 225.038 65.6686L236.09 52.4976Z" fill="#E9EDF0"></path><path d="M213.252 65.4406C213.578 64.9752 213.465 64.3333 212.996 64.012C212.982 64.0024 212.968 63.9928 212.954 63.9832C212.485 63.6622 211.846 63.7889 211.53 64.2609V64.2609C211.213 64.7329 211.344 65.374 211.812 65.6951V65.6951C212.281 66.0162 212.926 65.9061 213.252 65.4406V65.4406Z" fill="#E72B39"></path><path d="M226.874 45.4259C227.141 45.045 227.048 44.5198 226.666 44.2555V44.2555C226.283 43.9912 225.759 44.0906 225.498 44.4748L215.813 58.6817C215.588 59.0122 215.674 59.4624 216.003 59.6897V59.6897C216.332 59.917 216.783 59.8376 217.012 59.51L226.874 45.4259Z" fill="#E72B39"></path><path d="M205.251 60.3115C205.536 59.8194 205.367 59.1898 204.872 58.9106C204.858 58.9022 204.843 58.8939 204.828 58.8855C204.333 58.6066 203.707 58.7885 203.433 59.2863V59.2863C203.159 59.7841 203.345 60.4114 203.84 60.6904V60.6904C204.335 60.9695 204.967 60.8035 205.251 60.3115V60.3115Z" fill="#E72B39"></path><path d="M217.077 39.1842C217.31 38.7816 217.172 38.2664 216.768 38.0364V38.0364C216.364 37.8065 215.85 37.9512 215.623 38.3567L207.214 53.3537C207.018 53.7024 207.143 54.1435 207.49 54.3413V54.3413C207.838 54.5391 208.281 54.4206 208.481 54.0743L217.077 39.1842Z" fill="#E72B39"></path><path d="M205.251 60.3115C205.536 59.8194 205.367 59.1897 204.872 58.9106C204.858 58.9022 204.843 58.8939 204.828 58.8855C204.333 58.6066 203.707 58.7885 203.433 59.2863V59.2863C203.159 59.7841 203.345 60.4114 203.84 60.6904V60.6904C204.335 60.9694 204.967 60.8035 205.251 60.3115V60.3115Z" fill="#E72B39"></path><path d="M217.077 39.1842C217.31 38.7815 217.172 38.2664 216.768 38.0364V38.0364C216.364 37.8065 215.85 37.9511 215.623 38.3567L207.214 53.3536C207.018 53.7024 207.143 54.1435 207.49 54.3413V54.3413C207.838 54.539 208.281 54.4206 208.481 54.0743L217.077 39.1842Z" fill="#E72B39"></path><path d="M196.834 55.8975C197.074 55.3826 196.851 54.77 196.334 54.535C196.319 54.528 196.303 54.521 196.288 54.5139C195.77 54.2792 195.163 54.515 194.933 55.0348V55.0348C194.704 55.5545 194.943 56.1632 195.46 56.3981V56.3981C195.978 56.6329 196.594 56.4125 196.834 55.8975V55.8975Z" fill="#E72B39"></path><path d="M206.774 33.8204C206.97 33.399 206.788 32.8978 206.365 32.704V32.704C205.943 32.5101 205.444 32.699 205.253 33.1228L198.183 48.7956C198.018 49.1601 198.181 49.5887 198.544 49.7554V49.7554C198.908 49.9221 199.338 49.7655 199.507 49.4031L206.774 33.8204Z" fill="#E72B39"></path><path d="M188.064 52.2338C188.258 51.6998 187.983 51.109 187.447 50.92C187.431 50.9143 187.415 50.9087 187.399 50.903C186.863 50.7143 186.278 51.0021 186.095 51.5399V51.5399C185.911 52.0777 186.203 52.6633 186.739 52.8521V52.8521C187.275 53.0409 187.869 52.7677 188.064 52.2338V52.2338Z" fill="#E72B39"></path><path d="M196.042 29.3752C196.201 28.9382 195.975 28.4548 195.537 28.2986V28.2986C195.1 28.1423 194.619 28.3739 194.466 28.8128L188.789 45.0421C188.657 45.4195 188.856 45.8323 189.232 45.9667V45.9667C189.609 46.1011 190.024 45.9076 190.161 45.5318L196.042 29.3752Z" fill="#E72B39"></path><path d="M179.007 49.3498C179.154 48.801 178.829 48.2364 178.279 48.0948C178.262 48.0906 178.246 48.0863 178.229 48.0821C177.679 47.9408 177.121 48.2785 176.986 48.8302V48.8302C176.85 49.382 177.191 49.9398 177.742 50.0813V50.0813C178.292 50.2227 178.86 49.8987 179.007 49.3498V49.3498Z" fill="#E72B39"></path><path d="M184.963 25.8828C185.083 25.4337 184.817 24.9718 184.367 24.8542V24.8542C183.917 24.7367 183.459 25.0093 183.344 25.4599L179.103 42.1222C179.004 42.5098 179.238 42.9036 179.625 43.0047V43.0047C180.012 43.1058 180.409 42.8768 180.513 42.4905L184.963 25.8828Z" fill="#E72B39"></path><path d="M169.734 47.2648C169.833 46.7053 169.46 46.1712 168.899 46.0781C168.882 46.0753 168.866 46.0725 168.849 46.0698C168.288 45.977 167.762 46.362 167.675 46.9234V46.9234C167.588 47.4849 167.977 48.0109 168.537 48.1038V48.1038C169.098 48.1967 169.636 47.8244 169.734 47.2648V47.2648Z" fill="#E72B39"></path><path d="M173.622 23.3682C173.703 22.9103 173.397 22.4734 172.939 22.3955V22.3955C172.48 22.3176 172.047 22.6291 171.972 23.088L169.2 40.0566C169.135 40.4512 169.403 40.8232 169.797 40.8902V40.8902C170.191 40.9571 170.567 40.6944 170.636 40.3006L173.622 23.3682Z" fill="#E72B39"></path><path d="M160.316 45.9963C160.365 45.4303 159.946 44.9308 159.38 44.8869C159.363 44.8856 159.346 44.8843 159.329 44.883C158.763 44.8394 158.272 45.2688 158.234 45.8357V45.8357C158.196 46.4026 158.63 46.8927 159.196 46.9364V46.9364C159.763 46.9801 160.266 46.5623 160.316 45.9963V45.9963Z" fill="#E72B39"></path><path d="M162.105 21.8522C162.146 21.389 161.803 20.9804 161.34 20.9428V20.9428C160.876 20.9051 160.472 21.2532 160.438 21.7169L159.154 38.8625C159.125 39.2612 159.424 39.6085 159.822 39.6408V39.6408C160.221 39.6732 160.572 39.3787 160.607 38.9804L162.105 21.8522Z" fill="#E72B39"></path><path d="M150.822 45.554C150.822 44.9858 150.361 44.5247 149.793 44.5304C149.776 44.5305 149.759 44.5307 149.742 44.5309C149.174 44.5369 148.723 45.0073 148.734 45.5754V45.5754C148.746 46.1435 149.22 46.5939 149.788 46.5881V46.5881C150.357 46.5823 150.822 46.1222 150.822 45.554V45.554Z" fill="#E72B39"></path><path d="M150.5 21.346C150.5 20.881 150.123 20.5038 149.658 20.5067V20.5067C149.193 20.5097 148.821 20.8916 148.827 21.3565L149.043 38.5487C149.048 38.9486 149.376 39.2684 149.776 39.2659V39.2659C150.176 39.2634 150.5 38.9395 150.5 38.5396L150.5 21.346Z" fill="#E72B39"></path><path d="M141.325 45.9408C141.276 45.3748 140.777 44.9556 140.211 45.0107C140.194 45.0124 140.177 45.014 140.16 45.0157C139.595 45.0712 139.186 45.5792 139.248 46.1441V46.1441C139.309 46.7089 139.82 47.1163 140.386 47.061V47.061C140.951 47.0057 141.375 46.5068 141.325 45.9408V45.9408Z" fill="#E72B39"></path><path d="M138.895 21.852C138.854 21.3888 138.446 21.0458 137.983 21.0893V21.0893C137.52 21.1327 137.183 21.5456 137.229 22.0083L138.943 39.1162C138.982 39.5141 139.337 39.8041 139.735 39.7668V39.7668C140.134 39.7294 140.428 39.3785 140.393 38.9801L138.895 21.852Z" fill="#E72B39"></path><path d="M131.898 47.1526C131.8 46.5931 131.266 46.2189 130.707 46.3232C130.691 46.3263 130.674 46.3294 130.657 46.3326C130.099 46.4371 129.736 46.9788 129.846 47.5362V47.5362C129.956 48.0936 130.502 48.4548 131.06 48.3504V48.3504C131.619 48.246 131.997 47.7122 131.898 47.1526V47.1526Z" fill="#E72B39"></path><path d="M127.378 23.3678C127.297 22.9099 126.861 22.6039 126.403 22.6875V22.6875C125.946 22.7711 125.646 23.2118 125.732 23.6687L128.93 40.5622C129.005 40.9551 129.383 41.2131 129.777 41.1412V41.1412C130.17 41.0693 130.433 40.694 130.364 40.3002L127.378 23.3678Z" fill="#E72B39"></path><path d="M122.613 49.1833C122.466 48.6345 121.902 48.3082 121.354 48.4608C121.338 48.4654 121.322 48.4699 121.305 48.4745C120.758 48.6273 120.444 49.1985 120.602 49.7442V49.7442C120.761 50.2899 121.335 50.6022 121.883 50.4495V50.4495C122.43 50.2969 122.76 49.7321 122.613 49.1833V49.1833Z" fill="#E72B39"></path><path d="M116.037 25.8823C115.917 25.4332 115.455 25.1664 115.007 25.2896V25.2896C114.558 25.4127 114.298 25.878 114.424 26.3255L119.082 42.876C119.19 43.261 119.59 43.4849 119.976 43.379V43.379C120.361 43.2731 120.591 42.8763 120.487 42.49L116.037 25.8823Z" fill="#E72B39"></path><path d="M113.54 52.0134C113.346 51.4795 112.755 51.2037 112.223 51.4033C112.207 51.4093 112.191 51.4153 112.175 51.4213C111.644 51.6212 111.381 52.2176 111.586 52.7474V52.7474C111.791 53.2772 112.391 53.5383 112.923 53.3385V53.3385C113.455 53.1387 113.734 52.5473 113.54 52.0134V52.0134Z" fill="#E72B39"></path><path d="M104.958 29.3752C104.799 28.9383 104.316 28.7127 103.88 28.8745V28.8745C103.444 29.0363 103.225 29.5224 103.389 29.9574L109.472 46.0388C109.614 46.4129 110.032 46.6012 110.407 46.462V46.462C110.782 46.3229 110.975 45.9076 110.839 45.5319L104.958 29.3752Z" fill="#E72B39"></path><path d="M104.749 55.6262C104.509 55.1113 103.896 54.888 103.384 55.1332C103.368 55.1406 103.353 55.1479 103.338 55.1553C102.825 55.4008 102.615 56.0178 102.866 56.5278V56.5278C103.117 57.0377 103.737 57.2454 104.249 57V57C104.762 56.7547 104.989 56.1412 104.749 55.6262V55.6262Z" fill="#E72B39"></path><path d="M94.2264 33.8217C94.0299 33.4003 93.5289 33.2178 93.1087 33.4169V33.4169C92.6885 33.6161 92.5126 34.1195 92.7144 34.5384L100.176 50.0285C100.349 50.3888 100.782 50.54 101.143 50.3687V50.3687C101.505 50.1974 101.662 49.7668 101.493 49.4044L94.2264 33.8217Z" fill="#E72B39"></path><path d="M96.3052 59.9899C96.0211 59.4978 95.3917 59.3288 94.9025 59.6178C94.8878 59.6264 94.8732 59.6351 94.8585 59.6437C94.3695 59.933 94.2141 60.566 94.5082 61.0521V61.0521C94.8023 61.5382 95.4384 61.6911 95.9275 61.402V61.402C96.4166 61.1129 96.5893 60.4819 96.3052 59.9899V59.9899Z" fill="#E72B39"></path><path d="M83.9224 39.1846C83.6899 38.7819 83.1749 38.6437 82.7737 38.8787V38.8787C82.3724 39.1137 82.2411 39.6306 82.4786 40.0303L91.2618 54.8112C91.4661 55.1549 91.9103 55.2678 92.2553 55.0657V55.0657C92.6004 54.8636 92.7191 54.421 92.5192 54.0746L83.9224 39.1846Z" fill="#E72B39"></path><path d="M96.3057 59.9899C96.0216 59.4978 95.3921 59.3288 94.9029 59.6178C94.8883 59.6264 94.8737 59.6351 94.859 59.6437C94.37 59.933 94.2146 60.5659 94.5087 61.0521V61.0521C94.8028 61.5382 95.4388 61.6911 95.928 61.402V61.402C96.4171 61.1129 96.5898 60.4819 96.3057 59.9899V59.9899Z" fill="#E72B39"></path><path d="M83.9229 39.1846C83.6904 38.7819 83.1753 38.6437 82.7741 38.8787V38.8787C82.3729 39.1137 82.2416 39.6306 82.4791 40.0303L91.2623 54.8112C91.4666 55.1549 91.9107 55.2678 92.2558 55.0657V55.0657C92.6008 54.8636 92.7196 54.4209 92.5197 54.0746L83.9229 39.1846Z" fill="#E72B39"></path><path d="M88.2745 65.0719C87.9486 64.6065 87.3068 64.4929 86.8446 64.8235C86.8308 64.8334 86.8169 64.8433 86.8031 64.8532C86.3411 65.1839 86.2415 65.8281 86.5769 66.2867V66.2867C86.9122 66.7454 87.5592 66.8422 88.0213 66.5116V66.5116C88.4833 66.1809 88.6004 65.5373 88.2745 65.0719V65.0719Z" fill="#E72B39"></path><path d="M74.1256 45.4265C73.8589 45.0456 73.3338 44.9528 72.9546 45.2219V45.2219C72.5753 45.491 72.4895 46.0173 72.761 46.3948L82.799 60.3539C83.0325 60.6786 83.4848 60.7523 83.8109 60.5209V60.5209C84.137 60.2895 84.2168 59.8382 83.9874 59.5106L74.1256 45.4265Z" fill="#E72B39"></path><path d="M80.7175 70.8359C80.3523 70.4007 79.703 70.3435 79.2714 70.7131C79.2585 70.7241 79.2456 70.7352 79.2327 70.7463C78.8013 71.116 78.7582 71.7664 79.1322 72.1941V72.1941C79.5063 72.6217 80.1592 72.6619 80.5907 72.2922V72.2922C81.0222 71.9226 81.0827 71.2712 80.7175 70.8359V70.8359Z" fill="#E72B39"></path><path d="M64.9101 52.4969C64.6112 52.1407 64.08 52.0941 63.7257 52.3952V52.3952C63.3714 52.6963 63.3318 53.2281 63.6351 53.5805L74.8516 66.6116C75.1124 66.9147 75.5694 66.9487 75.8741 66.6898V66.6898C76.1789 66.4308 76.219 65.9743 75.9619 65.668L64.9101 52.4969Z" fill="#E72B39"></path><path d="M73.6907 77.2368C73.2889 76.835 72.6371 76.8346 72.2394 77.2404C72.2275 77.2525 72.2156 77.2647 72.2037 77.2768C71.8061 77.6828 71.8199 78.3344 72.2298 78.7279V78.7279C72.6397 79.1213 73.2937 79.1044 73.6913 78.6985V78.6985C74.0889 78.2927 74.0924 77.6385 73.6907 77.2368V77.2368Z" fill="#E72B39"></path><path d="M56.3453 60.3453C56.0165 60.0166 55.4832 60.0164 55.1565 60.3472V60.3472C54.8298 60.6781 54.8367 61.2113 55.1696 61.5359L67.4791 73.5399C67.7654 73.8191 68.2236 73.8131 68.5046 73.5286V73.5286C68.7856 73.2441 68.7858 72.7858 68.503 72.503L56.3453 60.3453Z" fill="#E72B39"></path><path d="M67.2493 84.2251C66.8141 83.8599 66.1647 83.9163 65.8039 84.3552C65.7931 84.3683 65.7823 84.3815 65.7715 84.3946C65.4108 84.8337 65.4813 85.4816 65.924 85.8379V85.8379C66.3666 86.1941 67.0166 86.1202 67.3773 85.6813V85.6813C67.7381 85.2423 67.6846 84.5903 67.2493 84.2251V84.2251Z" fill="#E72B39"></path><path d="M48.4976 68.9092C48.1414 68.6103 47.6101 68.6566 47.3135 69.0146V69.0146C47.0168 69.3727 47.0702 69.9033 47.4301 70.1977L60.739 81.0831C61.0485 81.3363 61.5045 81.2904 61.7596 80.9825V80.9825C62.0147 80.6746 61.9749 80.218 61.6686 79.961L48.4976 68.9092Z" fill="#E72B39"></path><path d="M61.4409 91.7488C60.9754 91.4229 60.3335 91.5357 60.0123 92.0044C60.0026 92.0184 59.993 92.0325 59.9834 92.0465C59.6624 92.5153 59.7891 93.1547 60.2611 93.471V93.471C60.7331 93.7873 61.3742 93.657 61.6953 93.1883V93.1883C62.0164 92.7196 61.9063 92.0747 61.4409 91.7488V91.7488Z" fill="#E72B39"></path><path d="M41.4259 78.1261C41.045 77.8594 40.5198 77.9518 40.2555 78.3343V78.3343C39.9912 78.7169 40.0905 79.2408 40.4747 79.5027L54.6817 89.1868C55.0121 89.412 55.4624 89.3266 55.6897 88.9976V88.9976C55.917 88.6686 55.8376 88.2172 55.51 87.9879L41.4259 78.1261Z" fill="#E72B39"></path><path d="M56.311 99.749C55.8189 99.465 55.1893 99.6333 54.9101 100.128C54.9017 100.143 54.8934 100.158 54.885 100.173C54.6061 100.668 54.788 101.294 55.2858 101.567V101.567C55.7836 101.841 56.4109 101.656 56.6899 101.161V101.161C56.969 100.666 56.803 100.033 56.311 99.749V99.749Z" fill="#E72B39"></path><path d="M35.1847 87.9226C34.782 87.6901 34.2669 87.828 34.0369 88.2321V88.2321C33.807 88.6363 33.9516 89.1495 34.3572 89.3769L49.3541 97.7859C49.7029 97.9815 50.144 97.8572 50.3418 97.5096V97.5096C50.5395 97.1621 50.4211 96.7194 50.0748 96.5194L35.1847 87.9226Z" fill="#E72B39"></path><path d="M51.8973 108.167C51.3823 107.927 50.7697 108.149 50.5348 108.667C50.5277 108.682 50.5207 108.698 50.5137 108.713C50.279 109.231 50.5147 109.838 51.0345 110.068V110.068C51.5543 110.297 52.163 110.058 52.3978 109.54V109.54C52.6327 109.023 52.4122 108.407 51.8973 108.167V108.167Z" fill="#E72B39"></path><path d="M29.8207 98.2274C29.3993 98.0308 28.8981 98.2131 28.7042 98.6357V98.6357C28.5104 99.0583 28.6992 99.5571 29.1231 99.7483L44.7958 106.818C45.1603 106.983 45.5889 106.82 45.7556 106.457V106.457C45.9223 106.093 45.7658 105.663 45.4033 105.494L29.8207 98.2274Z" fill="#E72B39"></path><path d="M48.2345 116.936C47.7006 116.741 47.1097 117.016 46.9207 117.552C46.915 117.568 46.9094 117.584 46.9037 117.6C46.715 118.136 47.0029 118.721 47.5407 118.904V118.904C48.0784 119.088 48.664 118.796 48.8528 118.26V118.26C49.0417 117.724 48.7684 117.13 48.2345 116.936V116.936Z" fill="#E72B39"></path><path d="M25.3756 108.958C24.9387 108.799 24.4553 109.024 24.299 109.462V109.462C24.1427 109.9 24.3743 110.381 24.8133 110.534L41.0425 116.211C41.42 116.343 41.8328 116.144 41.9672 115.768V115.768C42.1016 115.391 41.9081 114.975 41.5323 114.839L25.3756 108.958Z" fill="#E72B39"></path><path d="M45.3493 125.992C44.8005 125.845 44.2359 126.17 44.0943 126.72C44.0901 126.737 44.0858 126.753 44.0816 126.77C43.9403 127.32 44.278 127.878 44.8298 128.013V128.013C45.3815 128.149 45.9393 127.808 46.0808 127.257V127.257C46.2222 126.707 45.8982 126.139 45.3493 125.992V125.992Z" fill="#E72B39"></path><path d="M21.8823 120.037C21.4332 119.917 20.9713 120.183 20.8537 120.633V120.633C20.7362 121.083 21.0088 121.541 21.4594 121.656L38.1217 125.897C38.5093 125.996 38.9031 125.761 39.0042 125.374V125.374C39.1053 124.988 38.8763 124.591 38.49 124.487L21.8823 120.037Z" fill="#E72B39"></path><path d="M43.2651 135.265C42.7055 135.167 42.1714 135.54 42.0784 136.101C42.0756 136.117 42.0728 136.134 42.07 136.151C41.9772 136.712 42.3622 137.237 42.9237 137.325V137.325C43.4851 137.412 44.0111 137.023 44.104 136.462V136.462C44.197 135.902 43.8246 135.364 43.2651 135.265V135.265Z" fill="#E72B39"></path><path d="M19.3682 131.378C18.9103 131.297 18.4734 131.603 18.3955 132.061V132.061C18.3176 132.519 18.6291 132.952 19.088 133.027L36.0566 135.8C36.4512 135.864 36.8232 135.597 36.8902 135.202V135.202C36.9571 134.808 36.6944 134.433 36.3006 134.363L19.3682 131.378Z" fill="#E72B39"></path><path d="M41.9968 144.685C41.4308 144.636 40.9313 145.054 40.8874 145.621C40.8861 145.638 40.8848 145.655 40.8835 145.672C40.8399 146.238 41.2693 146.728 41.8362 146.766V146.766C42.4031 146.804 42.8932 146.371 42.9369 145.804V145.804C42.9806 145.238 42.5628 144.735 41.9968 144.685V144.685Z" fill="#E72B39"></path><path d="M17.852 142.895C17.3888 142.854 16.9801 143.197 16.9425 143.66V143.66C16.9049 144.124 17.2529 144.528 17.7166 144.563L34.8622 145.846C35.261 145.876 35.6082 145.577 35.6406 145.178V145.178C35.6729 144.779 35.3785 144.428 34.9801 144.393L17.852 142.895Z" fill="#E72B39"></path><path d="M41.554 154.179C40.9858 154.179 40.5247 154.64 40.5304 155.208C40.5305 155.225 40.5307 155.242 40.5309 155.259C40.5369 155.827 41.0073 156.278 41.5754 156.266V156.266C42.1435 156.255 42.5939 155.78 42.5881 155.212V155.212C42.5823 154.644 42.1222 154.179 41.554 154.179V154.179Z" fill="#E72B39"></path><path d="M17.3453 154.501C16.8803 154.501 16.5031 154.878 16.506 155.343V155.343C16.5089 155.808 16.8908 156.18 17.3558 156.174L34.548 155.958C34.9478 155.953 35.2677 155.625 35.2652 155.225V155.225C35.2627 154.825 34.9387 154.501 34.5388 154.501L17.3453 154.501Z" fill="#E72B39"></path><circle opacity="0.9" cx="149.865" cy="142.619" r="53.9094" fill="#ECEAF8"></circle><path d="M151.024 115.237C154.656 115.237 158.139 116.68 160.707 119.248C163.275 121.816 164.717 125.299 164.717 128.931C164.717 132.562 163.275 136.045 160.707 138.613C158.139 141.181 154.656 142.624 151.024 142.624C147.392 142.624 143.909 141.181 141.341 138.613C138.773 136.045 137.331 132.562 137.331 128.931C137.331 125.299 138.773 121.816 141.341 119.248C143.909 116.68 147.392 115.237 151.024 115.237ZM151.024 149.471C166.155 149.471 178.411 155.599 178.411 163.164V170.011H123.637V163.164C123.637 155.599 135.893 149.471 151.024 149.471Z" fill="#E72B39"></path></g><defs><clipPath id="clip0_721_703"><rect width="300" height="220" rx="10" fill="white"></rect></clipPath></defs></svg>