<svg xmlns="http://www.w3.org/2000/svg" width="300" height="220" viewBox="0 0 300 220" fill="none"><rect width="300" height="220" rx="10" fill="#15181C"></rect><rect x="11.5" y="9.5" width="277" height="62" rx="5.14883" fill="#1E2127"></rect><rect x="11.5" y="9.5" width="277" height="62" rx="5.14883" stroke="#212835"></rect><circle cx="39.5001" cy="40.5001" r="18.5953" fill="#E72B39"></circle><path d="M34.4104 31L38.6219 36.7739V44.4567L34.3341 50.3833H29.5L36.8891 40.5918L29.6586 31H34.4104Z" fill="#FAFAFA"></path><path d="M50.0992 50.3833H45.2592L40.9714 44.4508V36.7856L45.1829 31H49.9758L42.7042 40.5918L50.0992 50.3833Z" fill="#FAFAFA"></path><rect x="79.0952" y="25.5" width="66" height="12" fill="#292E38"></rect><path d="M250.673 36.5V28.1953L248.909 29.2562V28.1823L250.673 27.128H251.643V36.5H250.673ZM253.712 36.4935L253.718 35.6214L257.955 31.7945C258.319 31.4647 258.56 31.1523 258.677 30.8573C258.799 30.5579 258.86 30.2455 258.86 29.92C258.86 29.5339 258.769 29.1846 258.586 28.8722C258.404 28.5598 258.159 28.3125 257.851 28.1302C257.543 27.9437 257.198 27.8504 256.816 27.8504C256.417 27.8504 256.061 27.9458 255.749 28.1368C255.436 28.3277 255.189 28.5793 255.007 28.8917C254.829 29.2041 254.742 29.5447 254.746 29.9135H253.77C253.77 29.3451 253.905 28.8353 254.174 28.3841C254.443 27.9328 254.807 27.5792 255.267 27.3232C255.727 27.0629 256.248 26.9327 256.829 26.9327C257.397 26.9327 257.907 27.0672 258.358 27.3362C258.814 27.6009 259.172 27.961 259.432 28.4166C259.697 28.8679 259.829 29.3712 259.829 29.9266C259.829 30.3171 259.782 30.662 259.686 30.9614C259.595 31.2564 259.45 31.532 259.25 31.7879C259.055 32.0396 258.805 32.2999 258.502 32.5689L254.74 35.9663L254.59 35.5758H259.829V36.4935H253.712ZM261.777 35.4587V34.3457H262.89V35.4587H261.777ZM261.783 31.6252V30.5123H262.896V31.6252H261.783ZM267.525 36.6887C267.061 36.6887 266.633 36.6063 266.243 36.4414C265.852 36.2765 265.516 36.0422 265.234 35.7385C264.952 35.4305 264.746 35.0638 264.616 34.6386L265.527 34.3653C265.683 34.8295 265.939 35.181 266.295 35.4196C266.655 35.6583 267.061 35.7732 267.512 35.7646C267.929 35.7559 268.286 35.6626 268.586 35.4847C268.89 35.3068 269.122 35.0595 269.282 34.7427C269.443 34.426 269.523 34.0594 269.523 33.6428C269.523 33.005 269.337 32.493 268.963 32.1069C268.595 31.7164 268.106 31.5211 267.499 31.5211C267.33 31.5211 267.152 31.545 266.965 31.5927C266.779 31.6361 266.605 31.699 266.445 31.7814L265.963 31.02L269.608 27.6551L269.764 28.0456H264.987V27.128H270.402V28.0587L267.226 31.0916L267.213 30.7141C267.863 30.6316 268.436 30.7054 268.931 30.9354C269.425 31.1653 269.812 31.5168 270.089 31.9897C270.371 32.4583 270.512 33.0093 270.512 33.6428C270.512 34.2416 270.382 34.7709 270.122 35.2309C269.866 35.6865 269.512 36.0444 269.061 36.3047C268.61 36.5607 268.098 36.6887 267.525 36.6887ZM275.121 36.6953C274.543 36.6953 274.023 36.5607 273.559 36.2917C273.099 36.0227 272.734 35.6583 272.465 35.1983C272.196 34.7341 272.062 34.2134 272.062 33.6363V29.9916C272.062 29.4146 272.196 28.8961 272.465 28.4361C272.734 27.9719 273.099 27.6052 273.559 27.3362C274.023 27.0672 274.543 26.9327 275.121 26.9327C275.698 26.9327 276.216 27.0672 276.676 27.3362C277.14 27.6052 277.507 27.9719 277.776 28.4361C278.045 28.8961 278.179 29.4146 278.179 29.9916V33.6363C278.179 34.2134 278.045 34.7341 277.776 35.1983C277.507 35.6583 277.14 36.0227 276.676 36.2917C276.216 36.5607 275.698 36.6953 275.121 36.6953ZM275.121 35.7711C275.507 35.7711 275.858 35.6778 276.175 35.4912C276.492 35.3003 276.743 35.0465 276.93 34.7297C277.116 34.413 277.21 34.0637 277.21 33.6819V29.9461C277.21 29.5599 277.116 29.2085 276.93 28.8917C276.743 28.575 276.492 28.3233 276.175 28.1368C275.858 27.9458 275.507 27.8504 275.121 27.8504C274.734 27.8504 274.383 27.9458 274.066 28.1368C273.749 28.3233 273.498 28.575 273.311 28.8917C273.125 29.2085 273.031 29.5599 273.031 29.9461V33.6819C273.031 34.0637 273.125 34.413 273.311 34.7297C273.498 35.0465 273.749 35.3003 274.066 35.4912C274.383 35.6778 274.734 35.7711 275.121 35.7711Z" fill="#8E8E93"></path><rect x="79.0952" y="46.5" width="183" height="12" fill="#292E38"></rect><rect x="11.5" y="78.5" width="277" height="62" rx="5.14883" fill="#1E2127"></rect><rect x="11.5" y="78.5" width="277" height="62" rx="5.14883" stroke="#212835"></rect><circle cx="39.5001" cy="109.5" r="18.5953" fill="#E72B39"></circle><path d="M34.4104 100L38.6219 105.774V113.457L34.3341 119.383H29.5L36.8891 109.592L29.6586 100H34.4104Z" fill="#FAFAFA"></path><path d="M50.0992 119.383H45.2592L40.9714 113.451V105.786L45.1829 100H49.9758L42.7042 109.592L50.0992 119.383Z" fill="#FAFAFA"></path><rect x="79.0952" y="94.5" width="66" height="12" fill="#292E38"></rect><path d="M250.673 105.5V97.1953L248.909 98.2562V97.1823L250.673 96.128H251.643V105.5H250.673ZM253.712 105.493L253.718 104.621L257.955 100.794C258.319 100.465 258.56 100.152 258.677 99.8573C258.799 99.5579 258.86 99.2455 258.86 98.92C258.86 98.5339 258.769 98.1846 258.586 97.8722C258.404 97.5598 258.159 97.3125 257.851 97.1302C257.543 96.9437 257.198 96.8504 256.816 96.8504C256.417 96.8504 256.061 96.9458 255.749 97.1368C255.436 97.3277 255.189 97.5793 255.007 97.8917C254.829 98.2041 254.742 98.5447 254.746 98.9135H253.77C253.77 98.3451 253.905 97.8353 254.174 97.3841C254.443 96.9328 254.807 96.5792 255.267 96.3232C255.727 96.0629 256.248 95.9327 256.829 95.9327C257.397 95.9327 257.907 96.0672 258.358 96.3362C258.814 96.6009 259.172 96.961 259.432 97.4166C259.697 97.8679 259.829 98.3712 259.829 98.9266C259.829 99.3171 259.782 99.662 259.686 99.9614C259.595 100.256 259.45 100.532 259.25 100.788C259.055 101.04 258.805 101.3 258.502 101.569L254.74 104.966L254.59 104.576H259.829V105.493H253.712ZM261.777 104.459V103.346H262.89V104.459H261.777ZM261.783 100.625V99.5123H262.896V100.625H261.783ZM267.525 105.689C267.061 105.689 266.633 105.606 266.243 105.441C265.852 105.277 265.516 105.042 265.234 104.739C264.952 104.43 264.746 104.064 264.616 103.639L265.527 103.365C265.683 103.83 265.939 104.181 266.295 104.42C266.655 104.658 267.061 104.773 267.512 104.765C267.929 104.756 268.286 104.663 268.586 104.485C268.89 104.307 269.122 104.059 269.282 103.743C269.443 103.426 269.523 103.059 269.523 102.643C269.523 102.005 269.337 101.493 268.963 101.107C268.595 100.716 268.106 100.521 267.499 100.521C267.33 100.521 267.152 100.545 266.965 100.593C266.779 100.636 266.605 100.699 266.445 100.781L265.963 100.02L269.608 96.6551L269.764 97.0456H264.987V96.128H270.402V97.0587L267.226 100.092L267.213 99.7141C267.863 99.6316 268.436 99.7054 268.931 99.9354C269.425 100.165 269.812 100.517 270.089 100.99C270.371 101.458 270.512 102.009 270.512 102.643C270.512 103.242 270.382 103.771 270.122 104.231C269.866 104.686 269.512 105.044 269.061 105.305C268.61 105.561 268.098 105.689 267.525 105.689ZM275.121 105.695C274.543 105.695 274.023 105.561 273.559 105.292C273.099 105.023 272.734 104.658 272.465 104.198C272.196 103.734 272.062 103.213 272.062 102.636V98.9916C272.062 98.4146 272.196 97.8961 272.465 97.4361C272.734 96.9719 273.099 96.6052 273.559 96.3362C274.023 96.0672 274.543 95.9327 275.121 95.9327C275.698 95.9327 276.216 96.0672 276.676 96.3362C277.14 96.6052 277.507 96.9719 277.776 97.4361C278.045 97.8961 278.179 98.4146 278.179 98.9916V102.636C278.179 103.213 278.045 103.734 277.776 104.198C277.507 104.658 277.14 105.023 276.676 105.292C276.216 105.561 275.698 105.695 275.121 105.695ZM275.121 104.771C275.507 104.771 275.858 104.678 276.175 104.491C276.492 104.3 276.743 104.046 276.93 103.73C277.116 103.413 277.21 103.064 277.21 102.682V98.9461C277.21 98.5599 277.116 98.2085 276.93 97.8917C276.743 97.575 276.492 97.3233 276.175 97.1368C275.858 96.9458 275.507 96.8504 275.121 96.8504C274.734 96.8504 274.383 96.9458 274.066 97.1368C273.749 97.3233 273.498 97.575 273.311 97.8917C273.125 98.2085 273.031 98.5599 273.031 98.9461V102.682C273.031 103.064 273.125 103.413 273.311 103.73C273.498 104.046 273.749 104.3 274.066 104.491C274.383 104.678 274.734 104.771 275.121 104.771Z" fill="#8E8E93"></path><rect x="79.0952" y="115.5" width="183" height="12" fill="#292E38"></rect><rect x="11.5" y="147.5" width="277" height="62" rx="5.14883" fill="#1E2127"></rect><rect x="11.5" y="147.5" width="277" height="62" rx="5.14883" stroke="#212835"></rect><circle cx="39.5001" cy="178.5" r="18.5953" fill="#E72B39"></circle><path d="M34.4104 169L38.6219 174.774V182.457L34.3341 188.383H29.5L36.8891 178.592L29.6586 169H34.4104Z" fill="#FAFAFA"></path><path d="M50.0992 188.383H45.2592L40.9714 182.451V174.786L45.1829 169H49.9758L42.7042 178.592L50.0992 188.383Z" fill="#FAFAFA"></path><rect x="79.0952" y="163.5" width="66" height="12" fill="#292E38"></rect><path d="M250.673 174.5V166.195L248.909 167.256V166.182L250.673 165.128H251.643V174.5H250.673ZM253.712 174.493L253.718 173.621L257.955 169.794C258.319 169.465 258.56 169.152 258.677 168.857C258.799 168.558 258.86 168.245 258.86 167.92C258.86 167.534 258.769 167.185 258.586 166.872C258.404 166.56 258.159 166.312 257.851 166.13C257.543 165.944 257.198 165.85 256.816 165.85C256.417 165.85 256.061 165.946 255.749 166.137C255.436 166.328 255.189 166.579 255.007 166.892C254.829 167.204 254.742 167.545 254.746 167.914H253.77C253.77 167.345 253.905 166.835 254.174 166.384C254.443 165.933 254.807 165.579 255.267 165.323C255.727 165.063 256.248 164.933 256.829 164.933C257.397 164.933 257.907 165.067 258.358 165.336C258.814 165.601 259.172 165.961 259.432 166.417C259.697 166.868 259.829 167.371 259.829 167.927C259.829 168.317 259.782 168.662 259.686 168.961C259.595 169.256 259.45 169.532 259.25 169.788C259.055 170.04 258.805 170.3 258.502 170.569L254.74 173.966L254.59 173.576H259.829V174.493H253.712ZM261.777 173.459V172.346H262.89V173.459H261.777ZM261.783 169.625V168.512H262.896V169.625H261.783ZM267.525 174.689C267.061 174.689 266.633 174.606 266.243 174.441C265.852 174.277 265.516 174.042 265.234 173.739C264.952 173.43 264.746 173.064 264.616 172.639L265.527 172.365C265.683 172.83 265.939 173.181 266.295 173.42C266.655 173.658 267.061 173.773 267.512 173.765C267.929 173.756 268.286 173.663 268.586 173.485C268.89 173.307 269.122 173.059 269.282 172.743C269.443 172.426 269.523 172.059 269.523 171.643C269.523 171.005 269.337 170.493 268.963 170.107C268.595 169.716 268.106 169.521 267.499 169.521C267.33 169.521 267.152 169.545 266.965 169.593C266.779 169.636 266.605 169.699 266.445 169.781L265.963 169.02L269.608 165.655L269.764 166.046H264.987V165.128H270.402V166.059L267.226 169.092L267.213 168.714C267.863 168.632 268.436 168.705 268.931 168.935C269.425 169.165 269.812 169.517 270.089 169.99C270.371 170.458 270.512 171.009 270.512 171.643C270.512 172.242 270.382 172.771 270.122 173.231C269.866 173.686 269.512 174.044 269.061 174.305C268.61 174.561 268.098 174.689 267.525 174.689ZM275.121 174.695C274.543 174.695 274.023 174.561 273.559 174.292C273.099 174.023 272.734 173.658 272.465 173.198C272.196 172.734 272.062 172.213 272.062 171.636V167.992C272.062 167.415 272.196 166.896 272.465 166.436C272.734 165.972 273.099 165.605 273.559 165.336C274.023 165.067 274.543 164.933 275.121 164.933C275.698 164.933 276.216 165.067 276.676 165.336C277.14 165.605 277.507 165.972 277.776 166.436C278.045 166.896 278.179 167.415 278.179 167.992V171.636C278.179 172.213 278.045 172.734 277.776 173.198C277.507 173.658 277.14 174.023 276.676 174.292C276.216 174.561 275.698 174.695 275.121 174.695ZM275.121 173.771C275.507 173.771 275.858 173.678 276.175 173.491C276.492 173.3 276.743 173.046 276.93 172.73C277.116 172.413 277.21 172.064 277.21 171.682V167.946C277.21 167.56 277.116 167.208 276.93 166.892C276.743 166.575 276.492 166.323 276.175 166.137C275.858 165.946 275.507 165.85 275.121 165.85C274.734 165.85 274.383 165.946 274.066 166.137C273.749 166.323 273.498 166.575 273.311 166.892C273.125 167.208 273.031 167.56 273.031 167.946V171.682C273.031 172.064 273.125 172.413 273.311 172.73C273.498 173.046 273.749 173.3 274.066 173.491C274.383 173.678 274.734 173.771 275.121 173.771Z" fill="#8E8E93"></path><rect x="79.0952" y="184.5" width="183" height="12" fill="#292E38"></rect></svg>