<svg xmlns="http://www.w3.org/2000/svg" width="300" height="220" viewBox="0 0 300 220" fill="none"><rect width="300" height="220" rx="10" fill="#15181C"></rect><line opacity="0.2" x1="46.5" y1="168.324" x2="280.5" y2="168.324" stroke="#B4B6C4" stroke-linecap="round"></line><line opacity="0.2" x1="46.5" y1="141.853" x2="280.5" y2="141.853" stroke="#B4B6C4" stroke-linecap="round"></line><line opacity="0.2" x1="46.5" y1="115.382" x2="280.5" y2="115.382" stroke="#B4B6C4" stroke-linecap="round"></line><line opacity="0.2" x1="46.5" y1="88.9116" x2="280.5" y2="88.9116" stroke="#B4B6C4" stroke-linecap="round"></line><line opacity="0.2" x1="46.5" y1="62.4414" x2="280.5" y2="62.4414" stroke="#B4B6C4" stroke-linecap="round"></line><path d="M19.05 92.6293C18.61 92.6293 18.2167 92.5326 17.87 92.3393C17.5233 92.1393 17.25 91.866 17.05 91.5193C16.8567 91.1726 16.76 90.7726 16.76 90.3193V87.8793C16.76 87.4193 16.86 87.016 17.06 86.6693C17.26 86.3226 17.5333 86.0526 17.88 85.8593C18.2267 85.666 18.62 85.5693 19.06 85.5693H19.18C19.6 85.5693 19.9767 85.6593 20.31 85.8393C20.6433 86.0126 20.9067 86.266 21.1 86.5993C21.2933 86.9326 21.39 87.336 21.39 87.8093H20.45C20.45 87.3493 20.3233 86.9993 20.07 86.7593C19.8233 86.5126 19.51 86.3893 19.13 86.3893C18.87 86.3893 18.6367 86.4493 18.43 86.5693C18.2233 86.6826 18.06 86.8426 17.94 87.0493C17.8267 87.256 17.77 87.4893 17.77 87.7493V88.9693C17.9633 88.7226 18.2033 88.536 18.49 88.4093C18.7767 88.276 19.0667 88.2093 19.36 88.2093C19.7667 88.2093 20.1333 88.2993 20.46 88.4793C20.7867 88.6526 21.0467 88.8993 21.24 89.2193C21.4333 89.5393 21.53 89.9193 21.53 90.3593C21.53 90.8126 21.4233 91.2093 21.21 91.5493C21.0033 91.8893 20.72 92.156 20.36 92.3493C20 92.536 19.6 92.6293 19.16 92.6293H19.05ZM19.15 91.8393C19.4367 91.8393 19.68 91.7793 19.88 91.6593C20.08 91.5326 20.2367 91.3593 20.35 91.1393C20.4633 90.9193 20.52 90.666 20.52 90.3793C20.52 90.0793 20.46 89.8226 20.34 89.6093C20.2267 89.3893 20.0667 89.2193 19.86 89.0993C19.66 88.9793 19.4233 88.9193 19.15 88.9193C18.8767 88.9193 18.6367 88.9826 18.43 89.1093C18.2233 89.2293 18.06 89.3993 17.94 89.6193C17.8267 89.8326 17.77 90.0826 17.77 90.3693C17.77 90.6693 17.8267 90.9293 17.94 91.1493C18.06 91.3693 18.2233 91.5393 18.43 91.6593C18.6433 91.7793 18.8833 91.8393 19.15 91.8393ZM22.9423 92.5293V85.3293H23.9423V90.2193L26.3023 87.4193H27.4823L25.4423 89.7793L27.6023 92.5293H26.3923L24.7623 90.4693L23.9423 91.2993V92.5293H22.9423Z" fill="#FFE3E5"></path><path d="M18.92 119.1C18.44 119.1 18.0233 119.017 17.67 118.85C17.3233 118.683 17.0567 118.453 16.87 118.16C16.6833 117.867 16.59 117.533 16.59 117.16V116.98H17.54C17.54 117.44 17.6733 117.773 17.94 117.98C18.2067 118.187 18.5667 118.29 19.02 118.29C19.4533 118.29 19.81 118.187 20.09 117.98C20.37 117.773 20.51 117.467 20.51 117.06C20.51 116.78 20.4467 116.553 20.32 116.38C20.1933 116.2 20.02 116.07 19.8 115.99C19.5867 115.903 19.3533 115.86 19.1 115.86H18.24V115.13H19.01C19.25 115.13 19.4733 115.087 19.68 115C19.8867 114.913 20.05 114.783 20.17 114.61C20.2967 114.437 20.36 114.223 20.36 113.97C20.36 113.717 20.3 113.51 20.18 113.35C20.06 113.183 19.8967 113.06 19.69 112.98C19.49 112.9 19.2633 112.86 19.01 112.86C18.5967 112.86 18.27 112.963 18.03 113.17C17.79 113.377 17.67 113.677 17.67 114.07H16.76V113.9C16.76 113.52 16.86 113.193 17.06 112.92C17.2667 112.64 17.54 112.423 17.88 112.27C18.22 112.117 18.6033 112.04 19.03 112.04H19.17C19.5833 112.04 19.9567 112.113 20.29 112.26C20.6233 112.407 20.8867 112.62 21.08 112.9C21.2733 113.173 21.37 113.5 21.37 113.88C21.37 114.147 21.32 114.38 21.22 114.58C21.1267 114.773 21 114.94 20.84 115.08C20.68 115.213 20.5 115.327 20.3 115.42V115.47C20.6533 115.583 20.9467 115.777 21.18 116.05C21.4133 116.317 21.53 116.677 21.53 117.13C21.53 117.517 21.4233 117.857 21.21 118.15C20.9967 118.443 20.7033 118.677 20.33 118.85C19.9633 119.017 19.5467 119.1 19.08 119.1H18.92ZM22.9423 119V111.8H23.9423V116.69L26.3023 113.89H27.4823L25.4423 116.25L27.6023 119H26.3923L24.7623 116.94L23.9423 117.77V119H22.9423Z" fill="#FFE3E5"></path><path d="M16.89 145.47V144.64H18.7V139.77H16.89V139.16C17.11 139.14 17.3533 139.104 17.62 139.05C17.8867 138.99 18.1667 138.917 18.46 138.83C18.76 138.737 19.0533 138.63 19.34 138.51H19.71V144.64H21.5V145.47H16.89ZM22.9423 145.47V138.27H23.9423V143.16L26.3023 140.36H27.4823L25.4423 142.72L27.6023 145.47H26.3923L24.7623 143.41L23.9423 144.24V145.47H22.9423Z" fill="#FFE3E5"></path><path d="M18.98 172.041C18.5533 172.041 18.1667 171.944 17.82 171.751C17.4733 171.551 17.1967 171.278 16.99 170.931C16.79 170.584 16.69 170.184 16.69 169.731V167.291C16.69 166.838 16.79 166.438 16.99 166.091C17.1967 165.744 17.4733 165.474 17.82 165.281C18.1667 165.081 18.5533 164.981 18.98 164.981H19.17C19.6033 164.981 19.99 165.081 20.33 165.281C20.6767 165.474 20.95 165.744 21.15 166.091C21.35 166.438 21.45 166.838 21.45 167.291V169.731C21.45 170.184 21.35 170.584 21.15 170.931C20.95 171.278 20.6767 171.551 20.33 171.751C19.99 171.944 19.6033 172.041 19.17 172.041H18.98ZM19.07 171.241C19.33 171.241 19.5633 171.181 19.77 171.061C19.9767 170.934 20.1367 170.768 20.25 170.561C20.37 170.354 20.43 170.121 20.43 169.861V167.161C20.43 166.894 20.37 166.658 20.25 166.451C20.1367 166.244 19.9767 166.081 19.77 165.961C19.5633 165.841 19.33 165.781 19.07 165.781C18.81 165.781 18.5767 165.841 18.37 165.961C18.17 166.081 18.01 166.244 17.89 166.451C17.77 166.658 17.71 166.894 17.71 167.161V169.861C17.71 170.121 17.77 170.354 17.89 170.561C18.01 170.768 18.17 170.934 18.37 171.061C18.5767 171.181 18.81 171.241 19.07 171.241Z" fill="#FFE3E5"></path><path d="M19.12 66.1586C18.66 66.1586 18.2567 66.0686 17.91 65.8886C17.57 65.7019 17.3033 65.4419 17.11 65.1086C16.9233 64.7686 16.83 64.3719 16.83 63.9186H17.77C17.77 64.3519 17.8933 64.6986 18.14 64.9586C18.3933 65.2119 18.7133 65.3386 19.1 65.3386C19.3667 65.3386 19.6 65.2819 19.8 65.1686C20.0067 65.0486 20.17 64.8853 20.29 64.6786C20.41 64.4719 20.47 64.2386 20.47 63.9786V62.7486C20.2833 62.9886 20.0467 63.1786 19.76 63.3186C19.4733 63.4519 19.1833 63.5186 18.89 63.5186C18.4833 63.5186 18.1167 63.4319 17.79 63.2586C17.4633 63.0786 17.2033 62.8286 17.01 62.5086C16.8167 62.1819 16.72 61.8019 16.72 61.3686C16.72 60.9086 16.8233 60.5086 17.03 60.1686C17.2433 59.8286 17.53 59.5653 17.89 59.3786C18.2567 59.1919 18.6667 59.0986 19.12 59.0986C19.58 59.0986 19.9867 59.1953 20.34 59.3886C20.7 59.5819 20.98 59.8519 21.18 60.1986C21.3867 60.5386 21.49 60.9419 21.49 61.4086V63.8486C21.49 64.3086 21.3867 64.7153 21.18 65.0686C20.9733 65.4153 20.6933 65.6853 20.34 65.8786C19.9867 66.0653 19.58 66.1586 19.12 66.1586ZM19.1 62.8086C19.38 62.8086 19.62 62.7453 19.82 62.6186C20.0267 62.4919 20.1867 62.3186 20.3 62.0986C20.4133 61.8786 20.47 61.6286 20.47 61.3486C20.47 61.0486 20.4133 60.7919 20.3 60.5786C20.1867 60.3586 20.0267 60.1886 19.82 60.0686C19.6133 59.9486 19.3733 59.8886 19.1 59.8886C18.82 59.8886 18.5767 59.9519 18.37 60.0786C18.1633 60.1986 18.0033 60.3686 17.89 60.5886C17.7833 60.8086 17.73 61.0619 17.73 61.3486C17.73 61.6419 17.7867 61.8986 17.9 62.1186C18.0133 62.3319 18.1733 62.5019 18.38 62.6286C18.5867 62.7486 18.8267 62.8086 19.1 62.8086ZM22.9423 66.0586V58.8586H23.9423V63.7486L26.3023 60.9486H27.4823L25.4423 63.3086L27.6023 66.0586H26.3923L24.7623 63.9986L23.9423 64.8286V66.0586H22.9423Z" fill="#FFE3E5"></path><path d="M46.91 191.549V184.689H48.62L50.74 190.019H50.76L52.89 184.689H54.61V191.549H53.55V185.909H53.5L51.27 191.549H50.13L47.91 185.909H47.86V191.549H46.91ZM57.5727 191.649C57.2993 191.649 57.036 191.605 56.7827 191.519C56.536 191.432 56.3327 191.285 56.1727 191.079C56.0193 190.865 55.9427 190.579 55.9427 190.219C55.9427 189.852 56.0227 189.559 56.1827 189.339C56.3493 189.112 56.5827 188.939 56.8827 188.819C57.1893 188.699 57.5527 188.619 57.9727 188.579C58.3993 188.539 58.866 188.519 59.3727 188.519V187.999C59.3727 187.639 59.2827 187.389 59.1027 187.249C58.9293 187.102 58.6527 187.029 58.2727 187.029C57.9527 187.029 57.676 187.099 57.4427 187.239C57.2093 187.372 57.0927 187.585 57.0927 187.879V187.999H56.1227C56.116 187.965 56.1127 187.932 56.1127 187.899C56.1127 187.859 56.1127 187.819 56.1127 187.779C56.1127 187.485 56.2027 187.232 56.3827 187.019C56.5693 186.799 56.8193 186.632 57.1327 186.519C57.4527 186.399 57.816 186.339 58.2227 186.339H58.3627C59.036 186.339 59.536 186.472 59.8627 186.739C60.196 187.005 60.3627 187.389 60.3627 187.889V190.599C60.3627 190.719 60.3893 190.805 60.4427 190.859C60.496 190.912 60.5593 190.939 60.6327 190.939C60.706 190.939 60.7827 190.925 60.8627 190.899C60.9493 190.872 61.026 190.839 61.0927 190.799V191.439C61.006 191.505 60.8993 191.555 60.7727 191.589C60.646 191.629 60.496 191.649 60.3227 191.649C60.1093 191.649 59.936 191.609 59.8027 191.529C59.676 191.442 59.5827 191.329 59.5227 191.189C59.4627 191.049 59.426 190.892 59.4127 190.719C59.2193 191.019 58.966 191.249 58.6527 191.409C58.346 191.569 57.986 191.649 57.5727 191.649ZM57.9727 190.939C58.206 190.939 58.4293 190.889 58.6427 190.789C58.856 190.682 59.0293 190.522 59.1627 190.309C59.3027 190.095 59.3727 189.829 59.3727 189.509V189.129C58.8727 189.129 58.4427 189.155 58.0827 189.209C57.7227 189.255 57.446 189.349 57.2527 189.489C57.066 189.629 56.9727 189.845 56.9727 190.139C56.9727 190.419 57.056 190.622 57.2227 190.749C57.3893 190.875 57.6393 190.939 57.9727 190.939ZM62.2392 191.549V186.439H62.9792L63.1192 187.189C63.1259 187.175 63.1559 187.125 63.2092 187.039C63.2626 186.952 63.3426 186.855 63.4492 186.749C63.5626 186.635 63.7059 186.539 63.8792 186.459C64.0592 186.379 64.2792 186.339 64.5392 186.339C64.8926 186.339 65.1826 186.412 65.4092 186.559C65.6426 186.699 65.8126 186.892 65.9192 187.139C66.0326 187.385 66.0892 187.665 66.0892 187.979C66.0892 188.045 66.0859 188.115 66.0792 188.189C66.0726 188.255 66.0692 188.309 66.0692 188.349H65.2092V188.159C65.2092 188.012 65.1792 187.859 65.1192 187.699C65.0659 187.532 64.9692 187.395 64.8292 187.289C64.6892 187.175 64.4926 187.119 64.2392 187.119C64.0526 187.119 63.8926 187.159 63.7592 187.239C63.6326 187.319 63.5292 187.419 63.4492 187.539C63.3759 187.659 63.3226 187.785 63.2892 187.919C63.2559 188.052 63.2392 188.175 63.2392 188.289V191.549H62.2392Z" fill="#FFE3E5"></path><path d="M101.1 191.549L103.76 184.689H104.96L107.61 191.549H106.49L105.89 190.009H102.75L102.14 191.549H101.1ZM103.04 189.199H105.59L104.34 185.889H104.3L103.04 189.199ZM110.949 191.649C110.182 191.649 109.606 191.342 109.219 190.729L108.869 191.549H108.499V184.349H109.499V187.089C109.639 186.882 109.839 186.705 110.099 186.559C110.366 186.412 110.676 186.339 111.029 186.339C111.396 186.339 111.729 186.425 112.029 186.599C112.336 186.772 112.579 187.039 112.759 187.399C112.939 187.759 113.029 188.215 113.029 188.769V188.969C113.029 189.589 112.932 190.099 112.739 190.499C112.552 190.892 112.302 191.182 111.989 191.369C111.676 191.555 111.329 191.649 110.949 191.649ZM110.759 190.939C110.992 190.939 111.199 190.882 111.379 190.769C111.566 190.655 111.712 190.472 111.819 190.219C111.932 189.965 111.989 189.632 111.989 189.219V188.659C111.989 188.299 111.936 188.002 111.829 187.769C111.722 187.529 111.579 187.352 111.399 187.239C111.219 187.119 111.012 187.059 110.779 187.059C110.552 187.059 110.339 187.119 110.139 187.239C109.946 187.352 109.789 187.529 109.669 187.769C109.549 188.002 109.489 188.302 109.489 188.669V189.229C109.489 189.649 109.546 189.985 109.659 190.239C109.779 190.485 109.932 190.665 110.119 190.779C110.312 190.885 110.526 190.939 110.759 190.939ZM114.388 191.549V186.439H115.128L115.268 187.189C115.274 187.175 115.304 187.125 115.358 187.039C115.411 186.952 115.491 186.855 115.598 186.749C115.711 186.635 115.854 186.539 116.028 186.459C116.208 186.379 116.428 186.339 116.688 186.339C117.041 186.339 117.331 186.412 117.558 186.559C117.791 186.699 117.961 186.892 118.068 187.139C118.181 187.385 118.238 187.665 118.238 187.979C118.238 188.045 118.234 188.115 118.228 188.189C118.221 188.255 118.218 188.309 118.218 188.349H117.358V188.159C117.358 188.012 117.328 187.859 117.268 187.699C117.214 187.532 117.118 187.395 116.978 187.289C116.838 187.175 116.641 187.119 116.388 187.119C116.201 187.119 116.041 187.159 115.908 187.239C115.781 187.319 115.678 187.419 115.598 187.539C115.524 187.659 115.471 187.785 115.438 187.919C115.404 188.052 115.388 188.175 115.388 188.289V191.549H114.388Z" fill="#FFE3E5"></path><path d="M153.91 191.549V184.689H155.62L157.74 190.019H157.76L159.89 184.689H161.61V191.549H160.55V185.909H160.5L158.27 191.549H157.13L154.91 185.909H154.86V191.549H153.91ZM164.573 191.649C164.299 191.649 164.036 191.605 163.783 191.519C163.536 191.432 163.333 191.285 163.173 191.079C163.019 190.865 162.943 190.579 162.943 190.219C162.943 189.852 163.023 189.559 163.183 189.339C163.349 189.112 163.583 188.939 163.883 188.819C164.189 188.699 164.553 188.619 164.973 188.579C165.399 188.539 165.866 188.519 166.373 188.519V187.999C166.373 187.639 166.283 187.389 166.103 187.249C165.929 187.102 165.653 187.029 165.273 187.029C164.953 187.029 164.676 187.099 164.443 187.239C164.209 187.372 164.093 187.585 164.093 187.879V187.999H163.123C163.116 187.965 163.113 187.932 163.113 187.899C163.113 187.859 163.113 187.819 163.113 187.779C163.113 187.485 163.203 187.232 163.383 187.019C163.569 186.799 163.819 186.632 164.133 186.519C164.453 186.399 164.816 186.339 165.223 186.339H165.363C166.036 186.339 166.536 186.472 166.863 186.739C167.196 187.005 167.363 187.389 167.363 187.889V190.599C167.363 190.719 167.389 190.805 167.443 190.859C167.496 190.912 167.559 190.939 167.633 190.939C167.706 190.939 167.783 190.925 167.863 190.899C167.949 190.872 168.026 190.839 168.093 190.799V191.439C168.006 191.505 167.899 191.555 167.773 191.589C167.646 191.629 167.496 191.649 167.323 191.649C167.109 191.649 166.936 191.609 166.803 191.529C166.676 191.442 166.583 191.329 166.523 191.189C166.463 191.049 166.426 190.892 166.413 190.719C166.219 191.019 165.966 191.249 165.653 191.409C165.346 191.569 164.986 191.649 164.573 191.649ZM164.973 190.939C165.206 190.939 165.429 190.889 165.643 190.789C165.856 190.682 166.029 190.522 166.163 190.309C166.303 190.095 166.373 189.829 166.373 189.509V189.129C165.873 189.129 165.443 189.155 165.083 189.209C164.723 189.255 164.446 189.349 164.253 189.489C164.066 189.629 163.973 189.845 163.973 190.139C163.973 190.419 164.056 190.622 164.223 190.749C164.389 190.875 164.639 190.939 164.973 190.939ZM169.319 191.549V186.439H170.319V191.549H169.319ZM169.289 185.189V184.349H170.349V185.189H169.289Z" fill="#FFE3E5"></path><path d="M210.3 191.649C209.92 191.649 209.58 191.579 209.28 191.439C208.987 191.299 208.753 191.092 208.58 190.819C208.413 190.545 208.33 190.212 208.33 189.819V189.469H209.31V189.759C209.31 190.125 209.407 190.392 209.6 190.559C209.8 190.725 210.05 190.809 210.35 190.809C210.55 190.809 210.73 190.772 210.89 190.699C211.05 190.625 211.177 190.509 211.27 190.349C211.363 190.189 211.41 189.979 211.41 189.719V184.689H212.48V189.699C212.48 190.112 212.387 190.465 212.2 190.759C212.02 191.052 211.777 191.275 211.47 191.429C211.163 191.575 210.817 191.649 210.43 191.649H210.3ZM215.743 191.649C215.217 191.649 214.797 191.505 214.483 191.219C214.17 190.925 214.013 190.475 214.013 189.869V186.439H215.013V189.629C215.013 190.075 215.103 190.395 215.283 190.589C215.463 190.775 215.727 190.869 216.073 190.869C216.307 190.869 216.52 190.815 216.713 190.709C216.913 190.595 217.073 190.442 217.193 190.249C217.313 190.055 217.373 189.839 217.373 189.599V186.439H218.373V190.599C218.373 190.719 218.4 190.805 218.453 190.859C218.513 190.912 218.58 190.939 218.653 190.939C218.727 190.939 218.803 190.925 218.883 190.899C218.963 190.872 219.037 190.839 219.103 190.799V191.439C219.017 191.505 218.91 191.555 218.783 191.589C218.657 191.629 218.51 191.649 218.343 191.649C218.13 191.649 217.96 191.609 217.833 191.529C217.707 191.449 217.613 191.345 217.553 191.219C217.493 191.085 217.45 190.945 217.423 190.799C217.257 191.065 217.02 191.275 216.713 191.429C216.407 191.575 216.083 191.649 215.743 191.649ZM220.274 191.549V186.439H220.994L221.134 187.189C221.321 186.909 221.561 186.699 221.854 186.559C222.154 186.412 222.478 186.339 222.824 186.339C223.178 186.339 223.488 186.405 223.754 186.539C224.028 186.672 224.241 186.872 224.394 187.139C224.548 187.399 224.624 187.725 224.624 188.119V191.549H223.624V188.289C223.624 187.869 223.528 187.569 223.334 187.389C223.141 187.202 222.868 187.109 222.514 187.109C222.288 187.109 222.078 187.165 221.884 187.279C221.698 187.392 221.548 187.545 221.434 187.739C221.328 187.925 221.274 188.142 221.274 188.389V191.549H220.274Z" fill="#FFE3E5"></path><path d="M262.3 191.649C261.92 191.649 261.58 191.579 261.28 191.439C260.987 191.299 260.753 191.092 260.58 190.819C260.413 190.545 260.33 190.212 260.33 189.819V189.469H261.31V189.759C261.31 190.125 261.407 190.392 261.6 190.559C261.8 190.725 262.05 190.809 262.35 190.809C262.55 190.809 262.73 190.772 262.89 190.699C263.05 190.625 263.177 190.509 263.27 190.349C263.363 190.189 263.41 189.979 263.41 189.719V184.689H264.48V189.699C264.48 190.112 264.387 190.465 264.2 190.759C264.02 191.052 263.777 191.275 263.47 191.429C263.163 191.575 262.817 191.649 262.43 191.649H262.3ZM267.743 191.649C267.217 191.649 266.797 191.505 266.483 191.219C266.17 190.925 266.013 190.475 266.013 189.869V186.439H267.013V189.629C267.013 190.075 267.103 190.395 267.283 190.589C267.463 190.775 267.727 190.869 268.073 190.869C268.307 190.869 268.52 190.815 268.713 190.709C268.913 190.595 269.073 190.442 269.193 190.249C269.313 190.055 269.373 189.839 269.373 189.599V186.439H270.373V190.599C270.373 190.719 270.4 190.805 270.453 190.859C270.513 190.912 270.58 190.939 270.653 190.939C270.727 190.939 270.803 190.925 270.883 190.899C270.963 190.872 271.037 190.839 271.103 190.799V191.439C271.017 191.505 270.91 191.555 270.783 191.589C270.657 191.629 270.51 191.649 270.343 191.649C270.13 191.649 269.96 191.609 269.833 191.529C269.707 191.449 269.613 191.345 269.553 191.219C269.493 191.085 269.45 190.945 269.423 190.799C269.257 191.065 269.02 191.275 268.713 191.429C268.407 191.575 268.083 191.649 267.743 191.649ZM272.274 191.549V184.349H273.274V191.549H272.274Z" fill="#FFE3E5"></path><path d="M20.522 39.826C19.962 39.826 19.444 39.728 18.968 39.532C18.492 39.336 18.0767 39.0514 17.722 38.678C17.3767 38.3047 17.106 37.8474 16.91 37.306C16.7233 36.7647 16.63 36.1534 16.63 35.472V34.296C16.63 33.6054 16.7327 32.994 16.938 32.462C17.1433 31.9207 17.4327 31.4634 17.806 31.09C18.1887 30.7167 18.6367 30.432 19.15 30.236C19.6727 30.04 20.2373 29.942 20.844 29.942H21.152C21.6747 29.942 22.1647 30.0214 22.622 30.18C23.0793 30.3387 23.4807 30.572 23.826 30.88C24.1713 31.1787 24.442 31.5474 24.638 31.986C24.834 32.4247 24.932 32.9287 24.932 33.498H22.762C22.762 33.0687 22.6827 32.7234 22.524 32.462C22.3747 32.2007 22.16 32.0094 21.88 31.888C21.6093 31.7667 21.292 31.706 20.928 31.706C20.6573 31.706 20.41 31.748 20.186 31.832C19.9713 31.9067 19.78 32.0327 19.612 32.21C19.4533 32.378 19.3273 32.5974 19.234 32.868C19.15 33.1294 19.108 33.442 19.108 33.806V35.962C19.108 36.326 19.15 36.6387 19.234 36.9C19.3273 37.1614 19.4533 37.3807 19.612 37.558C19.78 37.726 19.9713 37.852 20.186 37.936C20.41 38.02 20.6573 38.062 20.928 38.062C21.1987 38.062 21.446 38.034 21.67 37.978C21.9033 37.9127 22.0993 37.8147 22.258 37.684C22.426 37.544 22.552 37.3667 22.636 37.152C22.7293 36.928 22.776 36.6527 22.776 36.326V35.99H20.704V34.436H24.932V37.768C24.932 38.216 24.9413 38.5847 24.96 38.874C24.9787 39.154 25.002 39.4247 25.03 39.686H23.756L23.406 38.58C23.1167 38.9627 22.7153 39.266 22.202 39.49C21.698 39.714 21.1753 39.826 20.634 39.826H20.522ZM29.823 39.826C29.123 39.826 28.5024 39.6907 27.961 39.42C27.429 39.14 27.009 38.7387 26.701 38.216C26.4024 37.684 26.253 37.0447 26.253 36.298V35.92C26.253 35.164 26.407 34.5247 26.715 34.002C27.0324 33.47 27.4617 33.0687 28.003 32.798C28.5444 32.5274 29.165 32.392 29.865 32.392H30.131C30.803 32.392 31.3817 32.5227 31.867 32.784C32.3524 33.0454 32.7257 33.414 32.987 33.89C33.2484 34.3567 33.379 34.898 33.379 35.514V36.396H28.591C28.591 36.788 28.633 37.138 28.717 37.446C28.8104 37.754 28.955 37.9967 29.151 38.174C29.3564 38.342 29.6224 38.426 29.949 38.426C30.2384 38.426 30.481 38.37 30.677 38.258C30.8824 38.146 31.041 37.9874 31.153 37.782C31.265 37.5674 31.321 37.3107 31.321 37.012H33.365C33.365 37.5534 33.2204 38.0387 32.931 38.468C32.651 38.888 32.259 39.2194 31.755 39.462C31.251 39.7047 30.663 39.826 29.991 39.826H29.823ZM28.591 35.332H31.209C31.209 34.8 31.0924 34.4127 30.859 34.17C30.6257 33.918 30.3177 33.792 29.935 33.792C29.5524 33.792 29.235 33.9227 28.983 34.184C28.7404 34.4454 28.6097 34.828 28.591 35.332ZM34.8192 39.686V32.532H36.4712L36.7232 33.568C36.7512 33.5307 36.8025 33.4514 36.8772 33.33C36.9612 33.1994 37.0825 33.064 37.2412 32.924C37.3998 32.7747 37.5958 32.6487 37.8292 32.546C38.0625 32.4434 38.3378 32.392 38.6552 32.392C39.1312 32.392 39.5185 32.4807 39.8172 32.658C40.1158 32.8354 40.3352 33.092 40.4752 33.428C40.6245 33.7547 40.6992 34.1467 40.6992 34.604C40.6992 34.7067 40.6945 34.828 40.6852 34.968C40.6758 35.0987 40.6665 35.22 40.6572 35.332H38.8372V35.024C38.8372 34.8654 38.8045 34.7067 38.7392 34.548C38.6832 34.3894 38.5898 34.2634 38.4592 34.17C38.3285 34.0674 38.1512 34.016 37.9272 34.016C37.7592 34.016 37.6145 34.0487 37.4932 34.114C37.3718 34.1794 37.2738 34.268 37.1992 34.38C37.1245 34.4827 37.0685 34.5994 37.0312 34.73C37.0032 34.8514 36.9892 34.9774 36.9892 35.108V39.686H34.8192ZM45.0808 39.826C44.3808 39.826 43.7602 39.6907 43.2188 39.42C42.6868 39.14 42.2668 38.7387 41.9588 38.216C41.6602 37.684 41.5108 37.0447 41.5108 36.298V35.92C41.5108 35.164 41.6648 34.5247 41.9728 34.002C42.2902 33.47 42.7195 33.0687 43.2608 32.798C43.8022 32.5274 44.4228 32.392 45.1228 32.392H45.3888C46.0608 32.392 46.6395 32.5227 47.1248 32.784C47.6102 33.0454 47.9835 33.414 48.2448 33.89C48.5062 34.3567 48.6368 34.898 48.6368 35.514V36.396H43.8488C43.8488 36.788 43.8908 37.138 43.9748 37.446C44.0682 37.754 44.2128 37.9967 44.4088 38.174C44.6142 38.342 44.8802 38.426 45.2068 38.426C45.4962 38.426 45.7388 38.37 45.9348 38.258C46.1402 38.146 46.2988 37.9874 46.4108 37.782C46.5228 37.5674 46.5788 37.3107 46.5788 37.012H48.6228C48.6228 37.5534 48.4782 38.0387 48.1888 38.468C47.9088 38.888 47.5168 39.2194 47.0128 39.462C46.5088 39.7047 45.9208 39.826 45.2488 39.826H45.0808ZM43.8488 35.332H46.4668C46.4668 34.8 46.3502 34.4127 46.1168 34.17C45.8835 33.918 45.5755 33.792 45.1928 33.792C44.8102 33.792 44.4928 33.9227 44.2408 34.184C43.9982 34.4454 43.8675 34.828 43.8488 35.332ZM50.077 39.686V32.532H51.715L51.967 33.568C52.2563 33.1667 52.5923 32.8727 52.975 32.686C53.3577 32.49 53.8057 32.392 54.319 32.392C54.8043 32.392 55.2243 32.4854 55.579 32.672C55.943 32.8494 56.223 33.106 56.419 33.442C56.615 33.778 56.713 34.1794 56.713 34.646V39.686H54.515V35.15C54.515 34.7674 54.417 34.478 54.221 34.282C54.025 34.086 53.7683 33.988 53.451 33.988C53.2363 33.988 53.0403 34.044 52.863 34.156C52.6857 34.268 52.541 34.4174 52.429 34.604C52.3263 34.7814 52.275 34.9867 52.275 35.22V39.686H50.077ZM61.4402 39.826C60.8335 39.826 60.2782 39.6767 59.7742 39.378C59.2702 39.07 58.8688 38.6547 58.5702 38.132C58.2715 37.6 58.1222 37.0027 58.1222 36.34V35.864C58.1222 35.36 58.2108 34.898 58.3882 34.478C58.5655 34.058 58.8082 33.694 59.1162 33.386C59.4335 33.0687 59.7928 32.826 60.1942 32.658C60.6048 32.4807 61.0435 32.392 61.5102 32.392H61.8182C62.4808 32.392 63.0455 32.518 63.5122 32.77C63.9882 33.022 64.3522 33.372 64.6042 33.82C64.8562 34.268 64.9822 34.7907 64.9822 35.388H63.0782C63.0782 35.0334 63.0268 34.7394 62.9242 34.506C62.8215 34.2634 62.6768 34.086 62.4902 33.974C62.3035 33.8527 62.0702 33.792 61.7902 33.792C61.4168 33.792 61.0995 33.9227 60.8382 34.184C60.5862 34.436 60.4602 34.7954 60.4602 35.262V36.928C60.4602 37.3947 60.5768 37.7634 60.8102 38.034C61.0528 38.2954 61.3888 38.426 61.8182 38.426C62.1262 38.426 62.3782 38.3747 62.5742 38.272C62.7795 38.1694 62.9335 38.0014 63.0362 37.768C63.1388 37.5347 63.1902 37.222 63.1902 36.83H64.9822C64.9822 37.4647 64.8422 38.006 64.5622 38.454C64.2915 38.902 63.9135 39.2427 63.4282 39.476C62.9428 39.7094 62.3828 39.826 61.7482 39.826H61.4402ZM66.3888 39.686V32.532H68.5868V39.686H66.3888ZM66.3608 31.258V29.606H68.6008V31.258H66.3608ZM72.242 39.826C71.8594 39.826 71.4954 39.7607 71.15 39.63C70.8047 39.4994 70.52 39.2894 70.296 39C70.0814 38.7014 69.974 38.3 69.974 37.796C69.974 37.292 70.0814 36.8814 70.296 36.564C70.52 36.2374 70.8374 35.9854 71.248 35.808C71.668 35.6307 72.1674 35.5094 72.746 35.444C73.334 35.3694 73.9874 35.332 74.706 35.332V34.758C74.706 34.3847 74.6034 34.1234 74.398 33.974C74.1927 33.8154 73.9034 33.736 73.53 33.736C73.194 33.736 72.9094 33.8107 72.676 33.96C72.4427 34.1094 72.326 34.3287 72.326 34.618V34.716H70.212C70.2027 34.688 70.198 34.6554 70.198 34.618C70.198 34.5714 70.198 34.5247 70.198 34.478C70.198 34.0767 70.3287 33.7174 70.59 33.4C70.8514 33.0827 71.22 32.8354 71.696 32.658C72.1814 32.4807 72.746 32.392 73.39 32.392H73.74C74.7854 32.392 75.5647 32.5974 76.078 33.008C76.5914 33.4094 76.848 33.946 76.848 34.618V37.922C76.848 38.0994 76.89 38.23 76.974 38.314C77.0674 38.3887 77.1654 38.426 77.268 38.426C77.3614 38.426 77.4547 38.412 77.548 38.384C77.6414 38.3467 77.73 38.3094 77.814 38.272V39.518C77.6927 39.6114 77.5294 39.686 77.324 39.742C77.1187 39.798 76.8574 39.826 76.54 39.826C76.1854 39.826 75.882 39.7747 75.63 39.672C75.3874 39.56 75.2007 39.4154 75.07 39.238C74.9394 39.0607 74.8554 38.8554 74.818 38.622C74.5567 38.958 74.216 39.2427 73.796 39.476C73.376 39.7094 72.858 39.826 72.242 39.826ZM73.334 38.426C73.5674 38.426 73.7867 38.3747 73.992 38.272C74.2067 38.16 74.3794 38.0014 74.51 37.796C74.6407 37.5814 74.706 37.32 74.706 37.012V36.438C74.1647 36.438 73.712 36.4754 73.348 36.55C72.984 36.6247 72.7087 36.7414 72.522 36.9C72.3447 37.0587 72.256 37.278 72.256 37.558C72.256 37.8847 72.354 38.1134 72.55 38.244C72.7554 38.3654 73.0167 38.426 73.334 38.426ZM81.528 39.826C80.9493 39.826 80.4407 39.6954 80.002 39.434C79.5727 39.1634 79.2367 38.7574 78.994 38.216C78.7513 37.6654 78.63 36.9747 78.63 36.144V35.99C78.63 35.1874 78.7607 34.52 79.022 33.988C79.2833 33.456 79.6287 33.0594 80.058 32.798C80.4967 32.5274 80.968 32.392 81.472 32.392C81.9667 32.392 82.3773 32.4854 82.704 32.672C83.0307 32.8494 83.278 33.0734 83.446 33.344V29.606H85.644V39.686H83.908L83.684 38.762C83.4693 39.0514 83.1847 39.3034 82.83 39.518C82.4847 39.7234 82.0507 39.826 81.528 39.826ZM82.2 38.426C82.4333 38.426 82.6433 38.37 82.83 38.258C83.0167 38.1367 83.166 37.9594 83.278 37.726C83.39 37.4927 83.446 37.2034 83.446 36.858V35.346C83.446 35.0194 83.39 34.744 83.278 34.52C83.166 34.296 83.0167 34.128 82.83 34.016C82.6433 33.8947 82.4333 33.834 82.2 33.834C81.8547 33.834 81.5607 33.9694 81.318 34.24C81.0847 34.5014 80.968 34.87 80.968 35.346V36.844C80.968 37.1894 81.0193 37.4787 81.122 37.712C81.234 37.9454 81.3833 38.1227 81.57 38.244C81.7567 38.3654 81.9667 38.426 82.2 38.426ZM90.5659 39.826C89.8939 39.826 89.2919 39.6767 88.7599 39.378C88.2279 39.0794 87.8079 38.664 87.4999 38.132C87.2012 37.5907 87.0519 36.9607 87.0519 36.242V35.976C87.0519 35.248 87.2012 34.618 87.4999 34.086C87.8079 33.5447 88.2279 33.1294 88.7599 32.84C89.2919 32.5414 89.8939 32.392 90.5659 32.392H90.9019C91.5739 32.392 92.1759 32.5414 92.7079 32.84C93.2399 33.1294 93.6552 33.5447 93.9539 34.086C94.2619 34.618 94.4159 35.248 94.4159 35.976V36.242C94.4159 36.9607 94.2619 37.5907 93.9539 38.132C93.6552 38.6734 93.2399 39.0934 92.7079 39.392C92.1759 39.6814 91.5739 39.826 90.9019 39.826H90.5659ZM90.7339 38.426C90.9859 38.426 91.2099 38.3654 91.4059 38.244C91.6112 38.1227 91.7745 37.95 91.8959 37.726C92.0172 37.4927 92.0779 37.222 92.0779 36.914V35.304C92.0779 34.9867 92.0172 34.716 91.8959 34.492C91.7745 34.268 91.6112 34.0954 91.4059 33.974C91.2099 33.8527 90.9859 33.792 90.7339 33.792C90.4819 33.792 90.2532 33.8527 90.0479 33.974C89.8519 34.0954 89.6932 34.268 89.5719 34.492C89.4505 34.716 89.3899 34.9867 89.3899 35.304V36.914C89.3899 37.222 89.4505 37.4927 89.5719 37.726C89.6932 37.95 89.8519 38.1227 90.0479 38.244C90.2532 38.3654 90.4819 38.426 90.7339 38.426ZM95.8231 39.686V32.532H97.4751L97.7271 33.568C97.7551 33.5307 97.8064 33.4514 97.8811 33.33C97.9651 33.1994 98.0864 33.064 98.2451 32.924C98.4037 32.7747 98.5997 32.6487 98.8331 32.546C99.0664 32.4434 99.3417 32.392 99.6591 32.392C100.135 32.392 100.522 32.4807 100.821 32.658C101.12 32.8354 101.339 33.092 101.479 33.428C101.628 33.7547 101.703 34.1467 101.703 34.604C101.703 34.7067 101.698 34.828 101.689 34.968C101.68 35.0987 101.67 35.22 101.661 35.332H99.8411V35.024C99.8411 34.8654 99.8084 34.7067 99.7431 34.548C99.6871 34.3894 99.5937 34.2634 99.4631 34.17C99.3324 34.0674 99.1551 34.016 98.9311 34.016C98.7631 34.016 98.6184 34.0487 98.4971 34.114C98.3757 34.1794 98.2777 34.268 98.2031 34.38C98.1284 34.4827 98.0724 34.5994 98.0351 34.73C98.0071 34.8514 97.9931 34.9774 97.9931 35.108V39.686H95.8231ZM108.311 39.826C107.733 39.826 107.224 39.6954 106.785 39.434C106.356 39.1634 106.02 38.7574 105.777 38.216C105.535 37.6654 105.413 36.9747 105.413 36.144V35.99C105.413 35.1874 105.544 34.52 105.805 33.988C106.067 33.456 106.412 33.0594 106.841 32.798C107.28 32.5274 107.751 32.392 108.255 32.392C108.75 32.392 109.161 32.4854 109.487 32.672C109.814 32.8494 110.061 33.0734 110.229 33.344V29.606H112.427V39.686H110.691L110.467 38.762C110.253 39.0514 109.968 39.3034 109.613 39.518C109.268 39.7234 108.834 39.826 108.311 39.826ZM108.983 38.426C109.217 38.426 109.427 38.37 109.613 38.258C109.8 38.1367 109.949 37.9594 110.061 37.726C110.173 37.4927 110.229 37.2034 110.229 36.858V35.346C110.229 35.0194 110.173 34.744 110.061 34.52C109.949 34.296 109.8 34.128 109.613 34.016C109.427 33.8947 109.217 33.834 108.983 33.834C108.638 33.834 108.344 33.9694 108.101 34.24C107.868 34.5014 107.751 34.87 107.751 35.346V36.844C107.751 37.1894 107.803 37.4787 107.905 37.712C108.017 37.9454 108.167 38.1227 108.353 38.244C108.54 38.3654 108.75 38.426 108.983 38.426ZM117.405 39.826C116.705 39.826 116.084 39.6907 115.543 39.42C115.011 39.14 114.591 38.7387 114.283 38.216C113.984 37.684 113.835 37.0447 113.835 36.298V35.92C113.835 35.164 113.989 34.5247 114.297 34.002C114.614 33.47 115.044 33.0687 115.585 32.798C116.126 32.5274 116.747 32.392 117.447 32.392H117.713C118.385 32.392 118.964 32.5227 119.449 32.784C119.934 33.0454 120.308 33.414 120.569 33.89C120.83 34.3567 120.961 34.898 120.961 35.514V36.396H116.173C116.173 36.788 116.215 37.138 116.299 37.446C116.392 37.754 116.537 37.9967 116.733 38.174C116.938 38.342 117.204 38.426 117.531 38.426C117.82 38.426 118.063 38.37 118.259 38.258C118.464 38.146 118.623 37.9874 118.735 37.782C118.847 37.5674 118.903 37.3107 118.903 37.012H120.947C120.947 37.5534 120.802 38.0387 120.513 38.468C120.233 38.888 119.841 39.2194 119.337 39.462C118.833 39.7047 118.245 39.826 117.573 39.826H117.405ZM116.173 35.332H118.791C118.791 34.8 118.674 34.4127 118.441 34.17C118.208 33.918 117.9 33.792 117.517 33.792C117.134 33.792 116.817 33.9227 116.565 34.184C116.322 34.4454 116.192 34.828 116.173 35.332ZM127.176 39.826C126.793 39.826 126.429 39.7607 126.084 39.63C125.738 39.4994 125.454 39.2894 125.23 39C125.015 38.7014 124.908 38.3 124.908 37.796C124.908 37.292 125.015 36.8814 125.23 36.564C125.454 36.2374 125.771 35.9854 126.182 35.808C126.602 35.6307 127.101 35.5094 127.68 35.444C128.268 35.3694 128.921 35.332 129.64 35.332V34.758C129.64 34.3847 129.537 34.1234 129.332 33.974C129.126 33.8154 128.837 33.736 128.464 33.736C128.128 33.736 127.843 33.8107 127.61 33.96C127.376 34.1094 127.26 34.3287 127.26 34.618V34.716H125.146C125.136 34.688 125.132 34.6554 125.132 34.618C125.132 34.5714 125.132 34.5247 125.132 34.478C125.132 34.0767 125.262 33.7174 125.524 33.4C125.785 33.0827 126.154 32.8354 126.63 32.658C127.115 32.4807 127.68 32.392 128.324 32.392H128.674C129.719 32.392 130.498 32.5974 131.012 33.008C131.525 33.4094 131.782 33.946 131.782 34.618V37.922C131.782 38.0994 131.824 38.23 131.908 38.314C132.001 38.3887 132.099 38.426 132.202 38.426C132.295 38.426 132.388 38.412 132.482 38.384C132.575 38.3467 132.664 38.3094 132.748 38.272V39.518C132.626 39.6114 132.463 39.686 132.258 39.742C132.052 39.798 131.791 39.826 131.474 39.826C131.119 39.826 130.816 39.7747 130.564 39.672C130.321 39.56 130.134 39.4154 130.004 39.238C129.873 39.0607 129.789 38.8554 129.752 38.622C129.49 38.958 129.15 39.2427 128.73 39.476C128.31 39.7094 127.792 39.826 127.176 39.826ZM128.268 38.426C128.501 38.426 128.72 38.3747 128.926 38.272C129.14 38.16 129.313 38.0014 129.444 37.796C129.574 37.5814 129.64 37.32 129.64 37.012V36.438C129.098 36.438 128.646 36.4754 128.282 36.55C127.918 36.6247 127.642 36.7414 127.456 36.9C127.278 37.0587 127.19 37.278 127.19 37.558C127.19 37.8847 127.288 38.1134 127.484 38.244C127.689 38.3654 127.95 38.426 128.268 38.426ZM133.886 39.686V32.532H135.524L135.776 33.568C136.065 33.1667 136.401 32.8727 136.784 32.686C137.166 32.49 137.614 32.392 138.128 32.392C138.613 32.392 139.033 32.4854 139.388 32.672C139.752 32.8494 140.032 33.106 140.228 33.442C140.424 33.778 140.522 34.1794 140.522 34.646V39.686H138.324V35.15C138.324 34.7674 138.226 34.478 138.03 34.282C137.834 34.086 137.577 33.988 137.26 33.988C137.045 33.988 136.849 34.044 136.672 34.156C136.494 34.268 136.35 34.4174 136.238 34.604C136.135 34.7814 136.084 34.9867 136.084 35.22V39.686H133.886ZM144.535 39.826C143.807 39.826 143.233 39.6254 142.813 39.224C142.402 38.8134 142.197 38.23 142.197 37.474V32.532H144.395V37.012C144.395 37.4134 144.479 37.7167 144.647 37.922C144.824 38.118 145.085 38.216 145.431 38.216C145.655 38.216 145.855 38.1647 146.033 38.062C146.219 37.95 146.364 37.8007 146.467 37.614C146.579 37.418 146.635 37.208 146.635 36.984V32.532H148.833V37.922C148.833 38.0994 148.875 38.23 148.959 38.314C149.052 38.3887 149.15 38.426 149.253 38.426C149.346 38.426 149.439 38.412 149.533 38.384C149.626 38.3467 149.715 38.3094 149.799 38.272V39.518C149.677 39.6114 149.514 39.686 149.309 39.742C149.103 39.798 148.847 39.826 148.539 39.826C148.175 39.826 147.876 39.7794 147.643 39.686C147.409 39.5834 147.227 39.4434 147.097 39.266C146.966 39.0887 146.868 38.888 146.803 38.664C146.569 39.028 146.252 39.3127 145.851 39.518C145.449 39.7234 145.011 39.826 144.535 39.826ZM144.745 31.482L145.935 29.046H147.811L147.825 29.088L146.229 31.482H144.745ZM151.003 39.686V32.532H152.641L152.893 33.568C153.182 33.1667 153.518 32.8727 153.901 32.686C154.283 32.49 154.731 32.392 155.245 32.392C155.73 32.392 156.15 32.4854 156.505 32.672C156.869 32.8494 157.149 33.106 157.345 33.442C157.541 33.778 157.639 34.1794 157.639 34.646V39.686H155.441V35.15C155.441 34.7674 155.343 34.478 155.147 34.282C154.951 34.086 154.694 33.988 154.377 33.988C154.162 33.988 153.966 34.044 153.789 34.156C153.611 34.268 153.467 34.4174 153.355 34.604C153.252 34.7814 153.201 34.9867 153.201 35.22V39.686H151.003ZM162.366 39.826C161.759 39.826 161.204 39.6767 160.7 39.378C160.196 39.07 159.795 38.6547 159.496 38.132C159.197 37.6 159.048 37.0027 159.048 36.34V35.864C159.048 35.36 159.137 34.898 159.314 34.478C159.491 34.058 159.734 33.694 160.042 33.386C160.359 33.0687 160.719 32.826 161.12 32.658C161.531 32.4807 161.969 32.392 162.436 32.392H162.744C163.407 32.392 163.971 32.518 164.438 32.77C164.914 33.022 165.278 33.372 165.53 33.82C165.782 34.268 165.908 34.7907 165.908 35.388H164.004C164.004 35.0334 163.953 34.7394 163.85 34.506C163.747 34.2634 163.603 34.086 163.416 33.974C163.229 33.8527 162.996 33.792 162.716 33.792C162.343 33.792 162.025 33.9227 161.764 34.184C161.512 34.436 161.386 34.7954 161.386 35.262V36.928C161.386 37.3947 161.503 37.7634 161.736 38.034C161.979 38.2954 162.315 38.426 162.744 38.426C163.052 38.426 163.304 38.3747 163.5 38.272C163.705 38.1694 163.859 38.0014 163.962 37.768C164.065 37.5347 164.116 37.222 164.116 36.83H165.908C165.908 37.4647 165.768 38.006 165.488 38.454C165.217 38.902 164.839 39.2427 164.354 39.476C163.869 39.7094 163.309 39.826 162.674 39.826H162.366ZM167.315 39.686V32.532H169.513V39.686H167.315ZM167.287 31.258V29.606H169.527V31.258H167.287ZM174.484 39.826C173.812 39.826 173.21 39.6767 172.678 39.378C172.146 39.0794 171.726 38.664 171.418 38.132C171.119 37.5907 170.97 36.9607 170.97 36.242V35.976C170.97 35.248 171.119 34.618 171.418 34.086C171.726 33.5447 172.146 33.1294 172.678 32.84C173.21 32.5414 173.812 32.392 174.484 32.392H174.82C175.492 32.392 176.094 32.5414 176.626 32.84C177.158 33.1294 177.573 33.5447 177.872 34.086C178.18 34.618 178.334 35.248 178.334 35.976V36.242C178.334 36.9607 178.18 37.5907 177.872 38.132C177.573 38.6734 177.158 39.0934 176.626 39.392C176.094 39.6814 175.492 39.826 174.82 39.826H174.484ZM174.652 38.426C174.904 38.426 175.128 38.3654 175.324 38.244C175.529 38.1227 175.692 37.95 175.814 37.726C175.935 37.4927 175.996 37.222 175.996 36.914V35.304C175.996 34.9867 175.935 34.716 175.814 34.492C175.692 34.268 175.529 34.0954 175.324 33.974C175.128 33.8527 174.904 33.792 174.652 33.792C174.4 33.792 174.171 33.8527 173.966 33.974C173.77 34.0954 173.611 34.268 173.49 34.492C173.368 34.716 173.308 34.9867 173.308 35.304V36.914C173.308 37.222 173.368 37.4927 173.49 37.726C173.611 37.95 173.77 38.1227 173.966 38.244C174.171 38.3654 174.4 38.426 174.652 38.426ZM182.359 39.826C181.93 39.826 181.533 39.7747 181.169 39.672C180.805 39.5694 180.483 39.4247 180.203 39.238C179.932 39.042 179.718 38.8134 179.559 38.552C179.41 38.2814 179.335 37.9827 179.335 37.656C179.335 37.6094 179.335 37.5674 179.335 37.53C179.335 37.4927 179.34 37.446 179.349 37.39H181.183C181.174 37.4087 181.169 37.4274 181.169 37.446C181.169 37.4647 181.169 37.4834 181.169 37.502C181.169 37.726 181.244 37.908 181.393 38.048C181.542 38.1787 181.734 38.2767 181.967 38.342C182.2 38.398 182.443 38.426 182.695 38.426C182.882 38.426 183.082 38.4027 183.297 38.356C183.521 38.3094 183.712 38.2347 183.871 38.132C184.03 38.0294 184.109 37.8894 184.109 37.712C184.109 37.516 184.025 37.3667 183.857 37.264C183.698 37.1614 183.484 37.082 183.213 37.026C182.942 36.97 182.644 36.9187 182.317 36.872C182 36.816 181.678 36.7507 181.351 36.676C181.024 36.592 180.726 36.4754 180.455 36.326C180.184 36.1674 179.965 35.9574 179.797 35.696C179.638 35.4347 179.559 35.094 179.559 34.674C179.559 34.2914 179.643 33.9554 179.811 33.666C179.988 33.3767 180.226 33.1387 180.525 32.952C180.833 32.7654 181.174 32.6254 181.547 32.532C181.92 32.4387 182.303 32.392 182.695 32.392H183.017C183.372 32.392 183.722 32.4387 184.067 32.532C184.412 32.616 184.725 32.742 185.005 32.91C185.285 33.078 185.509 33.2834 185.677 33.526C185.845 33.7594 185.929 34.0207 185.929 34.31C185.929 34.366 185.924 34.4267 185.915 34.492C185.915 34.548 185.915 34.5947 185.915 34.632H184.053V34.52C184.053 34.4267 184.025 34.3334 183.969 34.24C183.913 34.1467 183.829 34.0674 183.717 34.002C183.605 33.9274 183.47 33.8714 183.311 33.834C183.162 33.7874 182.984 33.764 182.779 33.764C182.611 33.764 182.448 33.7827 182.289 33.82C182.13 33.848 181.99 33.89 181.869 33.946C181.757 34.002 181.668 34.072 181.603 34.156C181.538 34.2307 181.505 34.3147 181.505 34.408C181.505 34.5947 181.584 34.7347 181.743 34.828C181.911 34.9214 182.13 34.996 182.401 35.052C182.681 35.0987 182.984 35.1454 183.311 35.192C183.638 35.2294 183.964 35.29 184.291 35.374C184.618 35.4487 184.916 35.5654 185.187 35.724C185.458 35.8734 185.677 36.0834 185.845 36.354C186.013 36.6154 186.097 36.9607 186.097 37.39C186.097 37.8474 186.008 38.2347 185.831 38.552C185.654 38.86 185.411 39.1074 185.103 39.294C184.804 39.4807 184.464 39.616 184.081 39.7C183.698 39.784 183.302 39.826 182.891 39.826H182.359Z" fill="white"></path><path opacity="0.4" d="M77.6922 147.471C67.0769 147.471 57.3845 153.101 49 174.706H284V75.686C273.819 75.686 264.154 93.9841 253.344 93.9841C243.385 93.9841 240.544 105.334 236.462 105.334C232.769 105.334 230.923 102.899 228.154 102.899C225.385 102.899 225.385 115.566 219.846 115.566C216.154 115.566 212.462 111.813 206.462 111.813C200.462 111.813 196.736 122.135 191.692 122.135C178.308 122.135 184.308 101.022 175.538 101.022C168.154 101.022 166.769 113.69 158.462 113.69C147.846 113.69 150.615 96.33 143.692 96.33C134.923 96.33 140.002 125.888 125.692 125.888C114.154 125.888 113.438 135.21 107.231 135.272C101.024 135.334 94.7692 129.659 89.2307 129.659C80.923 129.659 86.923 147.471 77.6922 147.471Z" fill="url(#paint0_linear_721_566)"></path><path d="M49 174.706C57.3845 153.101 67.0769 147.471 77.6922 147.471C86.923 147.471 80.923 129.659 89.2307 129.659C94.7692 129.659 101.024 135.334 107.231 135.272C113.438 135.21 114.154 125.888 125.692 125.888C140.002 125.888 134.923 96.33 143.692 96.33C150.615 96.33 147.846 113.69 158.462 113.69C166.769 113.69 168.154 101.022 175.538 101.022C184.308 101.022 178.308 122.135 191.692 122.135C196.736 122.135 200.462 111.813 206.462 111.813C212.462 111.813 216.154 115.566 219.846 115.566C225.385 115.566 225.385 102.899 228.154 102.899C230.923 102.899 232.769 105.334 236.462 105.334C240.544 105.334 243.385 93.9841 253.344 93.9841C264.154 93.9841 273.819 75.686 284 75.686" stroke="url(#paint1_linear_721_566)" stroke-width="2" stroke-linecap="round" stroke-linejoin="round"></path><path d="M49 174.706C57.3845 153.101 67.7596 156.788 78.375 156.788C87.6058 156.788 87.3193 142.171 95.627 142.171C101.165 142.171 107.604 144.59 113.812 144.528C120.019 144.467 121.39 130.854 132.929 130.854C147.238 130.854 140.945 114.351 149.714 114.351C156.637 114.351 154.486 118.123 165.101 118.123C173.409 118.123 179.165 102.898 186.55 102.898C195.319 102.898 184.822 130.854 198.206 130.854C203.25 130.854 208.992 144.528 214.992 144.528C220.992 144.528 219.693 124.253 223.385 124.253C228.923 124.253 226.649 112.465 232.244 112.465C237.839 112.465 238.343 112.465 242.036 112.465C246.118 112.465 244.2 108.692 254.159 108.692C264.969 108.692 273.352 118.123 283.534 118.123" stroke="#FFCECE" stroke-width="2" stroke-linecap="round" stroke-linejoin="round"></path><path d="M174.633 92.8161C174.265 93.1169 173.735 93.1169 173.367 92.8161L166.344 87.0779C164.888 85.8883 165.729 83.5291 167.609 83.5291L180.391 83.5291C182.271 83.5291 183.112 85.8883 181.656 87.0779L174.633 92.8161Z" fill="url(#paint2_linear_721_566)"></path><rect x="139" y="57.0586" width="70" height="32.3529" rx="4" fill="url(#paint3_linear_721_566)"></rect><path d="M151.476 72.9604V70.8604H147.588V69.8764C147.692 69.7164 147.828 69.4884 147.996 69.1924C148.164 68.8964 148.344 68.5564 148.536 68.1724C148.736 67.7884 148.932 67.3884 149.124 66.9724C149.316 66.5484 149.496 66.1324 149.664 65.7244C149.84 65.3164 149.984 64.9444 150.096 64.6084H151.248C151.152 64.9684 151.02 65.3564 150.852 65.7724C150.684 66.1804 150.5 66.5924 150.3 67.0084C150.108 67.4164 149.904 67.8084 149.688 68.1844C149.48 68.5604 149.28 68.8964 149.088 69.1924C148.896 69.4804 148.72 69.7124 148.56 69.8884H151.476V67.4284C151.532 67.3404 151.592 67.2284 151.656 67.0924C151.728 66.9484 151.796 66.8044 151.86 66.6604C151.932 66.5084 151.996 66.3644 152.052 66.2284C152.116 66.0844 152.16 65.9604 152.184 65.8564H152.676V69.8884H153.72V70.8604H152.676V72.9604H151.476ZM155.271 72.9604V71.6764H156.555V72.9604H155.271ZM161.089 73.0804C160.529 73.0804 160.033 72.9924 159.601 72.8164C159.169 72.6404 158.833 72.3804 158.593 72.0364C158.353 71.6844 158.233 71.2524 158.233 70.7404C158.233 70.2124 158.361 69.7924 158.617 69.4804C158.873 69.1604 159.205 68.9164 159.613 68.7484V68.7004C159.293 68.5404 159.029 68.3204 158.821 68.0404C158.613 67.7524 158.509 67.3684 158.509 66.8884C158.509 66.4004 158.625 65.9884 158.857 65.6524C159.089 65.3164 159.405 65.0604 159.805 64.8844C160.213 64.7004 160.669 64.6084 161.173 64.6084C161.685 64.6084 162.133 64.7004 162.517 64.8844C162.909 65.0604 163.213 65.3164 163.429 65.6524C163.645 65.9884 163.753 66.4004 163.753 66.8884C163.753 67.2084 163.705 67.4844 163.609 67.7164C163.513 67.9484 163.381 68.1444 163.213 68.3044C163.053 68.4644 162.865 68.5964 162.649 68.7004V68.7484C163.065 68.9484 163.401 69.1964 163.657 69.4924C163.913 69.7804 164.041 70.1964 164.041 70.7404C164.041 71.2204 163.921 71.6364 163.681 71.9884C163.449 72.3404 163.113 72.6124 162.673 72.8044C162.241 72.9884 161.713 73.0804 161.089 73.0804ZM161.137 72.1684C161.705 72.1684 162.125 72.0324 162.397 71.7604C162.677 71.4884 162.817 71.1204 162.817 70.6564C162.817 70.1844 162.669 69.8164 162.373 69.5524C162.077 69.2884 161.665 69.1564 161.137 69.1564C160.609 69.1564 160.197 69.2924 159.901 69.5644C159.613 69.8364 159.469 70.2004 159.469 70.6564C159.469 71.1204 159.605 71.4884 159.877 71.7604C160.149 72.0324 160.569 72.1684 161.137 72.1684ZM161.125 68.3404C161.549 68.3404 161.901 68.2204 162.181 67.9804C162.469 67.7324 162.613 67.3804 162.613 66.9244C162.613 66.4684 162.477 66.1204 162.205 65.8804C161.941 65.6324 161.581 65.5084 161.125 65.5084C160.669 65.5084 160.309 65.6324 160.045 65.8804C159.781 66.1284 159.649 66.4764 159.649 66.9244C159.649 67.3804 159.789 67.7324 160.069 67.9804C160.357 68.2204 160.709 68.3404 161.125 68.3404ZM165.772 72.9604V64.3204H166.972V70.1884L169.804 66.8284H171.22L168.772 69.6604L171.364 72.9604H169.912L167.956 70.4884L166.972 71.4844V72.9604H165.772Z" fill="#15181C"></path><path opacity="0.8" d="M149.024 82.686L147.088 77.198H147.984L149.504 81.534H149.544L151.056 77.198H151.88L149.944 82.686H149.024ZM154.077 82.766C153.714 82.766 153.394 82.6887 153.117 82.534C152.845 82.374 152.632 82.142 152.477 81.838C152.322 81.5287 152.245 81.158 152.245 80.726V80.558C152.245 80.1207 152.325 79.75 152.485 79.446C152.65 79.142 152.874 78.9127 153.157 78.758C153.44 78.598 153.762 78.518 154.125 78.518H154.213C154.544 78.518 154.837 78.5874 155.093 78.726C155.349 78.8647 155.546 79.062 155.685 79.318C155.829 79.574 155.901 79.878 155.901 80.23V80.742H153.077C153.077 81.046 153.117 81.3074 153.197 81.526C153.282 81.7447 153.402 81.9127 153.557 82.03C153.717 82.142 153.912 82.198 154.141 82.198C154.333 82.198 154.504 82.1607 154.653 82.086C154.802 82.0114 154.922 81.8967 155.013 81.742C155.104 81.5874 155.149 81.3954 155.149 81.166H155.901C155.901 81.4914 155.824 81.774 155.669 82.014C155.514 82.254 155.304 82.4407 155.037 82.574C154.776 82.702 154.48 82.766 154.149 82.766H154.077ZM153.085 80.262H155.117C155.117 79.862 155.029 79.566 154.853 79.374C154.682 79.182 154.442 79.086 154.133 79.086C153.85 79.086 153.608 79.1847 153.405 79.382C153.208 79.5794 153.101 79.8727 153.085 80.262ZM156.999 82.686V78.598H157.575L157.687 79.198C157.837 78.974 158.029 78.806 158.263 78.694C158.503 78.5767 158.762 78.518 159.039 78.518C159.322 78.518 159.57 78.5714 159.783 78.678C160.002 78.7847 160.173 78.9447 160.295 79.158C160.418 79.366 160.479 79.6274 160.479 79.942V82.686H159.679V80.078C159.679 79.742 159.602 79.502 159.447 79.358C159.293 79.2087 159.074 79.134 158.791 79.134C158.61 79.134 158.442 79.1794 158.287 79.27C158.138 79.3607 158.018 79.4834 157.927 79.638C157.842 79.7874 157.799 79.9607 157.799 80.158V82.686H156.999ZM163.261 82.766C162.952 82.766 162.669 82.694 162.413 82.55C162.162 82.4007 161.96 82.1687 161.805 81.854C161.656 81.5394 161.581 81.1367 161.581 80.646V80.558C161.581 80.11 161.653 79.7367 161.797 79.438C161.946 79.134 162.141 78.9047 162.381 78.75C162.626 78.5954 162.898 78.518 163.197 78.518C163.485 78.518 163.733 78.574 163.941 78.686C164.149 78.7927 164.309 78.9367 164.421 79.118V76.926H165.221V82.686H164.613L164.501 82.118C164.368 82.3207 164.197 82.4807 163.989 82.598C163.786 82.71 163.544 82.766 163.261 82.766ZM163.405 82.198C163.592 82.198 163.76 82.1554 163.909 82.07C164.064 81.9794 164.186 81.8354 164.277 81.638C164.373 81.4354 164.421 81.166 164.421 80.83V80.382C164.421 80.0887 164.376 79.8487 164.285 79.662C164.194 79.47 164.072 79.3287 163.917 79.238C163.762 79.142 163.592 79.094 163.405 79.094C163.128 79.094 162.893 79.2034 162.701 79.422C162.509 79.6354 162.413 79.9607 162.413 80.398V80.838C162.413 81.1687 162.456 81.4354 162.541 81.638C162.632 81.8354 162.752 81.9794 162.901 82.07C163.056 82.1554 163.224 82.198 163.405 82.198ZM167.532 82.766C167.313 82.766 167.102 82.7314 166.9 82.662C166.702 82.5927 166.54 82.4754 166.412 82.31C166.289 82.1394 166.228 81.91 166.228 81.622C166.228 81.3287 166.292 81.094 166.42 80.918C166.553 80.7367 166.74 80.598 166.98 80.502C167.225 80.406 167.516 80.342 167.852 80.31C168.193 80.278 168.566 80.262 168.972 80.262V79.846C168.972 79.558 168.9 79.358 168.756 79.246C168.617 79.1287 168.396 79.07 168.092 79.07C167.836 79.07 167.614 79.126 167.428 79.238C167.241 79.3447 167.148 79.5154 167.148 79.75V79.846H166.372C166.366 79.8194 166.364 79.7927 166.364 79.766C166.364 79.734 166.364 79.702 166.364 79.67C166.364 79.4354 166.436 79.2327 166.58 79.062C166.729 78.886 166.929 78.7527 167.18 78.662C167.436 78.566 167.726 78.518 168.052 78.518H168.164C168.702 78.518 169.102 78.6247 169.364 78.838C169.63 79.0514 169.764 79.358 169.764 79.758V81.926C169.764 82.022 169.785 82.0914 169.828 82.134C169.87 82.1767 169.921 82.198 169.98 82.198C170.038 82.198 170.1 82.1874 170.164 82.166C170.233 82.1447 170.294 82.118 170.348 82.086V82.598C170.278 82.6514 170.193 82.6914 170.092 82.718C169.99 82.75 169.87 82.766 169.732 82.766C169.561 82.766 169.422 82.734 169.316 82.67C169.214 82.6007 169.14 82.51 169.092 82.398C169.044 82.286 169.014 82.1607 169.004 82.022C168.849 82.262 168.646 82.446 168.396 82.574C168.15 82.702 167.862 82.766 167.532 82.766ZM167.852 82.198C168.038 82.198 168.217 82.158 168.388 82.078C168.558 81.9927 168.697 81.8647 168.804 81.694C168.916 81.5234 168.972 81.31 168.972 81.054V80.75C168.572 80.75 168.228 80.7714 167.94 80.814C167.652 80.8514 167.43 80.926 167.276 81.038C167.126 81.15 167.052 81.3234 167.052 81.558C167.052 81.782 167.118 81.9447 167.252 82.046C167.385 82.1474 167.585 82.198 167.852 82.198ZM172.681 82.766C172.398 82.766 172.153 82.7314 171.945 82.662C171.737 82.5927 171.563 82.502 171.425 82.39C171.286 82.2727 171.182 82.1447 171.113 82.006C171.043 81.862 171.009 81.7207 171.009 81.582C171.009 81.55 171.009 81.5234 171.009 81.502C171.009 81.4754 171.011 81.4434 171.017 81.406H171.721C171.715 81.422 171.713 81.438 171.713 81.454C171.713 81.4647 171.713 81.478 171.713 81.494C171.713 81.6487 171.761 81.7794 171.857 81.886C171.958 81.9874 172.091 82.0647 172.257 82.118C172.427 82.1714 172.619 82.198 172.833 82.198C173.014 82.198 173.179 82.174 173.329 82.126C173.483 82.078 173.603 82.0087 173.689 81.918C173.779 81.822 173.825 81.71 173.825 81.582C173.825 81.4327 173.777 81.318 173.681 81.238C173.585 81.1527 173.457 81.0887 173.297 81.046C173.137 80.998 172.961 80.958 172.769 80.926C172.582 80.8887 172.39 80.8487 172.193 80.806C172.001 80.758 171.825 80.694 171.665 80.614C171.505 80.534 171.377 80.4247 171.281 80.286C171.185 80.142 171.137 79.9527 171.137 79.718C171.137 79.5367 171.177 79.3714 171.257 79.222C171.337 79.0727 171.451 78.9474 171.601 78.846C171.75 78.7394 171.926 78.6594 172.129 78.606C172.337 78.5474 172.563 78.518 172.809 78.518H172.913C173.147 78.518 173.361 78.55 173.553 78.614C173.745 78.6727 173.91 78.7554 174.049 78.862C174.187 78.9634 174.291 79.0807 174.361 79.214C174.435 79.342 174.473 79.478 174.473 79.622C174.473 79.6487 174.47 79.678 174.465 79.71C174.465 79.7367 174.465 79.7554 174.465 79.766H173.761V79.678C173.761 79.6247 173.747 79.566 173.721 79.502C173.699 79.4327 173.651 79.3687 173.577 79.31C173.507 79.246 173.409 79.1927 173.281 79.15C173.158 79.1074 172.998 79.086 172.801 79.086C172.614 79.086 172.459 79.1047 172.337 79.142C172.214 79.1794 172.118 79.2274 172.049 79.286C171.985 79.3447 171.939 79.406 171.913 79.47C171.886 79.534 171.873 79.5927 171.873 79.646C171.873 79.774 171.921 79.878 172.017 79.958C172.113 80.0327 172.241 80.0914 172.401 80.134C172.561 80.1767 172.737 80.214 172.929 80.246C173.126 80.278 173.321 80.318 173.513 80.366C173.705 80.4087 173.881 80.4727 174.041 80.558C174.201 80.638 174.329 80.75 174.425 80.894C174.521 81.038 174.569 81.2247 174.569 81.454C174.569 81.694 174.523 81.8994 174.433 82.07C174.342 82.2354 174.217 82.3687 174.057 82.47C173.897 82.5714 173.713 82.646 173.505 82.694C173.297 82.742 173.075 82.766 172.841 82.766H172.681Z" fill="#15181C"></path><ellipse cx="194" cy="72.7451" rx="7" ry="6.86275" fill="#15181C"></ellipse><path d="M194.513 71.0224C194.249 70.7458 193.751 70.7458 193.487 71.0224L190.867 73.7653C190.518 74.1307 190.825 74.6752 191.38 74.6752L196.62 74.6752C197.175 74.6752 197.482 74.1307 197.133 73.7653L194.513 71.0224Z" fill="url(#paint4_linear_721_566)"></path><path d="M174 97.7549C175.942 97.7549 177.5 99.2964 177.5 101.177C177.5 103.057 175.942 104.598 174 104.598C172.058 104.598 170.5 103.057 170.5 101.177C170.5 99.2964 172.058 97.7549 174 97.7549Z" fill="url(#paint5_linear_721_566)" stroke="url(#paint6_linear_721_566)"></path><defs><linearGradient id="paint0_linear_721_566" x1="166.5" y1="46.4517" x2="166.5" y2="174.706" gradientUnits="userSpaceOnUse"><stop stop-color="#C1B2B3"></stop><stop offset="1" stop-color="#201314"></stop></linearGradient><linearGradient id="paint1_linear_721_566" x1="272.395" y1="95.0183" x2="219.395" y2="165.108" gradientUnits="userSpaceOnUse"><stop stop-color="#FF9697"></stop><stop offset="1" stop-color="#E72B39"></stop></linearGradient><linearGradient id="paint2_linear_721_566" x1="163.185" y1="91.4189" x2="168.386" y2="84.3242" gradientUnits="userSpaceOnUse"><stop stop-color="#FF9697"></stop><stop offset="1" stop-color="#E72B39"></stop></linearGradient><linearGradient id="paint3_linear_721_566" x1="205.543" y1="63.3751" x2="187.856" y2="84.6995" gradientUnits="userSpaceOnUse"><stop stop-color="#FF9697"></stop><stop offset="1" stop-color="#E72B39"></stop></linearGradient><linearGradient id="paint4_linear_721_566" x1="196.957" y1="71.5686" x2="194.813" y2="73.5999" gradientUnits="userSpaceOnUse"><stop stop-color="#FF9697"></stop><stop offset="1" stop-color="#E72B39"></stop></linearGradient><linearGradient id="paint5_linear_721_566" x1="177.605" y1="98.7862" x2="173.856" y2="100.917" gradientUnits="userSpaceOnUse"><stop stop-color="#FF9697"></stop><stop offset="1" stop-color="#E72B39"></stop></linearGradient><linearGradient id="paint6_linear_721_566" x1="177.605" y1="98.7862" x2="173.856" y2="100.917" gradientUnits="userSpaceOnUse"><stop stop-color="#FF9697"></stop><stop offset="1" stop-color="#E72B39"></stop></linearGradient></defs></svg>