<svg xmlns="http://www.w3.org/2000/svg" width="50" height="51" viewBox="0 0 50 51" fill="none"><circle cx="25" cy="25.249" r="25" fill="#FF5B67" fill-opacity="0.33"></circle><circle cx="25" cy="25.249" r="17.5" fill="#E72B39"></circle><g clip-path="url(#clip0_366_1890)"><path d="M25 17.124V18.999" stroke="#C5F4FE" stroke-width="1.46429" stroke-linecap="round" stroke-linejoin="round"></path><path d="M25 31.499V33.374" stroke="#C5F4FE" stroke-width="1.46429" stroke-linecap="round" stroke-linejoin="round"></path><path d="M29.375 22.124C29.375 21.7136 29.2942 21.3073 29.1371 20.9281C28.9801 20.549 28.7499 20.2045 28.4597 19.9143C28.1695 19.6241 27.825 19.3939 27.4459 19.2369C27.0667 19.0799 26.6604 18.999 26.25 18.999H23.75C22.9212 18.999 22.1263 19.3283 21.5403 19.9143C20.9542 20.5004 20.625 21.2952 20.625 22.124C20.625 22.9528 20.9542 23.7477 21.5403 24.3337C22.1263 24.9198 22.9212 25.249 23.75 25.249H26.875C27.7038 25.249 28.4987 25.5783 29.0847 26.1643C29.6708 26.7504 30 27.5452 30 28.374C30 29.2028 29.6708 29.9977 29.0847 30.5837C28.4987 31.1698 27.7038 31.499 26.875 31.499H23.125C22.2962 31.499 21.5013 31.1698 20.9153 30.5837C20.3292 29.9977 20 29.2028 20 28.374" stroke="#C5F4FE" stroke-width="1.46429" stroke-linecap="round" stroke-linejoin="round"></path></g><defs><clipPath id="clip0_366_1890"><rect width="20" height="20" fill="white" transform="translate(15 15.249)"></rect></clipPath></defs></svg>