<svg xmlns="http://www.w3.org/2000/svg" width="181" height="48" viewBox="0 0 181 48" fill="none"><path d="M38.709 36.5146L42.4502 43.9795L42.7354 44.5469L43.0186 43.9785L46.7412 36.5146H48.1514V47.1836H47.1738V39.0234L46.5732 38.8789L43.1553 45.6025H42.3008L38.9023 38.8984L38.3018 39.042V47.1836H37.3174V36.5146H38.709Z" fill="#C5C5C5" stroke="#C5C5C5" stroke-width="0.635052"></path><path d="M61.6653 36.5146V37.2002H56.1409V41.4551H61.176V42.1094H56.1409V46.4912H61.6653V47.1777H55.1624V36.5146H61.6653Z" fill="#C5C5C5" stroke="#C5C5C5" stroke-width="0.635052"></path><path d="M69.5408 36.5146L75.2136 45.0479L75.7957 45.9238V36.5146H76.7732V47.1836H75.6472L69.9753 38.6689L69.3943 37.7959V47.1836H68.4158V36.5146H69.5408Z" fill="#C5C5C5" stroke="#C5C5C5" stroke-width="0.635052"></path><path d="M90.783 36.5205V37.2061H87.4236V47.1836H86.4392V37.2061H83.0984V36.5205H90.783Z" fill="#C5C5C5" stroke="#C5C5C5" stroke-width="0.635052"></path><path d="M101.331 36.3174C102.368 36.3174 103.301 36.5533 104.076 37.0146V37.0156C104.851 37.4805 105.458 38.1224 105.888 38.9473C106.318 39.7713 106.538 40.736 106.538 41.8428C106.538 42.9504 106.318 43.9336 105.888 44.7568C105.458 45.5825 104.857 46.2232 104.079 46.6807C103.302 47.1374 102.393 47.374 101.331 47.374C100.293 47.374 99.3925 47.1433 98.6306 46.6826C97.861 46.2171 97.2526 45.5796 96.8093 44.7529C96.3683 43.9302 96.1424 42.9612 96.1423 41.8428C96.1423 40.7249 96.3677 39.7738 96.8093 38.9502C97.2536 38.1217 97.8568 37.4799 98.6306 37.0156C99.4008 36.5535 100.295 36.3174 101.331 36.3174ZM101.35 37.1367C100.52 37.1367 99.7883 37.3266 99.155 37.709C98.594 38.0444 98.1476 38.5071 97.8113 39.0938L97.6736 39.3525C97.3231 40.0607 97.159 40.8989 97.1589 41.8486C97.1589 42.7988 97.3238 43.6373 97.6746 44.3457C98.0226 45.0485 98.5128 45.6044 99.1531 45.9941C99.7929 46.3835 100.525 46.5732 101.35 46.5732C102.072 46.5732 102.727 46.4281 103.308 46.1309L103.553 45.9941L103.554 45.9932C104.187 45.6037 104.678 45.0481 105.02 44.3438C105.364 43.6366 105.528 42.7989 105.528 41.8486C105.528 40.8985 105.363 40.0615 105.02 39.3545C104.721 38.7382 104.308 38.2346 103.784 37.8613L103.552 37.71L103.552 37.709L103.307 37.5742C102.728 37.282 102.078 37.1368 101.35 37.1367Z" fill="#C5C5C5" stroke="#C5C5C5" stroke-width="0.635052"></path><path d="M120.133 47.1836H118.974L117.044 43.208C117.406 43.188 117.743 43.1404 118.056 43.0664L120.133 47.1836ZM116.661 36.5146C117.522 36.5146 118.199 36.6619 118.711 36.9297C119.167 37.1677 119.509 37.4764 119.753 37.8438L119.852 38.0049C120.096 38.455 120.223 38.9663 120.223 39.5508C120.223 40.0605 120.127 40.4883 119.936 40.8965L119.848 41.0703V41.0713C119.639 41.4646 119.321 41.7931 118.889 42.0566L118.698 42.165C118.599 42.2166 118.494 42.2613 118.383 42.3037L118.311 42.1602H115.83L116.037 42.5859H114.133V47.1709H113.149V36.5146H116.661ZM114.127 42.002H116.546C117.386 42.002 118.078 41.7938 118.536 41.3125C118.973 40.8529 119.188 40.2696 119.188 39.582C119.188 38.9001 118.983 38.312 118.551 37.873C118.102 37.4163 117.401 37.2256 116.546 37.2256H114.127V42.002Z" fill="#C5C5C5" stroke="#C5C5C5" stroke-width="0.635052"></path><path d="M127.953 36.5146V47.1836H126.974V36.5146H127.953Z" fill="#C5C5C5" stroke="#C5C5C5" stroke-width="0.635052"></path><path d="M139.625 36.5146L143.545 47.1836H142.497L141.734 45.0244H142.472L142.325 44.6025L141.874 43.3125L141.8 43.1006H141.055L139.263 38.0283L138.965 37.1836L138.665 38.0283L136.862 43.1006H136.033L135.959 43.3125L135.508 44.6025L135.36 45.0244H136.178L135.412 47.1836H134.389L138.309 36.5146H139.625ZM141.348 43.7354L141.578 44.3896H141.51L141.279 43.7354H141.348ZM140.606 43.7354L140.837 44.3896H137.079L137.311 43.7354H140.606ZM136.636 43.7354L136.404 44.3896H136.255L136.484 43.7354H136.636Z" fill="#C5C5C5" stroke="#C5C5C5" stroke-width="0.635052"></path><path d="M175.947 27.5184V0H179.994V27.5184H175.947Z" fill="#FAFAFA"></path><path d="M163.06 28.0647C161.092 28.0647 159.377 27.6594 157.909 26.8488C156.44 26.0089 155.289 24.8459 154.449 23.3481C153.639 21.8268 153.233 20.0705 153.233 18.0793V17.6094C153.233 15.5889 153.639 13.8385 154.449 12.3407C155.26 10.8194 156.388 9.65643 157.833 8.83998C159.301 8.00004 160.993 7.58301 162.902 7.58301C164.81 7.58301 166.385 8.00004 167.777 8.83998C169.192 9.65056 170.291 10.7901 171.078 12.2585C171.865 13.7269 172.258 15.442 172.258 17.4097V18.9428H157.363C157.415 20.6462 157.979 22.0089 159.054 23.0309C160.153 24.0294 161.515 24.5228 163.142 24.5228C164.664 24.5228 165.803 24.1821 166.561 23.5008C167.348 22.8194 167.947 22.0323 168.37 21.1395L171.712 22.8664C171.348 23.6006 170.808 24.376 170.103 25.1865C169.421 25.9971 168.517 26.6785 167.389 27.2306C166.261 27.7827 164.822 28.0588 163.066 28.0588L163.06 28.0647ZM157.398 15.8415H168.129C168.023 14.373 167.501 13.2335 166.555 12.4229C165.609 11.583 164.382 11.166 162.86 11.166C161.339 11.166 160.094 11.583 159.125 12.4229C158.179 13.2335 157.603 14.373 157.392 15.8415H157.398Z" fill="#FAFAFA"></path><path d="M139.142 27.518L132.617 8.14062H136.899L142.05 24.5342H142.678L147.83 8.14062H152.112L145.586 27.518H139.137H139.142Z" fill="#FAFAFA"></path><path d="M122.461 28.0647C120.493 28.0647 118.778 27.6594 117.31 26.8488C115.841 26.0089 114.69 24.8459 113.85 23.3481C113.04 21.8268 112.634 20.0705 112.634 18.0793V17.6094C112.634 15.5889 113.04 13.8385 113.85 12.3407C114.661 10.8194 115.788 9.65643 117.233 8.83998C118.702 8.00004 120.393 7.58301 122.302 7.58301C124.211 7.58301 125.786 8.00004 127.178 8.83998C128.593 9.65056 129.692 10.7901 130.479 12.2585C131.266 13.7269 131.659 15.442 131.659 17.4097V18.9428H116.763C116.816 20.6462 117.38 22.0089 118.455 23.0309C119.554 24.0294 120.916 24.5228 122.543 24.5228C124.065 24.5228 125.204 24.1821 125.962 23.5008C126.749 22.8194 127.354 22.0323 127.771 21.1395L131.113 22.8664C130.749 23.6006 130.208 24.376 129.504 25.1865C128.822 25.9971 127.918 26.6785 126.79 27.2306C125.662 27.7827 124.223 28.0588 122.467 28.0588L122.461 28.0647ZM116.799 15.8415H127.53C127.424 14.373 126.902 13.2335 125.956 12.4229C125.01 11.583 123.783 11.166 122.261 11.166C120.74 11.166 119.495 11.583 118.526 12.4229C117.58 13.2335 117.004 14.373 116.799 15.8415Z" fill="#FAFAFA"></path><path d="M93.3333 27.5184V0H97.58V23.6652H110.825V27.5184H93.3333Z" fill="#FAFAFA"></path><path d="M74.8252 27.5416C73.6446 27.5181 72.7107 27.1481 72.0176 26.4315C71.348 25.709 71.0249 24.7634 71.0484 23.5827L71.2657 11.5181L65.9207 11.4183L65.9853 7.99978L71.3303 8.09963L71.4478 1.69141L75.4948 1.76776L75.3773 8.17599L81.1571 8.28171L81.0925 11.7002L75.3127 11.5945L75.1071 22.9543C75.0954 23.7413 75.4537 24.1407 76.1879 24.1525L80.2349 24.2289L80.1703 27.6474L74.8252 27.5475V27.5416Z" fill="#FAFAFA"></path><path d="M48.928 8.13477L53.1395 13.9086V21.5914L48.8516 27.518H44.0176L51.4067 17.7265L44.1762 8.13477H48.928Z" fill="#E72B39"></path><path d="M64.6168 27.518H59.7768L55.489 21.5856V13.9204L59.7005 8.13477H64.4934L57.2218 17.7265L64.6168 27.518Z" fill="#FAFAFA"></path><path d="M34.0382 28.0647C32.0705 28.0647 30.3553 27.6594 28.8869 26.8488C27.4185 26.0089 26.2672 24.8459 25.4273 23.3481C24.6167 21.8268 24.2114 20.0705 24.2114 18.0793V17.6094C24.2114 15.5889 24.6167 13.8385 25.4273 12.3407C26.2379 10.8194 27.3656 9.65643 28.8105 8.83998C30.279 8.00004 31.9706 7.58301 33.8796 7.58301C35.7885 7.58301 37.3627 8.00004 38.7547 8.83998C40.1703 9.65056 41.2687 10.7901 42.0558 12.2585C42.8428 13.7269 43.2364 15.442 43.2364 17.4097V18.9428H28.3406C28.3935 20.6462 28.9574 22.0089 30.0323 23.0309C31.1307 24.0294 32.4934 24.5228 34.1204 24.5228C35.6417 24.5228 36.7812 24.1821 37.5389 23.5008C38.326 22.8194 38.9251 22.0323 39.348 21.1395L42.6901 22.8664C42.326 23.6006 41.7856 24.376 41.0807 25.1865C40.3994 25.9971 39.4948 26.6785 38.3671 27.2306C37.2393 27.7827 35.8003 28.0588 34.044 28.0588L34.0382 28.0647ZM28.3818 15.8415H39.113C39.0073 14.373 38.4846 13.2335 37.5389 12.4229C36.5932 11.583 35.3656 11.166 33.8443 11.166C32.323 11.166 31.0778 11.583 30.1086 12.4229C29.163 13.2335 28.5873 14.373 28.3818 15.8415Z" fill="#FAFAFA"></path><path d="M0 27.5184V0H8.17621L15.6476 24.6872H16.2761V0H20.4816V27.5184H12.3054L4.83407 2.79001H4.20558V27.5125H0V27.5184Z" fill="#FAFAFA"></path><line x1="0.75" y1="42.25" x2="29.25" y2="42.25" stroke="#C5C5C5" stroke-width="1.5" stroke-linecap="round"></line><line x1="151.75" y1="42.25" x2="180.25" y2="42.25" stroke="#C5C5C5" stroke-width="1.5" stroke-linecap="round"></line></svg>