<svg xmlns="http://www.w3.org/2000/svg" width="482" height="220" viewBox="0 0 482 220" fill="none"><rect width="480" height="220" rx="10" transform="matrix(1 0 0.00680674 0.999977 0 0)" fill="#15181C"></rect><path d="M23.6038 33.8546L23.5173 21.1467H28.2829C29.2591 21.1467 30.0795 21.3287 30.7438 21.6927C31.4123 22.0567 31.9184 22.5573 32.2619 23.1943C32.6096 23.8272 32.7862 24.547 32.7916 25.3537C32.7972 26.1686 32.6304 26.8925 32.2914 27.5254C31.9524 28.1584 31.449 28.6568 30.7813 29.0209C30.1136 29.3807 29.2895 29.5607 28.3091 29.5607H25.1507L25.1378 27.6682H27.986C28.5568 27.6682 29.0236 27.5689 29.3863 27.3703C29.749 27.1718 30.016 26.8987 30.1874 26.5512C30.3629 26.2038 30.4492 25.8046 30.4461 25.3537C30.443 24.9028 30.3514 24.5057 30.1712 24.1623C29.9951 23.819 29.7223 23.5521 29.3528 23.3619C28.9875 23.1674 28.5173 23.0702 27.9423 23.0702H25.8325L25.9059 33.8546H23.6038ZM34.7499 33.8546L34.685 24.3236H36.863L36.8738 25.9121H36.9731C37.1431 25.3619 37.4381 24.9379 37.858 24.6401C38.282 24.3381 38.7671 24.1871 39.3131 24.1871C39.4372 24.1871 39.5758 24.1933 39.729 24.2057C39.8862 24.214 40.0167 24.2285 40.1202 24.2492L40.1343 26.3155C40.0389 26.2824 39.8877 26.2534 39.6807 26.2286C39.4778 26.1996 39.2812 26.1852 39.0909 26.1852C38.6814 26.1852 38.3138 26.2741 37.9882 26.452C37.6667 26.6257 37.414 26.8677 37.2299 27.178C37.0459 27.4882 36.9552 27.846 36.958 28.2514L36.9961 33.8546H34.7499ZM45.4442 34.0407C44.5134 34.0407 43.7054 33.836 43.02 33.4264C42.3346 33.0169 41.8012 32.444 41.4198 31.7076C41.0425 30.9713 40.8504 30.1109 40.8437 29.1263C40.837 28.1418 41.0173 27.2793 41.3846 26.5388C41.756 25.7984 42.2816 25.2234 42.9614 24.8138C43.6412 24.4043 44.4464 24.1995 45.3772 24.1995C46.308 24.1995 47.1161 24.4043 47.8014 24.8138C48.4868 25.2234 49.0181 25.7984 49.3955 26.5388C49.777 27.2793 49.9711 28.1418 49.9778 29.1263C49.9845 30.1109 49.8021 30.9713 49.4307 31.7076C49.0634 32.444 48.5398 33.0169 47.8601 33.4264C47.1803 33.836 46.375 34.0407 45.4442 34.0407ZM45.4444 32.2413C45.9491 32.2413 46.3701 32.1027 46.7074 31.8255C47.0447 31.5442 47.2945 31.1678 47.4567 30.6962C47.6231 30.2246 47.7044 29.6993 47.7004 29.1201C47.6965 28.5369 47.6081 28.0094 47.4352 27.5379C47.2665 27.0621 47.0116 26.6836 46.6705 26.4023C46.3294 26.121 45.9064 25.9804 45.4018 25.9804C44.8847 25.9804 44.4554 26.121 44.1139 26.4023C43.7766 26.6836 43.5248 27.0621 43.3584 27.5379C43.1962 28.0094 43.117 28.5369 43.121 29.1201C43.1249 29.6993 43.2113 30.2246 43.3799 30.6962C43.5528 31.1678 43.8097 31.5442 44.1509 31.8255C44.4961 32.1027 44.9273 32.2413 45.4444 32.2413ZM55.4546 34.0221C54.7058 34.0221 54.0344 33.8298 53.4402 33.4451C52.846 33.0603 52.3748 32.5019 52.0264 31.7697C51.6781 31.0375 51.5003 30.1481 51.4932 29.1015C51.486 28.0425 51.6537 27.149 51.9962 26.4209C52.3429 25.6887 52.8128 25.1365 53.4059 24.7642C53.9991 24.3878 54.6617 24.1995 55.3939 24.1995C55.9524 24.1995 56.4122 24.2947 56.7734 24.485C57.1346 24.6711 57.4216 24.8966 57.6344 25.1613C57.8471 25.4219 58.0122 25.6681 58.1296 25.8997H58.2227L58.1903 21.1467H60.4428L60.5293 33.8546H58.3203L58.31 32.353H58.1735C58.0593 32.5846 57.8934 32.8308 57.6759 33.0914C57.4584 33.3478 57.1703 33.5671 56.8117 33.7491C56.453 33.9311 56.0007 34.0221 55.4546 34.0221ZM56.0688 32.1792C56.5445 32.1792 56.949 32.051 57.2824 31.7945C57.6157 31.5339 57.8676 31.1719 58.0382 30.7086C58.2088 30.2453 58.292 29.7055 58.2878 29.0891C58.2836 28.4727 58.1931 27.937 58.0163 27.482C57.8436 27.027 57.5888 26.6733 57.252 26.4209C56.9193 26.1686 56.511 26.0424 56.027 26.0424C55.5265 26.0424 55.1095 26.1727 54.7762 26.4334C54.4429 26.694 54.193 27.0539 54.0265 27.513C53.8601 27.9722 53.7788 28.4976 53.7829 29.0891C53.7869 29.6848 53.8753 30.2164 54.0481 30.6838C54.225 31.1471 54.4819 31.5132 54.8188 31.7821C55.1599 32.0469 55.5765 32.1792 56.0688 32.1792ZM68.9706 29.8461L68.933 24.3236H71.1792L71.2441 33.8546H69.0661L69.0546 32.1606H68.9553C68.7438 32.6942 68.3931 33.1307 67.9031 33.4699C67.4173 33.8091 66.8165 33.9787 66.1009 33.9787C65.4762 33.9787 64.923 33.8401 64.4412 33.563C63.9636 33.2817 63.5885 32.8742 63.316 32.3406C63.0434 31.8028 62.9046 31.1533 62.8994 30.3922L62.8581 24.3236H65.1044L65.1433 30.0447C65.1474 30.6486 65.3161 31.1285 65.6495 31.4843C65.9829 31.84 66.4185 32.0179 66.9562 32.0179C67.2872 32.0179 67.6072 31.9372 67.9164 31.7759C68.2256 31.6146 68.4783 31.3746 68.6747 31.0561C68.8752 30.7334 68.9738 30.3301 68.9706 29.8461ZM78.2485 24.3236L78.2603 26.0611H72.7811L72.7693 24.3236H78.2485ZM74.1065 22.0402H76.3528L76.4137 30.9879C76.4157 31.2898 76.4628 31.5215 76.5549 31.6828C76.6511 31.84 76.776 31.9476 76.9294 32.0055C77.0829 32.0634 77.2527 32.0924 77.4389 32.0924C77.5795 32.0924 77.7077 32.082 77.8234 32.0613C77.9432 32.0406 78.0341 32.022 78.096 32.0055L78.4865 33.7615C78.3668 33.8029 78.1954 33.8484 77.9724 33.898C77.7535 33.9477 77.4848 33.9766 77.1663 33.9849C76.6038 34.0014 76.0965 33.9166 75.6443 33.7305C75.1921 33.5402 74.8323 33.2465 74.5648 32.8494C74.3015 32.4522 74.1699 31.9558 74.1699 31.3602L74.1065 22.0402ZM84.2484 34.0407C83.3176 34.0407 82.5095 33.836 81.8242 33.4264C81.1388 33.0169 80.6054 32.444 80.2239 31.7076C79.8466 30.9713 79.6546 30.1109 79.6479 29.1263C79.6412 28.1418 79.8215 27.2793 80.1887 26.5388C80.5601 25.7984 81.0857 25.2234 81.7655 24.8138C82.4453 24.4043 83.2506 24.1995 84.1814 24.1995C85.1121 24.1995 85.9202 24.4043 86.6056 24.8138C87.2909 25.2234 87.8223 25.7984 88.1996 26.5388C88.5811 27.2793 88.7752 28.1418 88.7819 29.1263C88.7886 30.1109 88.6063 30.9713 88.2348 31.7076C87.8675 32.444 87.344 33.0169 86.6642 33.4264C85.9844 33.836 85.1791 34.0407 84.2484 34.0407ZM84.2485 32.2413C84.7532 32.2413 85.1742 32.1027 85.5115 31.8255C85.8488 31.5442 86.0986 31.1678 86.2609 30.6962C86.4273 30.2246 86.5085 29.6993 86.5046 29.1201C86.5006 28.5369 86.4122 28.0094 86.2394 27.5379C86.0707 27.0621 85.8158 26.6836 85.4746 26.4023C85.1335 26.121 84.7106 25.9804 84.2059 25.9804C83.6888 25.9804 83.2595 26.121 82.9181 26.4023C82.5808 26.6836 82.329 27.0621 82.1626 27.5379C82.0003 28.0094 81.9212 28.5369 81.9251 29.1201C81.9291 29.6993 82.0154 30.2246 82.1841 30.6962C82.3569 31.1678 82.6139 31.5442 82.955 31.8255C83.3002 32.1027 83.7314 32.2413 84.2485 32.2413ZM98.206 26.8429L96.1598 27.0663C96.1005 26.8594 95.9978 26.665 95.8518 26.483C95.7099 26.301 95.5186 26.1541 95.2779 26.0424C95.0372 25.9307 94.7431 25.8749 94.3956 25.8749C93.9282 25.8749 93.5359 25.9762 93.2187 26.1789C92.9057 26.3816 92.7524 26.6443 92.7587 26.967C92.7565 27.2441 92.8593 27.4696 93.0674 27.6433C93.2795 27.8171 93.628 27.9598 94.1128 28.0715L95.7409 28.419C96.644 28.6134 97.3163 28.9216 97.7577 29.3435C98.2032 29.7655 98.4303 30.3177 98.4391 31.0003C98.439 31.6001 98.2668 32.1296 97.9225 32.5888C97.5822 33.0438 97.1068 33.3996 96.4963 33.656C95.8858 33.9125 95.1834 34.0407 94.3892 34.0407C93.2226 34.0407 92.2819 33.7967 91.567 33.3085C90.8522 32.8163 90.4235 32.1317 90.281 31.2547L92.47 31.0437C92.5722 31.4739 92.7854 31.7986 93.1096 32.0179C93.4337 32.2371 93.8543 32.3468 94.3714 32.3468C94.9051 32.3468 95.3325 32.2371 95.6537 32.0179C95.979 31.7986 96.1406 31.5277 96.1384 31.205C96.1365 30.932 96.0295 30.7066 95.8173 30.5287C95.6092 30.3508 95.2856 30.2143 94.8465 30.1192L93.2184 29.7779C92.3029 29.5876 91.6243 29.267 91.1828 28.8161C90.7412 28.3611 90.5201 27.7861 90.5195 27.0911C90.5113 26.5037 90.6671 25.9949 90.9869 25.5646C91.3107 25.1303 91.7614 24.7952 92.339 24.5594C92.9206 24.3195 93.592 24.1995 94.3532 24.1995C95.4702 24.1995 96.3508 24.4374 96.9953 24.9131C97.6439 25.3888 98.0474 26.0321 98.206 26.8429ZM115.101 21.1467L115.188 33.8546H113.14L107.093 25.1985H106.988L107.047 33.8546H104.744L104.658 21.1467H106.718L112.759 29.8089H112.87L112.811 21.1467H115.101ZM121.818 34.0407C120.862 34.0407 120.035 33.8422 119.338 33.4451C118.644 33.0438 118.109 32.4771 117.731 31.7449C117.354 31.0085 117.162 30.1419 117.155 29.145C117.149 28.1646 117.329 27.3041 117.696 26.5637C118.068 25.8191 118.589 25.2399 119.26 24.8262C119.932 24.4084 120.723 24.1995 121.633 24.1995C122.22 24.1995 122.775 24.2947 123.298 24.485C123.824 24.6711 124.29 24.9607 124.694 25.3537C125.102 25.7467 125.424 26.2472 125.659 26.8553C125.895 27.4593 126.016 28.179 126.022 29.0147L126.026 29.7034H118.214L118.204 28.1894H123.863C123.856 27.7592 123.76 27.3765 123.576 27.0414C123.391 26.7022 123.135 26.4354 122.807 26.241C122.483 26.0466 122.106 25.9494 121.676 25.9494C121.217 25.9494 120.814 26.0611 120.468 26.2844C120.122 26.5037 119.853 26.7932 119.661 27.1531C119.473 27.5089 119.379 27.8998 119.377 28.3259L119.386 29.6476C119.39 30.2019 119.495 30.6776 119.7 31.0747C119.905 31.4677 120.191 31.7697 120.556 31.9807C120.922 32.1875 121.349 32.2909 121.837 32.2909C122.164 32.2909 122.459 32.2454 122.723 32.1544C122.987 32.0593 123.216 31.9207 123.409 31.7387C123.602 31.5567 123.748 31.3312 123.845 31.0623L125.944 31.2981C125.815 31.8524 125.566 32.3364 125.197 32.7501C124.832 33.1596 124.362 33.4781 123.789 33.7057C123.215 33.929 122.558 34.0407 121.818 34.0407ZM129.522 24.3236L131.47 27.8419L133.4 24.3236H135.777L132.936 29.0891L135.891 33.8546H133.527L131.487 30.4232L129.512 33.8546H127.13L130.001 29.0891L127.139 24.3236H129.522ZM142.274 24.3236L142.285 26.0611H136.806L136.794 24.3236H142.274ZM138.132 22.0402H140.378L140.439 30.9879C140.441 31.2898 140.488 31.5215 140.58 31.6828C140.676 31.84 140.801 31.9476 140.955 32.0055C141.108 32.0634 141.278 32.0924 141.464 32.0924C141.605 32.0924 141.733 32.082 141.849 32.0613C141.968 32.0406 142.059 32.022 142.121 32.0055L142.512 33.7615C142.392 33.8029 142.221 33.8484 141.998 33.898C141.779 33.9477 141.51 33.9766 141.191 33.9849C140.629 34.0014 140.122 33.9166 139.669 33.7305C139.217 33.5402 138.857 33.2465 138.59 32.8494C138.327 32.4522 138.195 31.9558 138.195 31.3602L138.132 22.0402ZM148.651 33.8546L148.564 21.1467H150.866L150.94 31.9248H156.537L156.55 33.8546H148.651ZM162.67 34.0407C161.714 34.0407 160.887 33.8422 160.19 33.4451C159.496 33.0438 158.961 32.4771 158.583 31.7449C158.206 31.0085 158.014 30.1419 158.007 29.145C158 28.1646 158.181 27.3041 158.548 26.5637C158.919 25.8191 159.441 25.2399 160.112 24.8262C160.784 24.4084 161.575 24.1995 162.485 24.1995C163.072 24.1995 163.627 24.2947 164.15 24.485C164.676 24.6711 165.142 24.9607 165.545 25.3537C165.954 25.7467 166.275 26.2472 166.511 26.8553C166.747 27.4593 166.868 28.179 166.873 29.0147L166.878 29.7034L159.066 29.7034L159.056 28.1894H164.715C164.708 27.7592 164.612 27.3765 164.428 27.0414C164.243 26.7022 163.987 26.4354 163.659 26.241C163.335 26.0466 162.958 25.9494 162.528 25.9494C162.068 25.9494 161.666 26.0611 161.32 26.2844C160.974 26.5037 160.705 26.7932 160.513 27.1531C160.325 27.5089 160.23 27.8998 160.229 28.3259L160.238 29.6476C160.242 30.2019 160.347 30.6776 160.552 31.0747C160.757 31.4677 161.043 31.7697 161.408 31.9807C161.774 32.1875 162.2 32.2909 162.689 32.2909C163.015 32.2909 163.311 32.2454 163.575 32.1544C163.839 32.0593 164.068 31.9207 164.261 31.7387C164.454 31.5567 164.6 31.3312 164.697 31.0623L166.796 31.2981C166.667 31.8524 166.418 32.3364 166.049 32.7501C165.683 33.1596 165.214 33.4781 164.64 33.7057C164.067 33.929 163.41 34.0407 162.67 34.0407ZM176.982 24.3236L173.653 33.8546H171.171L167.712 24.3236H170.107L172.346 31.4036H172.445L174.593 24.3236H176.982ZM182.498 34.0407C181.543 34.0407 180.716 33.8422 180.018 33.4451C179.325 33.0438 178.789 32.4771 178.412 31.7449C178.035 31.0085 177.843 30.1419 177.836 29.145C177.829 28.1646 178.009 27.3041 178.377 26.5637C178.748 25.8191 179.27 25.2399 179.941 24.8262C180.612 24.4084 181.403 24.1995 182.313 24.1995C182.901 24.1995 183.456 24.2947 183.978 24.485C184.505 24.6711 184.97 24.9607 185.374 25.3537C185.782 25.7467 186.104 26.2472 186.34 26.8553C186.576 27.4593 186.696 28.179 186.702 29.0147L186.707 29.7034H178.894L178.884 28.1894H184.543C184.536 27.7592 184.441 27.3765 184.256 27.0414C184.072 26.7022 183.816 26.4354 183.488 26.241C183.164 26.0466 182.786 25.9494 182.356 25.9494C181.897 25.9494 181.494 26.0611 181.149 26.2844C180.803 26.5037 180.534 26.7932 180.342 27.1531C180.154 27.5089 180.059 27.8998 180.058 28.3259L180.067 29.6476C180.071 30.2019 180.175 30.6776 180.381 31.0747C180.586 31.4677 180.871 31.7697 181.237 31.9807C181.602 32.1875 182.029 32.2909 182.517 32.2909C182.844 32.2909 183.14 32.2454 183.404 32.1544C183.668 32.0593 183.896 31.9207 184.09 31.7387C184.283 31.5567 184.428 31.3312 184.526 31.0623L186.625 31.2981C186.496 31.8524 186.247 32.3364 185.877 32.7501C185.512 33.1596 185.043 33.4781 184.469 33.7057C183.896 33.929 183.239 34.0407 182.498 34.0407ZM190.795 21.1467L190.882 33.8546H188.635L188.549 21.1467L190.795 21.1467Z" fill="white"></path><path d="M93.9201 59.4918L93.9907 69.8669H92.5519L87.2264 62.2578H87.1301L87.1819 69.8669H85.6165L85.5459 59.4918H86.9948L92.3255 67.111H92.4217L92.3699 59.4918H93.9201ZM99.4314 70.0239C98.7019 70.0239 98.0642 69.8567 97.5181 69.5224C96.9721 69.188 96.5467 68.7203 96.2421 68.1191C95.9374 67.518 95.7823 66.8155 95.7768 66.0117C95.7713 65.2045 95.9168 64.4987 96.2133 63.8941C96.5098 63.2896 96.9287 62.8201 97.4702 62.4858C98.0117 62.1514 98.6472 61.9843 99.3767 61.9843C100.106 61.9843 100.744 62.1514 101.29 62.4858C101.836 62.8201 102.261 63.2896 102.566 63.8941C102.871 64.4987 103.026 65.2045 103.031 66.0117C103.037 66.8155 102.891 67.518 102.595 68.1191C102.298 68.7203 101.879 69.188 101.338 69.5224C100.796 69.8567 100.161 70.0239 99.4314 70.0239ZM99.4278 68.7524C99.9007 68.7524 100.292 68.6274 100.601 68.3775C100.91 68.1276 101.137 67.7949 101.283 67.3795C101.432 66.9641 101.505 66.5065 101.501 66.0066C101.498 65.5102 101.419 65.0542 101.264 64.6388C101.113 64.22 100.881 63.884 100.568 63.6307C100.256 63.3774 99.8632 63.2508 99.3904 63.2508C98.9142 63.2508 98.5199 63.3774 98.2075 63.6307C97.8985 63.884 97.6695 64.22 97.5203 64.6388C97.3746 65.0542 97.3034 65.5102 97.3067 66.0066C97.3101 66.5065 97.3876 66.9641 97.539 67.3795C97.6938 67.7949 97.9274 68.1276 98.2398 68.3775C98.5556 68.6274 98.9516 68.7524 99.4278 68.7524ZM104.748 69.8669L104.695 62.0856H106.149L106.158 63.3521H106.254C106.414 62.9232 106.676 62.5888 107.043 62.349C107.409 62.1058 107.849 61.9843 108.363 61.9843C108.883 61.9843 109.319 62.1058 109.672 62.349C110.028 62.5922 110.292 62.9265 110.464 63.3521H110.545C110.728 62.9367 111.021 62.6057 111.425 62.3591C111.829 62.1092 112.311 61.9843 112.871 61.9843C113.577 61.9843 114.155 62.2055 114.603 62.6479C115.056 63.0903 115.285 63.7573 115.291 64.6489L115.326 69.8669H113.812L113.777 64.7908C113.773 64.2639 113.627 63.8823 113.339 63.6459C113.05 63.4095 112.706 63.2913 112.308 63.2913C111.815 63.2913 111.432 63.4433 111.161 63.7472C110.889 64.0478 110.755 64.4345 110.758 64.9073L110.792 69.8669H109.283L109.247 64.6945C109.244 64.2724 109.11 63.933 108.845 63.6763C108.58 63.4196 108.236 63.2913 107.814 63.2913C107.527 63.2913 107.263 63.3673 107.02 63.5192C106.782 63.6678 106.589 63.8755 106.442 64.1424C106.299 64.4092 106.228 64.7182 106.231 65.0694L106.263 69.8669H104.748ZM120.711 70.0239C119.945 70.0239 119.283 69.8601 118.727 69.5325C118.174 69.2015 117.746 68.7372 117.441 68.1394C117.14 67.5382 116.986 66.8341 116.981 66.0269C116.975 65.2298 117.119 64.5274 117.412 63.9195C117.709 63.3115 118.124 62.837 118.659 62.4959C119.197 62.1548 119.828 61.9843 120.55 61.9843C120.989 61.9843 121.415 62.0569 121.828 62.2021C122.241 62.3473 122.613 62.5753 122.943 62.886C123.272 63.1967 123.533 63.6003 123.726 64.0968C123.918 64.5898 124.017 65.1893 124.022 65.8952L124.025 66.4322H117.84L117.832 65.2974H122.533C122.531 64.8989 122.447 64.5459 122.283 64.2386C122.119 63.9279 121.889 63.683 121.594 63.504C121.302 63.3251 120.961 63.2356 120.569 63.2356C120.143 63.2356 119.773 63.3402 119.457 63.5496C119.144 63.7557 118.903 64.0258 118.733 64.3602C118.566 64.6912 118.484 65.0508 118.487 65.4392L118.493 66.3258C118.496 66.8459 118.59 67.2883 118.775 67.653C118.963 68.0178 119.224 68.2964 119.556 68.4889C119.888 68.6781 120.276 68.7726 120.718 68.7726C121.005 68.7726 121.267 68.7321 121.502 68.651C121.738 68.5666 121.942 68.4416 122.113 68.2762C122.284 68.1107 122.414 67.9063 122.504 67.6632L123.939 67.9215C123.827 68.3437 123.624 68.7135 123.329 69.031C123.037 69.3451 122.669 69.5899 122.224 69.7655C121.783 69.9378 121.279 70.0239 120.711 70.0239Z" fill="#87888C"></path><path d="M223.998 69.8669L223.927 59.4918H227.626C228.433 59.4918 229.103 59.6387 229.635 59.9326C230.167 60.2264 230.567 60.6283 230.834 61.1383C231.1 61.6448 231.236 62.2156 231.24 62.8505C231.245 63.4888 231.115 64.063 230.852 64.573C230.592 65.0796 230.196 65.4815 229.665 65.7787C229.136 66.0725 228.47 66.2194 227.666 66.2194H225.123L225.114 64.8921H227.516C228.026 64.8921 228.439 64.8043 228.755 64.6287C229.071 64.4497 229.303 64.2065 229.449 63.8992C229.596 63.5919 229.668 63.2423 229.665 62.8505C229.662 62.4588 229.586 62.1109 229.435 61.807C229.284 61.503 229.048 61.2649 228.726 61.0927C228.407 60.9204 227.988 60.8343 227.468 60.8343H225.502L225.564 69.8669H223.998ZM236.183 70.0239C235.454 70.0239 234.816 69.8567 234.27 69.5224C233.724 69.188 233.298 68.7203 232.994 68.1191C232.689 67.518 232.534 66.8155 232.528 66.0117C232.523 65.2045 232.668 64.4987 232.965 63.8941C233.261 63.2896 233.68 62.8201 234.222 62.4858C234.763 62.1514 235.399 61.9843 236.128 61.9843C236.858 61.9843 237.496 62.1514 238.042 62.4858C238.588 62.8201 239.013 63.2896 239.318 63.8941C239.622 64.4987 239.778 65.2045 239.783 66.0117C239.788 66.8155 239.643 67.518 239.346 68.1191C239.05 68.7203 238.631 69.188 238.09 69.5224C237.548 69.8567 236.913 70.0239 236.183 70.0239ZM236.179 68.7524C236.652 68.7524 237.043 68.6274 237.352 68.3775C237.661 68.1276 237.889 67.7949 238.034 67.3795C238.184 66.9641 238.256 66.5065 238.253 66.0066C238.25 65.5102 238.171 65.0542 238.016 64.6388C237.864 64.22 237.632 63.884 237.32 63.6307C237.007 63.3774 236.615 63.2508 236.142 63.2508C235.666 63.2508 235.271 63.3774 234.959 63.6307C234.65 63.884 234.421 64.22 234.272 64.6388C234.126 65.0542 234.055 65.5102 234.058 66.0066C234.062 66.5065 234.139 66.9641 234.291 67.3795C234.445 67.7949 234.679 68.1276 234.991 68.3775C235.307 68.6274 235.703 68.7524 236.179 68.7524ZM241.52 72.7848L241.447 62.0856H242.926L242.935 63.347H243.062C243.148 63.1849 243.274 62.9975 243.438 62.7847C243.602 62.5719 243.83 62.3862 244.123 62.2274C244.416 62.0653 244.803 61.9843 245.286 61.9843C245.915 61.9843 246.476 62.143 246.972 62.4605C247.467 62.7779 247.857 63.2356 248.141 63.8333C248.429 64.4311 248.576 65.1505 248.581 65.9914C248.587 66.8324 248.452 67.5534 248.176 68.1546C247.899 68.7524 247.517 69.2134 247.03 69.5376C246.542 69.8584 245.985 70.0188 245.356 70.0188C244.884 70.0188 244.496 69.9395 244.195 69.7807C243.896 69.622 243.662 69.4363 243.492 69.2235C243.321 69.0107 243.19 68.8216 243.098 68.6561H243.007L243.035 72.7848H241.52ZM242.958 65.9762C242.962 66.5233 243.044 67.0029 243.206 67.415C243.367 67.827 243.599 68.1495 243.901 68.3825C244.204 68.6122 244.572 68.727 245.008 68.727C245.461 68.727 245.838 68.6071 246.14 68.3673C246.443 68.1242 246.67 67.7949 246.823 67.3795C246.979 66.9641 247.055 66.4963 247.051 65.9762C247.048 65.4629 246.967 65.0019 246.809 64.5932C246.654 64.1846 246.422 63.862 246.113 63.6256C245.808 63.3892 245.427 63.271 244.971 63.271C244.532 63.271 244.161 63.3842 243.859 63.6104C243.56 63.8367 243.334 64.1525 243.181 64.5578C243.029 64.963 242.954 65.4359 242.958 65.9762ZM255.212 66.6399L255.181 62.0856H256.701L256.754 69.8669H255.265L255.255 68.5193H255.174C254.998 68.9347 254.713 69.2809 254.32 69.5578C253.93 69.8314 253.443 69.9682 252.859 69.9682C252.359 69.9682 251.916 69.8584 251.529 69.6389C251.146 69.416 250.843 69.0867 250.621 68.651C250.402 68.2154 250.29 67.6767 250.286 67.035L250.252 62.0856H251.767L251.799 66.8526C251.803 67.3829 251.952 67.805 252.248 68.1191C252.544 68.4332 252.927 68.5902 253.397 68.5902C253.68 68.5902 253.962 68.5193 254.241 68.3775C254.524 68.2356 254.757 68.0212 254.941 67.7341C255.128 67.447 255.219 67.0823 255.212 66.6399ZM260.233 59.4918L260.304 69.8669H258.789L258.719 59.4918L260.233 59.4918ZM264.607 70.0391C264.114 70.0391 263.668 69.9479 263.268 69.7655C262.868 69.5798 262.551 69.3113 262.315 68.9601C262.083 68.6088 261.966 68.1782 261.962 67.6682C261.959 67.2292 262.041 66.8678 262.208 66.5841C262.375 66.3004 262.601 66.0759 262.887 65.9104C263.173 65.7449 263.493 65.6199 263.847 65.5355C264.201 65.4511 264.562 65.3869 264.93 65.343C265.396 65.2889 265.774 65.245 266.064 65.2113C266.354 65.1741 266.565 65.115 266.696 65.034C266.827 64.9529 266.892 64.8212 266.891 64.6388L266.891 64.6034C266.888 64.1609 266.76 63.8181 266.509 63.575C266.261 63.3318 265.892 63.2102 265.402 63.2102C264.892 63.2102 264.491 63.3234 264.199 63.5496C263.91 63.7725 263.71 64.0208 263.601 64.2943L262.175 63.9701C262.341 63.4973 262.585 63.1157 262.907 62.8252C263.232 62.5314 263.608 62.3186 264.032 62.1869C264.457 62.0518 264.904 61.9843 265.373 61.9843C265.684 61.9843 266.014 62.0214 266.362 62.0957C266.714 62.1666 267.042 62.2984 267.348 62.4909C267.656 62.6834 267.91 62.9586 268.108 63.3166C268.306 63.6712 268.407 64.1322 268.411 64.6996L268.446 69.8669H266.967L266.96 68.803H266.899C266.802 68.9989 266.657 69.1914 266.462 69.3805C266.268 69.5697 266.017 69.7267 265.711 69.8517C265.404 69.9766 265.036 70.0391 264.607 70.0391ZM264.929 68.8233C265.347 68.8233 265.705 68.7405 266.001 68.575C266.3 68.4096 266.527 68.1934 266.68 67.9266C266.837 67.6564 266.915 67.3677 266.913 67.0603L266.906 66.0573C266.852 66.1113 266.748 66.162 266.593 66.2093C266.441 66.2532 266.267 66.292 266.072 66.3258C265.876 66.3562 265.685 66.3849 265.5 66.4119C265.314 66.4355 265.159 66.4558 265.034 66.4727C264.741 66.5098 264.472 66.5723 264.23 66.6601C263.991 66.7479 263.799 66.8746 263.655 67.0401C263.514 67.2022 263.445 67.4183 263.447 67.6885C263.449 68.0634 263.59 68.3471 263.868 68.5396C264.146 68.7287 264.5 68.8233 264.929 68.8233ZM270.464 69.8669L270.411 62.0856H271.875L271.883 63.3217H271.965C272.104 62.9029 272.351 62.5736 272.708 62.3338C273.067 62.0907 273.475 61.9691 273.931 61.9691C274.026 61.9691 274.137 61.9724 274.266 61.9792C274.397 61.986 274.5 61.9944 274.575 62.0045L274.585 63.4534C274.524 63.4365 274.415 63.4179 274.26 63.3977C274.104 63.374 273.949 63.3622 273.794 63.3622C273.436 63.3622 273.117 63.4382 272.838 63.5902C272.562 63.7388 272.344 63.9465 272.183 64.2133C272.023 64.4767 271.944 64.7773 271.946 65.115L271.979 69.8669H270.464ZM275.939 69.8669L275.886 62.0856H277.401L277.454 69.8669H275.939ZM276.643 60.885C276.379 60.885 276.153 60.7971 275.962 60.6215C275.775 60.4425 275.681 60.2298 275.679 59.9832C275.678 59.7333 275.769 59.5205 275.954 59.3449C276.141 59.1659 276.367 59.0764 276.631 59.0764C276.894 59.0764 277.119 59.1659 277.306 59.3449C277.497 59.5205 277.593 59.7333 277.594 59.9832C277.596 60.2298 277.503 60.4425 277.315 60.6215C277.13 60.7971 276.906 60.885 276.643 60.885ZM282.406 70.0188C281.777 70.0188 281.216 69.8584 280.72 69.5376C280.229 69.2134 279.84 68.7524 279.556 68.1546C279.275 67.5534 279.132 66.8324 279.126 65.9914C279.12 65.1505 279.255 64.4311 279.532 63.8333C279.811 63.2356 280.197 62.7779 280.687 62.4605C281.178 62.143 281.736 61.9843 282.361 61.9843C282.844 61.9843 283.233 62.0653 283.528 62.2274C283.826 62.3862 284.057 62.5719 284.221 62.7847C284.388 62.9975 284.517 63.1849 284.61 63.347H284.701L284.675 59.4918H286.189L286.26 69.8669H284.781L284.772 68.6561H284.646C284.556 68.8216 284.425 69.0107 284.254 69.2235C284.087 69.4363 283.855 69.622 283.559 69.7807C283.263 69.9395 282.878 70.0188 282.406 70.0188ZM282.731 68.727C283.167 68.727 283.534 68.6122 283.833 68.3825C284.136 68.1495 284.363 67.827 284.516 67.415C284.672 67.0029 284.748 66.5233 284.744 65.9762C284.74 65.4359 284.659 64.963 284.501 64.5578C284.343 64.1525 284.113 63.8367 283.811 63.6104C283.509 63.3842 283.137 63.271 282.694 63.271C282.238 63.271 281.859 63.3892 281.557 63.6256C281.254 63.862 281.027 64.1846 280.874 64.5932C280.725 65.0019 280.652 65.4629 280.656 65.9762C280.659 66.4963 280.74 66.9641 280.898 67.3795C281.056 67.7949 281.288 68.1242 281.594 68.3673C281.903 68.6071 282.282 68.727 282.731 68.727ZM290.688 70.0391C290.194 70.0391 289.748 69.9479 289.348 69.7655C288.948 69.5798 288.631 69.3113 288.395 68.9601C288.163 68.6088 288.046 68.1782 288.042 67.6682C288.039 67.2292 288.121 66.8678 288.288 66.5841C288.455 66.3004 288.681 66.0759 288.967 65.9104C289.253 65.7449 289.573 65.6199 289.927 65.5355C290.281 65.4511 290.642 65.3869 291.01 65.343C291.476 65.2889 291.854 65.245 292.144 65.2113C292.434 65.1741 292.645 65.115 292.776 65.034C292.907 64.9529 292.972 64.8212 292.971 64.6388L292.971 64.6034C292.968 64.1609 292.84 63.8181 292.589 63.575C292.341 63.3318 291.972 63.2102 291.482 63.2102C290.972 63.2102 290.571 63.3234 290.279 63.5496C289.99 63.7725 289.79 64.0208 289.681 64.2943L288.255 63.9701C288.421 63.4973 288.665 63.1157 288.987 62.8252C289.312 62.5314 289.688 62.3186 290.112 62.1869C290.537 62.0518 290.984 61.9843 291.453 61.9843C291.764 61.9843 292.094 62.0214 292.442 62.0957C292.794 62.1666 293.122 62.2984 293.428 62.4909C293.736 62.6834 293.99 62.9586 294.188 63.3166C294.386 63.6712 294.487 64.1322 294.491 64.6996L294.526 69.8669H293.047L293.04 68.803H292.979C292.882 68.9989 292.737 69.1914 292.542 69.3805C292.348 69.5697 292.097 69.7267 291.791 69.8517C291.484 69.9766 291.116 70.0391 290.688 70.0391ZM291.009 68.8233C291.427 68.8233 291.785 68.7405 292.081 68.575C292.38 68.4096 292.607 68.1934 292.76 67.9266C292.917 67.6564 292.995 67.3677 292.993 67.0603L292.986 66.0573C292.932 66.1113 292.828 66.162 292.673 66.2093C292.521 66.2532 292.347 66.292 292.152 66.3258C291.956 66.3562 291.765 66.3849 291.58 66.4119C291.394 66.4355 291.239 66.4558 291.114 66.4727C290.821 66.5098 290.552 66.5723 290.31 66.6601C290.071 66.7479 289.879 66.8746 289.735 67.0401C289.594 67.2022 289.525 67.4183 289.527 67.6885C289.529 68.0634 289.67 68.3471 289.948 68.5396C290.226 68.7287 290.58 68.8233 291.009 68.8233ZM299.458 70.0188C298.83 70.0188 298.268 69.8584 297.773 69.5376C297.281 69.2134 296.893 68.7524 296.608 68.1546C296.327 67.5534 296.184 66.8324 296.178 65.9914C296.172 65.1505 296.308 64.4311 296.584 63.8333C296.864 63.2356 297.249 62.7779 297.74 62.4605C298.231 62.143 298.789 61.9843 299.413 61.9843C299.896 61.9843 300.285 62.0653 300.58 62.2274C300.879 62.3862 301.11 62.5719 301.273 62.7847C301.44 62.9975 301.57 63.1849 301.662 63.347H301.753L301.727 59.4918H303.242L303.312 69.8669H301.833L301.825 68.6561H301.698C301.608 68.8216 301.478 69.0107 301.307 69.2235C301.139 69.4363 300.908 69.622 300.611 69.7807C300.315 69.9395 299.931 70.0188 299.458 70.0188ZM299.784 68.727C300.219 68.727 300.587 68.6122 300.886 68.3825C301.188 68.1495 301.415 67.827 301.568 67.415C301.724 67.0029 301.8 66.5233 301.796 65.9762C301.793 65.4359 301.712 64.963 301.554 64.5578C301.396 64.1525 301.165 63.8367 300.863 63.6104C300.561 63.3842 300.189 63.271 299.746 63.271C299.29 63.271 298.911 63.3892 298.609 63.6256C298.307 63.862 298.079 64.1846 297.927 64.5932C297.777 65.0019 297.705 65.4629 297.708 65.9762C297.712 66.4963 297.792 66.9641 297.951 67.3795C298.109 67.7949 298.341 68.1242 298.646 68.3673C298.955 68.6071 299.334 68.727 299.784 68.727ZM308.829 70.0239C308.062 70.0239 307.401 69.8601 306.845 69.5325C306.292 69.2015 305.863 68.7372 305.559 68.1394C305.257 67.5382 305.104 66.8341 305.098 66.0269C305.093 65.2298 305.237 64.5274 305.53 63.9195C305.826 63.3115 306.242 62.837 306.777 62.4959C307.315 62.1548 307.945 61.9843 308.668 61.9843C309.107 61.9843 309.533 62.0569 309.946 62.2021C310.359 62.3473 310.73 62.5753 311.06 62.886C311.39 63.1967 311.651 63.6003 311.843 64.0968C312.036 64.5898 312.135 65.1893 312.139 65.8952L312.143 66.4322H305.957L305.95 65.2974H310.651C310.648 64.8989 310.565 64.5459 310.401 64.2386C310.236 63.9279 310.007 63.683 309.712 63.504C309.42 63.3251 309.078 63.2356 308.687 63.2356C308.261 63.2356 307.89 63.3402 307.574 63.5496C307.261 63.7557 307.02 64.0258 306.85 64.3602C306.683 64.6912 306.602 65.0508 306.604 65.4392L306.61 66.3258C306.614 66.8459 306.708 67.2883 306.893 67.653C307.081 68.0178 307.341 68.2964 307.674 68.4889C308.006 68.6781 308.393 68.7726 308.836 68.7726C309.123 68.7726 309.384 68.7321 309.62 68.651C309.856 68.5666 310.059 68.4416 310.23 68.2762C310.402 68.1107 310.532 67.9063 310.621 67.6632L312.057 67.9215C311.945 68.3437 311.741 68.7135 311.446 69.031C311.155 69.3451 310.787 69.5899 310.342 69.7655C309.901 69.9378 309.396 70.0239 308.829 70.0239Z" fill="#87888C"></path><path d="M392.555 59.4918L395.5 67.9418H395.616L398.446 59.4918H400.138L396.475 69.8669H394.667L390.862 59.4918H392.555ZM404.16 70.0239C403.394 70.0239 402.732 69.8601 402.176 69.5325C401.623 69.2015 401.195 68.7372 400.89 68.1394C400.589 67.5382 400.435 66.8341 400.43 66.0269C400.424 65.2298 400.568 64.5274 400.861 63.9195C401.158 63.3115 401.573 62.837 402.108 62.4959C402.646 62.1548 403.276 61.9843 403.999 61.9843C404.438 61.9843 404.864 62.0569 405.277 62.2021C405.69 62.3473 406.062 62.5753 406.391 62.886C406.721 63.1967 406.982 63.6003 407.175 64.0968C407.367 64.5898 407.466 65.1893 407.471 65.8952L407.474 66.4322H401.289L401.281 65.2974H405.982C405.98 64.8989 405.896 64.5459 405.732 64.2386C405.568 63.9279 405.338 63.683 405.043 63.504C404.751 63.3251 404.41 63.2356 404.018 63.2356C403.592 63.2356 403.222 63.3402 402.905 63.5496C402.593 63.7557 402.351 64.0258 402.181 64.3602C402.015 64.6912 401.933 65.0508 401.936 65.4392L401.942 66.3258C401.945 66.8459 402.039 67.2883 402.224 67.653C402.412 68.0178 402.673 68.2964 403.005 68.4889C403.337 68.6781 403.725 68.7726 404.167 68.7726C404.454 68.7726 404.716 68.7321 404.951 68.651C405.187 68.5666 405.391 68.4416 405.562 68.2762C405.733 68.1107 405.863 67.9063 405.953 67.6632L407.388 67.9215C407.276 68.3437 407.073 68.7135 406.778 69.031C406.486 69.3451 406.118 69.5899 405.673 69.7655C405.232 69.9378 404.728 70.0239 404.16 70.0239ZM410.662 65.2467L410.693 69.8669H409.178L409.125 62.0856H410.579L410.588 63.3521H410.684C410.861 62.94 411.139 62.6091 411.519 62.3591C411.902 62.1092 412.386 61.9843 412.97 61.9843C413.5 61.9843 413.965 62.0957 414.365 62.3186C414.765 62.5381 415.077 62.8657 415.299 63.3014C415.522 63.7371 415.635 64.2758 415.639 64.9174L415.673 69.8669H414.158L414.126 65.0998C414.122 64.5358 413.972 64.0951 413.676 63.7776C413.38 63.4568 412.975 63.2963 412.462 63.2963C412.111 63.2963 411.799 63.3723 411.526 63.5243C411.257 63.6763 411.044 63.8992 410.888 64.193C410.734 64.4835 410.659 64.8347 410.662 65.2467ZM420.619 70.0188C419.99 70.0188 419.429 69.8584 418.933 69.5376C418.442 69.2134 418.053 68.7524 417.769 68.1546C417.488 67.5534 417.345 66.8324 417.339 65.9914C417.333 65.1505 417.468 64.4311 417.745 63.8333C418.024 63.2356 418.41 62.7779 418.9 62.4605C419.391 62.143 419.949 61.9843 420.574 61.9843C421.057 61.9843 421.446 62.0653 421.741 62.2274C422.039 62.3862 422.27 62.5719 422.434 62.7847C422.601 62.9975 422.73 63.1849 422.823 63.347H422.914L422.888 59.4918H424.402L424.473 69.8669H422.994L422.985 68.6561H422.859C422.769 68.8216 422.638 69.0107 422.467 69.2235C422.3 69.4363 422.068 69.622 421.772 69.7807C421.476 69.9395 421.091 70.0188 420.619 70.0188ZM420.944 68.727C421.38 68.727 421.747 68.6122 422.046 68.3825C422.349 68.1495 422.576 67.827 422.729 67.415C422.885 67.0029 422.961 66.5233 422.957 65.9762C422.953 65.4359 422.872 64.963 422.714 64.5578C422.556 64.1525 422.326 63.8367 422.024 63.6104C421.722 63.3842 421.35 63.271 420.907 63.271C420.451 63.271 420.072 63.3892 419.77 63.6256C419.467 63.862 419.24 64.1846 419.087 64.5932C418.938 65.0019 418.865 65.4629 418.869 65.9762C418.872 66.4963 418.953 66.9641 419.111 67.3795C419.269 67.7949 419.501 68.1242 419.807 68.3673C420.116 68.6071 420.495 68.727 420.944 68.727ZM428.901 70.0391C428.407 70.0391 427.961 69.9479 427.561 69.7655C427.161 69.5798 426.844 69.3113 426.608 68.9601C426.376 68.6088 426.259 68.1782 426.255 67.6682C426.252 67.2292 426.334 66.8678 426.501 66.5841C426.668 66.3004 426.894 66.0759 427.18 65.9104C427.466 65.7449 427.786 65.6199 428.14 65.5355C428.494 65.4511 428.855 65.3869 429.223 65.343C429.689 65.2889 430.067 65.245 430.357 65.2113C430.647 65.1741 430.858 65.115 430.989 65.034C431.12 64.9529 431.185 64.8212 431.184 64.6388L431.184 64.6034C431.181 64.1609 431.053 63.8181 430.802 63.575C430.554 63.3318 430.185 63.2102 429.695 63.2102C429.185 63.2102 428.784 63.3234 428.492 63.5496C428.203 63.7725 428.003 64.0208 427.894 64.2943L426.468 63.9701C426.634 63.4973 426.878 63.1157 427.2 62.8252C427.525 62.5314 427.901 62.3186 428.325 62.1869C428.75 62.0518 429.197 61.9843 429.666 61.9843C429.977 61.9843 430.307 62.0214 430.655 62.0957C431.007 62.1666 431.335 62.2984 431.641 62.4909C431.949 62.6834 432.203 62.9586 432.401 63.3166C432.599 63.6712 432.7 64.1322 432.704 64.6996L432.739 69.8669H431.26L431.253 68.803H431.192C431.095 68.9989 430.95 69.1914 430.755 69.3805C430.561 69.5697 430.31 69.7267 430.004 69.8517C429.697 69.9766 429.329 70.0391 428.901 70.0391ZM429.222 68.8233C429.64 68.8233 429.998 68.7405 430.294 68.575C430.593 68.4096 430.82 68.1934 430.973 67.9266C431.13 67.6564 431.208 67.3677 431.206 67.0603L431.199 66.0573C431.145 66.1113 431.041 66.162 430.886 66.2093C430.734 66.2532 430.56 66.292 430.365 66.3258C430.169 66.3562 429.978 66.3849 429.793 66.4119C429.607 66.4355 429.452 66.4558 429.327 66.4727C429.034 66.5098 428.765 66.5723 428.523 66.6601C428.284 66.7479 428.092 66.8746 427.948 67.0401C427.807 67.2022 427.738 67.4183 427.74 67.6885C427.742 68.0634 427.883 68.3471 428.161 68.5396C428.439 68.7287 428.793 68.8233 429.222 68.8233ZM440.548 63.9853L439.177 64.2285C439.118 64.0529 439.026 63.8857 438.9 63.7269C438.777 63.5682 438.611 63.4382 438.401 63.3369C438.191 63.2356 437.928 63.1849 437.614 63.1849C437.185 63.1849 436.828 63.2811 436.542 63.4737C436.257 63.6628 436.115 63.9076 436.117 64.2082C436.118 64.4683 436.216 64.6777 436.41 64.8364C436.603 64.9951 436.915 65.1251 437.345 65.2265L438.583 65.5102C439.3 65.6756 439.835 65.9306 440.189 66.2751C440.542 66.6196 440.721 67.0671 440.725 67.6176C440.728 68.0837 440.596 68.4991 440.328 68.8638C440.064 69.2252 439.692 69.5089 439.214 69.7149C438.739 69.9209 438.188 70.0239 437.56 70.0239C436.688 70.0239 435.976 69.8382 435.423 69.4667C434.87 69.0918 434.529 68.5599 434.399 67.8709L435.861 67.648C435.955 68.0296 436.145 68.3184 436.43 68.5143C436.715 68.7068 437.085 68.803 437.541 68.803C438.038 68.803 438.434 68.7 438.73 68.494C439.025 68.2846 439.172 68.0296 439.17 67.729C439.168 67.4859 439.076 67.2815 438.892 67.1161C438.712 66.9506 438.436 66.8256 438.064 66.7412L436.745 66.4524C436.018 66.2869 435.479 66.0235 435.129 65.6621C434.782 65.3008 434.606 64.8431 434.602 64.2893C434.599 63.83 434.725 63.4281 434.979 63.0836C435.234 62.7391 435.586 62.4706 436.038 62.2781C436.489 62.0822 437.007 61.9843 437.591 61.9843C438.432 61.9843 439.095 62.1666 439.581 62.5314C440.066 62.8928 440.388 63.3774 440.548 63.9853Z" fill="#87888C"></path><line y1="-0.274346" x2="456.872" y2="-0.274346" transform="matrix(1 0 0.0064146 0.999977 11.7468 84.3984)" stroke="white" stroke-opacity="0.06" stroke-width="0.548693"></line><path d="M33.318 69.8669L34.9496 59.4918H36.1654L34.5339 69.8669H33.318ZM28.6029 67.0907L28.7922 65.8749H36.6547L36.4654 67.0907H28.6029ZM29.6705 69.8669L31.302 59.4918H32.5179L30.8863 69.8669H29.6705ZM29.1812 63.4838L29.3705 62.268L37.233 62.268L37.0437 63.4838H29.1812Z" fill="#87888C"></path><line y1="-0.274346" x2="456.872" y2="-0.274346" transform="matrix(1 0 0.0064146 0.999977 11.7468 125.001)" stroke="white" stroke-opacity="0.06" stroke-width="0.548693"></line><path d="M85.3594 106.469L85.3051 98.4882H88.1499C88.7708 98.4882 89.286 98.6012 89.6954 98.8272C90.1048 99.0533 90.4122 99.3624 90.6175 99.7547C90.8228 100.144 90.9271 100.583 90.9304 101.072C90.9338 101.563 90.8342 102.004 90.6316 102.397C90.4316 102.786 90.1271 103.096 89.7182 103.324C89.3119 103.55 88.7995 103.663 88.1812 103.663H86.2249L86.218 102.642H88.0652C88.4575 102.642 88.7752 102.575 89.0185 102.44C89.2618 102.302 89.4398 102.115 89.5525 101.878C89.6652 101.642 89.7205 101.373 89.7185 101.072C89.7164 100.77 89.6574 100.503 89.5415 100.269C89.4256 100.035 89.2438 99.8521 88.9961 99.7196C88.751 99.5871 88.4284 99.5209 88.0283 99.5209H86.5163L86.5636 106.469H85.3594ZM92.2853 106.469L92.2446 100.483L93.3708 100.483L93.3773 101.434H93.4396C93.5465 101.112 93.7371 100.859 94.0112 100.674C94.2879 100.487 94.6016 100.394 94.9524 100.394C95.0251 100.394 95.1108 100.396 95.2096 100.402C95.311 100.407 95.3902 100.413 95.4475 100.421L95.455 101.536C95.4082 101.523 95.325 101.508 95.2053 101.493C95.0857 101.475 94.9661 101.465 94.8466 101.465C94.5712 101.465 94.3261 101.524 94.1113 101.641C93.899 101.755 93.7313 101.915 93.608 102.12C93.4846 102.323 93.4239 102.554 93.4256 102.814L93.4505 106.469H92.2853ZM98.8048 106.59C98.2436 106.59 97.753 106.461 97.333 106.204C96.913 105.947 96.5858 105.587 96.3514 105.125C96.117 104.662 95.9978 104.122 95.9935 103.503C95.9893 102.883 96.1012 102.34 96.3293 101.875C96.5573 101.41 96.8796 101.048 97.2962 100.791C97.7127 100.534 98.2015 100.405 98.7627 100.405C99.3239 100.405 99.8144 100.534 100.234 100.791C100.654 101.048 100.982 101.41 101.216 101.875C101.45 102.34 101.57 102.883 101.574 103.503C101.578 104.122 101.466 104.662 101.238 105.125C101.01 105.587 100.688 105.947 100.271 106.204C99.8548 106.461 99.3659 106.59 98.8048 106.59ZM98.802 105.612C99.1657 105.612 99.4665 105.516 99.7042 105.323C99.9419 105.131 100.117 104.875 100.229 104.556C100.344 104.236 100.4 103.884 100.397 103.5C100.394 103.118 100.334 102.767 100.215 102.447C100.098 102.125 99.9196 101.867 99.6793 101.672C99.439 101.477 99.1369 101.38 98.7732 101.38C98.4069 101.38 98.1036 101.477 97.8633 101.672C97.6256 101.867 97.4494 102.125 97.3347 102.447C97.2226 102.767 97.1678 103.118 97.1704 103.5C97.173 103.884 97.2326 104.236 97.3491 104.556C97.4681 104.875 97.6478 105.131 97.8882 105.323C98.1311 105.516 98.4357 105.612 98.802 105.612ZM105.136 106.586C104.653 106.586 104.221 106.463 103.84 106.216C103.462 105.966 103.163 105.612 102.944 105.152C102.728 104.689 102.618 104.135 102.613 103.488C102.609 102.841 102.713 102.288 102.926 101.828C103.141 101.368 103.437 101.016 103.815 100.772C104.192 100.528 104.621 100.405 105.102 100.405C105.474 100.405 105.773 100.468 106 100.593C106.229 100.715 106.407 100.858 106.533 101.021C106.661 101.185 106.761 101.329 106.832 101.454H106.902L106.882 98.4882H108.047L108.101 106.469H106.963L106.957 105.538H106.859C106.79 105.665 106.69 105.81 106.558 105.974C106.43 106.138 106.251 106.281 106.024 106.403C105.796 106.525 105.5 106.586 105.136 106.586ZM105.387 105.592C105.722 105.592 106.005 105.504 106.235 105.327C106.467 105.148 106.642 104.9 106.759 104.583C106.879 104.266 106.938 103.897 106.935 103.476C106.932 103.061 106.87 102.697 106.748 102.385C106.627 102.073 106.45 101.83 106.217 101.656C105.985 101.482 105.699 101.395 105.358 101.395C105.007 101.395 104.716 101.486 104.483 101.668C104.251 101.85 104.076 102.098 103.958 102.412C103.844 102.727 103.788 103.081 103.79 103.476C103.793 103.876 103.855 104.236 103.977 104.556C104.099 104.875 104.277 105.128 104.512 105.316C104.75 105.5 105.041 105.592 105.387 105.592ZM113.539 103.987L113.515 100.483H114.684L114.725 106.469H113.579L113.572 105.432H113.51C113.374 105.752 113.155 106.018 112.853 106.231C112.553 106.442 112.178 106.547 111.729 106.547C111.344 106.547 111.003 106.463 110.706 106.294C110.411 106.122 110.178 105.869 110.007 105.534C109.839 105.199 109.753 104.784 109.749 104.291L109.723 100.483H110.889L110.914 104.15C110.916 104.558 111.032 104.883 111.259 105.125C111.487 105.366 111.781 105.487 112.142 105.487C112.361 105.487 112.577 105.432 112.792 105.323C113.01 105.214 113.189 105.049 113.33 104.828C113.474 104.608 113.544 104.327 113.539 103.987ZM119.044 100.483L119.05 101.419H115.781L115.774 100.483H119.044ZM116.641 99.0494H117.807L117.845 104.712C117.847 104.938 117.882 105.108 117.95 105.222C118.018 105.334 118.106 105.41 118.213 105.452C118.322 105.491 118.44 105.51 118.568 105.51C118.661 105.51 118.743 105.504 118.813 105.491C118.883 105.478 118.938 105.468 118.977 105.46L119.194 106.422C119.126 106.448 119.03 106.474 118.906 106.5C118.781 106.529 118.625 106.544 118.438 106.547C118.132 106.552 117.846 106.498 117.58 106.383C117.314 106.269 117.099 106.092 116.933 105.853C116.768 105.614 116.684 105.314 116.682 104.953L116.641 99.0494ZM122.832 106.59C122.27 106.59 121.78 106.461 121.36 106.204C120.94 105.947 120.613 105.587 120.378 105.125C120.144 104.662 120.024 104.122 120.02 103.503C120.016 102.883 120.128 102.34 120.356 101.875C120.584 101.41 120.906 101.048 121.323 100.791C121.739 100.534 122.228 100.405 122.789 100.405C123.351 100.405 123.841 100.534 124.261 100.791C124.681 101.048 125.008 101.41 125.243 101.875C125.477 102.34 125.597 102.883 125.601 103.503C125.605 104.122 125.493 104.662 125.265 105.125C125.037 105.587 124.715 105.947 124.298 106.204C123.882 106.461 123.393 106.59 122.832 106.59ZM122.829 105.612C123.192 105.612 123.493 105.516 123.731 105.323C123.969 105.131 124.144 104.875 124.256 104.556C124.37 104.236 124.426 103.884 124.424 103.5C124.421 103.118 124.36 102.767 124.241 102.447C124.125 102.125 123.946 101.867 123.706 101.672C123.466 101.477 123.164 101.38 122.8 101.38C122.434 101.38 122.13 101.477 121.89 101.672C121.652 101.867 121.476 102.125 121.361 102.447C121.249 102.767 121.195 103.118 121.197 103.5C121.2 103.884 121.259 104.236 121.376 104.556C121.495 104.875 121.675 105.131 121.915 105.323C122.158 105.516 122.462 105.612 122.829 105.612ZM134.232 100.585C134.188 100.216 134.015 99.9301 133.712 99.7274C133.409 99.5222 133.029 99.4196 132.572 99.4196C132.245 99.4196 131.962 99.4715 131.723 99.5754C131.485 99.6768 131.3 99.817 131.169 99.9963C131.04 100.173 130.977 100.374 130.978 100.6C130.98 100.79 131.025 100.954 131.114 101.091C131.206 101.229 131.325 101.345 131.471 101.438C131.62 101.529 131.779 101.606 131.948 101.668C132.117 101.728 132.28 101.777 132.436 101.816L133.217 102.019C133.472 102.081 133.734 102.166 134.002 102.272C134.27 102.379 134.519 102.519 134.749 102.693C134.979 102.867 135.165 103.083 135.307 103.34C135.452 103.597 135.525 103.905 135.528 104.263C135.531 104.715 135.416 105.117 135.185 105.468C134.956 105.818 134.622 106.095 134.181 106.298C133.744 106.5 133.213 106.602 132.59 106.602C131.992 106.602 131.474 106.507 131.037 106.317C130.599 106.127 130.255 105.858 130.006 105.51C129.757 105.16 129.618 104.744 129.589 104.263H130.797C130.822 104.552 130.917 104.792 131.082 104.984C131.25 105.174 131.462 105.316 131.72 105.409C131.981 105.5 132.265 105.545 132.575 105.545C132.915 105.545 133.217 105.492 133.482 105.386C133.748 105.277 133.958 105.126 134.11 104.934C134.262 104.739 134.337 104.511 134.335 104.252C134.333 104.015 134.265 103.822 134.128 103.671C133.995 103.52 133.814 103.396 133.584 103.297C133.358 103.198 133.101 103.111 132.815 103.036L131.87 102.779C131.23 102.605 130.721 102.349 130.345 102.011C129.971 101.673 129.782 101.226 129.778 100.67C129.775 100.211 129.897 99.8092 130.144 99.4663C130.391 99.1234 130.727 98.8571 131.152 98.6675C131.577 98.4752 132.057 98.3791 132.592 98.3791C133.132 98.3791 133.61 98.4739 134.024 98.6636C134.441 98.8532 134.77 99.1143 135.012 99.4468C135.253 99.7768 135.38 100.156 135.393 100.585H134.232ZM139.469 106.59C138.879 106.59 138.37 106.464 137.942 106.212C137.517 105.957 137.187 105.6 136.953 105.14C136.721 104.678 136.603 104.136 136.599 103.515C136.595 102.902 136.705 102.362 136.931 101.894C137.159 101.426 137.479 101.061 137.89 100.799C138.304 100.537 138.789 100.405 139.345 100.405C139.682 100.405 140.01 100.461 140.328 100.573C140.646 100.685 140.931 100.86 141.185 101.099C141.439 101.338 141.639 101.649 141.787 102.03C141.936 102.41 142.011 102.871 142.015 103.414L142.018 103.827H137.26L137.254 102.954H140.87C140.868 102.647 140.804 102.376 140.678 102.14C140.551 101.901 140.375 101.712 140.148 101.575C139.923 101.437 139.66 101.368 139.359 101.368C139.032 101.368 138.746 101.449 138.503 101.61C138.263 101.768 138.077 101.976 137.946 102.233C137.818 102.488 137.755 102.764 137.757 103.063L137.762 103.745C137.765 104.145 137.837 104.485 137.979 104.766C138.124 105.047 138.324 105.261 138.58 105.409C138.835 105.555 139.133 105.627 139.474 105.627C139.695 105.627 139.896 105.596 140.077 105.534C140.259 105.469 140.415 105.373 140.547 105.245C140.678 105.118 140.779 104.961 140.847 104.774L141.952 104.973C141.866 105.297 141.709 105.582 141.482 105.826C141.258 106.068 140.974 106.256 140.632 106.391C140.293 106.524 139.905 106.59 139.469 106.59ZM145.851 106.59C145.272 106.59 144.772 106.459 144.352 106.196C143.934 105.931 143.612 105.566 143.386 105.101C143.159 104.636 143.044 104.104 143.04 103.503C143.036 102.896 143.146 102.359 143.372 101.894C143.597 101.426 143.917 101.061 144.331 100.799C144.745 100.537 145.233 100.405 145.797 100.405C146.252 100.405 146.658 100.49 147.015 100.659C147.372 100.825 147.66 101.059 147.881 101.36C148.104 101.662 148.237 102.014 148.281 102.416H147.147C147.083 102.136 146.939 101.894 146.714 101.691C146.492 101.489 146.195 101.387 145.823 101.387C145.499 101.387 145.215 101.473 144.972 101.645C144.731 101.814 144.544 102.055 144.411 102.369C144.278 102.681 144.213 103.05 144.216 103.476C144.219 103.913 144.288 104.289 144.423 104.606C144.557 104.923 144.746 105.169 144.989 105.343C145.234 105.517 145.522 105.604 145.852 105.604C146.073 105.604 146.273 105.564 146.451 105.483C146.633 105.4 146.784 105.282 146.905 105.128C147.028 104.975 147.114 104.791 147.162 104.575H148.296C148.257 104.962 148.134 105.308 147.925 105.612C147.717 105.916 147.437 106.155 147.084 106.329C146.735 106.503 146.324 106.59 145.851 106.59ZM149.555 106.469L149.514 100.483H150.641L150.647 101.434H150.709C150.816 101.112 151.007 100.859 151.281 100.674C151.558 100.487 151.871 100.394 152.222 100.394C152.295 100.394 152.381 100.396 152.479 100.402C152.581 100.407 152.66 100.413 152.717 100.421L152.725 101.536C152.678 101.523 152.595 101.508 152.475 101.493C152.355 101.475 152.236 101.465 152.116 101.465C151.841 101.465 151.596 101.524 151.381 101.641C151.169 101.755 151.001 101.915 150.878 102.12C150.754 102.323 150.694 102.554 150.695 102.814L150.72 106.469H149.555ZM156.133 106.59C155.543 106.59 155.035 106.464 154.607 106.212C154.182 105.957 153.852 105.6 153.617 105.14C153.386 104.678 153.268 104.136 153.263 103.515C153.259 102.902 153.37 102.362 153.595 101.894C153.823 101.426 154.143 101.061 154.554 100.799C154.968 100.537 155.453 100.405 156.009 100.405C156.347 100.405 156.675 100.461 156.992 100.573C157.31 100.685 157.596 100.86 157.849 101.099C158.103 101.338 158.304 101.649 158.452 102.03C158.6 102.41 158.676 102.871 158.68 103.414L158.682 103.827H153.924L153.918 102.954H157.535C157.532 102.647 157.468 102.376 157.342 102.14C157.216 101.901 157.039 101.712 156.812 101.575C156.588 101.437 156.325 101.368 156.023 101.368C155.696 101.368 155.411 101.449 155.168 101.61C154.927 101.768 154.742 101.976 154.611 102.233C154.483 102.488 154.42 102.764 154.422 103.063L154.426 103.745C154.429 104.145 154.501 104.485 154.644 104.766C154.788 105.047 154.989 105.261 155.244 105.409C155.5 105.555 155.798 105.627 156.138 105.627C156.359 105.627 156.56 105.596 156.742 105.534C156.923 105.469 157.079 105.373 157.211 105.245C157.343 105.118 157.443 104.961 157.512 104.774L158.616 104.973C158.53 105.297 158.373 105.582 158.146 105.826C157.922 106.068 157.639 106.256 157.297 106.391C156.957 106.524 156.569 106.59 156.133 106.59ZM162.746 100.483L162.753 101.419H159.483L159.477 100.483H162.746ZM160.344 99.0494H161.509L161.548 104.712C161.549 104.938 161.584 105.108 161.653 105.222C161.721 105.334 161.808 105.41 161.915 105.452C162.025 105.491 162.143 105.51 162.27 105.51C162.364 105.51 162.446 105.504 162.516 105.491C162.586 105.478 162.64 105.468 162.679 105.46L162.896 106.422C162.829 106.448 162.733 106.474 162.608 106.5C162.484 106.529 162.328 106.544 162.141 106.547C161.834 106.552 161.548 106.498 161.282 106.383C161.017 106.269 160.801 106.092 160.636 105.853C160.471 105.614 160.387 105.314 160.384 104.953L160.344 99.0494ZM166.534 106.59C165.973 106.59 165.482 106.461 165.062 106.204C164.642 105.947 164.315 105.587 164.081 105.125C163.846 104.662 163.727 104.122 163.723 103.503C163.719 102.883 163.83 102.34 164.059 101.875C164.287 101.41 164.609 101.048 165.025 100.791C165.442 100.534 165.931 100.405 166.492 100.405C167.053 100.405 167.544 100.534 167.964 100.791C168.384 101.048 168.711 101.41 168.945 101.875C169.18 102.34 169.299 102.883 169.303 103.503C169.307 104.122 169.196 104.662 168.967 105.125C168.739 105.587 168.417 105.947 168.001 106.204C167.584 106.461 167.095 106.59 166.534 106.59ZM166.531 105.612C166.895 105.612 167.196 105.516 167.433 105.323C167.671 105.131 167.846 104.875 167.958 104.556C168.073 104.236 168.129 103.884 168.126 103.5C168.124 103.118 168.063 102.767 167.944 102.447C167.827 102.125 167.649 101.867 167.409 101.672C167.168 101.477 166.866 101.38 166.502 101.38C166.136 101.38 165.833 101.477 165.593 101.672C165.355 101.867 165.179 102.125 165.064 102.447C164.952 102.767 164.897 103.118 164.9 103.5C164.902 103.884 164.962 104.236 165.078 104.556C165.197 104.875 165.377 105.131 165.617 105.323C165.86 105.516 166.165 105.612 166.531 105.612Z" fill="white"></path><path d="M33.0535 110.641C32.253 110.638 31.5677 110.427 30.9974 110.008C30.4272 109.589 29.989 108.98 29.683 108.179C29.377 107.379 29.2201 106.414 29.2124 105.286C29.2048 104.162 29.3485 103.201 29.6437 102.404C29.9422 101.607 30.3738 100.999 30.9383 100.58C31.5063 100.161 32.1871 99.952 32.9807 99.952C33.7744 99.952 34.4564 100.163 35.0267 100.585C35.5969 101.004 36.035 101.612 36.3411 102.409C36.6504 103.203 36.8089 104.162 36.8166 105.286C36.8243 106.418 36.6806 107.384 36.3854 108.184C36.0903 108.981 35.6604 109.591 35.0959 110.013C34.5314 110.432 33.8506 110.641 33.0535 110.641ZM33.0443 109.289C33.7468 109.289 34.2933 108.946 34.6838 108.26C35.0776 107.575 35.2701 106.583 35.2613 105.286C35.2554 104.425 35.1593 103.697 34.9729 103.103C34.7898 102.505 34.5284 102.053 34.1885 101.745C33.8521 101.435 33.4525 101.279 32.9898 101.279C32.2907 101.279 31.7442 101.624 31.3503 102.313C30.9565 103.002 30.7623 103.993 30.7677 105.286C30.7736 106.151 30.8681 106.882 31.0512 107.48C31.2376 108.074 31.499 108.525 31.8355 108.833C32.1719 109.137 32.5748 109.289 33.0443 109.289ZM42.5148 100.094L42.5854 110.469H41.0149L40.955 101.664H40.8942L38.4228 103.285L38.4126 101.786L40.9899 100.094H42.5148Z" fill="white"></path><line x1="2.07499" y1="-2.07499" x2="147.922" y2="-2.07499" transform="matrix(0.999967 -0.00378727 0.00945076 0.999973 222.587 106.915)" stroke="#3B3B47" stroke-width="4.14997" stroke-linecap="round"></line><line x1="2.07499" y1="-2.07499" x2="114.997" y2="-2.07499" transform="matrix(1 0 0.00680674 0.999977 222.588 106.915)" stroke="#E72B39" stroke-width="4.14997" stroke-linecap="round"></line><rect x="0.276214" y="0.27434" width="41.0654" height="23.5938" rx="4.11519" transform="matrix(1 0 0.00680674 0.999977 391.05 93.1777)" fill="#1E2127" stroke="url(#paint0_linear_721_569)" stroke-width="0.548693"></rect><path d="M399.322 107.55L399.316 106.576L402.727 101.128H403.495L403.505 102.562H403.018L400.578 106.467L400.578 106.529H405.305L405.312 107.55H399.322ZM403.117 109.109L403.104 107.254L403.109 106.809L403.07 101.128H404.212L404.267 109.109H403.117ZM409.468 109.218C409.112 109.213 408.761 109.148 408.414 109.023C408.071 108.898 407.757 108.69 407.475 108.399C407.192 108.108 406.965 107.717 406.793 107.226C406.623 106.735 406.536 106.122 406.531 105.387C406.526 104.691 406.591 104.073 406.725 103.532C406.861 102.992 407.059 102.536 407.319 102.164C407.579 101.79 407.894 101.506 408.264 101.311C408.635 101.116 409.051 101.019 409.513 101.019C409.989 101.019 410.412 101.112 410.782 101.299C411.152 101.486 411.452 101.745 411.683 102.075C411.917 102.405 412.066 102.78 412.131 103.201H410.943C410.86 102.868 410.698 102.597 410.458 102.387C410.217 102.176 409.905 102.071 409.52 102.071C408.936 102.071 408.482 102.325 408.158 102.835C407.837 103.344 407.678 104.052 407.681 104.958H407.74C407.876 104.732 408.043 104.54 408.242 104.382C408.444 104.221 408.669 104.097 408.918 104.012C409.169 103.923 409.434 103.879 409.712 103.879C410.174 103.879 410.594 103.992 410.969 104.218C411.347 104.441 411.65 104.751 411.876 105.146C412.102 105.54 412.217 105.992 412.22 106.502C412.224 107.011 412.111 107.472 411.883 107.885C411.657 108.298 411.337 108.625 410.923 108.867C410.509 109.106 410.024 109.223 409.468 109.218ZM409.457 108.205C409.764 108.205 410.037 108.129 410.278 107.979C410.518 107.828 410.708 107.625 410.846 107.371C410.985 107.116 411.053 106.832 411.051 106.517C411.049 106.211 410.978 105.931 410.839 105.679C410.702 105.427 410.514 105.227 410.274 105.079C410.036 104.931 409.765 104.857 409.461 104.857C409.23 104.857 409.016 104.901 408.819 104.99C408.625 105.078 408.455 105.2 408.307 105.356C408.16 105.512 408.045 105.691 407.96 105.894C407.879 106.094 407.839 106.306 407.84 106.529C407.842 106.828 407.913 107.104 408.052 107.359C408.194 107.614 408.387 107.819 408.629 107.975C408.875 108.128 409.15 108.205 409.457 108.205ZM413.766 109.109L413.712 101.128H414.916L414.942 104.939H415.04L418.361 101.128H419.877L416.683 104.721L419.943 109.109H418.493L415.889 105.543L414.954 106.626L414.971 109.109H413.766Z" fill="#D9D9D9"></path><line y1="-0.274346" x2="456.872" y2="-0.274346" transform="matrix(1 0 0.0064146 0.999977 11.7468 165.604)" stroke="white" stroke-opacity="0.06" stroke-width="0.548693"></line><path d="M85.3358 149.267L85.2814 141.286H88.1262C88.7471 141.286 89.2623 141.399 89.6717 141.625C90.0811 141.851 90.3885 142.16 90.5938 142.553C90.7991 142.942 90.9034 143.381 90.9067 143.87C90.9101 144.361 90.8105 144.802 90.6079 145.195C90.4079 145.584 90.1035 145.893 89.6945 146.122C89.2882 146.348 88.7759 146.461 88.1575 146.461H86.2013L86.1943 145.44H88.0415C88.4338 145.44 88.7516 145.373 88.9949 145.237C89.2381 145.1 89.4161 144.913 89.5288 144.676C89.6415 144.44 89.6968 144.171 89.6948 143.87C89.6927 143.568 89.6338 143.301 89.5179 143.067C89.402 142.833 89.2202 142.65 88.9724 142.517C88.7273 142.385 88.4047 142.319 88.0046 142.319H86.4926L86.5399 149.267H85.3358ZM92.2616 149.267L92.2209 143.281H93.3471L93.3536 144.232H93.4159C93.5229 143.91 93.7134 143.657 93.9875 143.472C94.2642 143.285 94.5779 143.192 94.9287 143.192C95.0014 143.192 95.0872 143.194 95.1859 143.199C95.2873 143.205 95.3666 143.211 95.4238 143.219L95.4314 144.333C95.3845 144.32 95.3013 144.306 95.1817 144.291C95.062 144.272 94.9425 144.263 94.823 144.263C94.5476 144.263 94.3025 144.322 94.0876 144.439C93.8754 144.553 93.7076 144.713 93.5843 144.918C93.461 145.121 93.4002 145.352 93.4019 145.612L93.4268 149.267H92.2616ZM98.7811 149.388C98.2199 149.388 97.7293 149.259 97.3093 149.002C96.8893 148.745 96.5621 148.385 96.3277 147.922C96.0934 147.46 95.9741 146.92 95.9699 146.301C95.9656 145.68 96.0776 145.137 96.3056 144.672C96.5337 144.207 96.856 143.846 97.2725 143.589C97.689 143.332 98.1778 143.203 98.739 143.203C99.3002 143.203 99.7908 143.332 100.211 143.589C100.631 143.846 100.958 144.207 101.192 144.672C101.427 145.137 101.546 145.68 101.55 146.301C101.555 146.92 101.443 147.46 101.215 147.922C100.986 148.385 100.664 148.745 100.248 149.002C99.8311 149.259 99.3423 149.388 98.7811 149.388ZM98.7783 148.41C99.1421 148.41 99.4428 148.313 99.6805 148.121C99.9182 147.929 100.093 147.673 100.205 147.353C100.32 147.034 100.376 146.682 100.373 146.297C100.371 145.916 100.31 145.565 100.191 145.245C100.074 144.923 99.896 144.665 99.6556 144.47C99.4153 144.275 99.1133 144.178 98.7495 144.178C98.3832 144.178 98.0799 144.275 97.8396 144.47C97.6019 144.665 97.4257 144.923 97.311 145.245C97.1989 145.565 97.1441 145.916 97.1467 146.297C97.1493 146.682 97.2089 147.034 97.3254 147.353C97.4445 147.673 97.6242 147.929 97.8645 148.121C98.1074 148.313 98.412 148.41 98.7783 148.41ZM105.113 149.384C104.629 149.384 104.197 149.26 103.816 149.014C103.438 148.764 103.139 148.41 102.921 147.95C102.704 147.487 102.594 146.933 102.59 146.286C102.585 145.639 102.689 145.086 102.902 144.626C103.117 144.166 103.413 143.814 103.791 143.57C104.169 143.325 104.598 143.203 105.078 143.203C105.45 143.203 105.749 143.266 105.976 143.39C106.205 143.512 106.383 143.655 106.509 143.819C106.637 143.983 106.737 144.127 106.808 144.252H106.878L106.858 141.286H108.023L108.077 149.267H106.94L106.933 148.336H106.836C106.767 148.463 106.666 148.608 106.535 148.772C106.406 148.936 106.228 149.079 106 149.201C105.772 149.323 105.476 149.384 105.113 149.384ZM105.363 148.39C105.698 148.39 105.981 148.302 106.211 148.125C106.443 147.946 106.618 147.698 106.736 147.381C106.856 147.064 106.914 146.695 106.911 146.274C106.909 145.858 106.846 145.495 106.725 145.183C106.603 144.871 106.426 144.628 106.194 144.454C105.961 144.28 105.675 144.193 105.335 144.193C104.984 144.193 104.692 144.284 104.46 144.466C104.227 144.648 104.052 144.896 103.935 145.21C103.82 145.525 103.764 145.879 103.767 146.274C103.769 146.674 103.831 147.034 103.953 147.353C104.075 147.673 104.253 147.926 104.488 148.113C104.726 148.298 105.018 148.39 105.363 148.39ZM113.515 146.785L113.491 143.281H114.661L114.701 149.267H113.556L113.549 148.23H113.486C113.351 148.55 113.132 148.816 112.829 149.029C112.529 149.24 112.155 149.345 111.705 149.345C111.321 149.345 110.98 149.26 110.682 149.091C110.388 148.92 110.155 148.667 109.984 148.332C109.815 147.996 109.729 147.582 109.726 147.089L109.7 143.281H110.865L110.89 146.948C110.893 147.356 111.008 147.681 111.236 147.922C111.463 148.164 111.758 148.285 112.119 148.285C112.337 148.285 112.554 148.23 112.768 148.121C112.986 148.012 113.165 147.847 113.307 147.626C113.451 147.405 113.52 147.125 113.515 146.785ZM119.02 143.281L119.027 144.217H115.757L115.751 143.281H119.02ZM116.618 141.847H117.783L117.822 147.509C117.823 147.735 117.858 147.906 117.926 148.02C117.995 148.132 118.082 148.208 118.189 148.25C118.298 148.289 118.417 148.308 118.544 148.308C118.638 148.308 118.719 148.302 118.789 148.289C118.859 148.276 118.914 148.265 118.953 148.258L119.17 149.22C119.102 149.246 119.007 149.272 118.882 149.298C118.757 149.327 118.602 149.342 118.415 149.345C118.108 149.35 117.822 149.295 117.556 149.181C117.29 149.067 117.075 148.89 116.91 148.651C116.744 148.412 116.66 148.112 116.658 147.751L116.618 141.847ZM122.808 149.388C122.247 149.388 121.756 149.259 121.336 149.002C120.916 148.745 120.589 148.385 120.354 147.922C120.12 147.46 120.001 146.92 119.997 146.301C119.992 145.68 120.104 145.137 120.332 144.672C120.56 144.207 120.883 143.846 121.299 143.589C121.716 143.332 122.205 143.203 122.766 143.203C123.327 143.203 123.817 143.332 124.238 143.589C124.658 143.846 124.985 144.207 125.219 144.672C125.454 145.137 125.573 145.68 125.577 146.301C125.581 146.92 125.469 147.46 125.241 147.922C125.013 148.385 124.691 148.745 124.274 149.002C123.858 149.259 123.369 149.388 122.808 149.388ZM122.805 148.41C123.169 148.41 123.47 148.313 123.707 148.121C123.945 147.929 124.12 147.673 124.232 147.353C124.347 147.034 124.403 146.682 124.4 146.297C124.398 145.916 124.337 145.565 124.218 145.245C124.101 144.923 123.923 144.665 123.682 144.47C123.442 144.275 123.14 144.178 122.776 144.178C122.41 144.178 122.107 144.275 121.866 144.47C121.629 144.665 121.452 144.923 121.338 145.245C121.226 145.565 121.171 145.916 121.173 146.297C121.176 146.682 121.236 147.034 121.352 147.353C121.471 147.673 121.651 147.929 121.891 148.121C122.134 148.313 122.439 148.41 122.805 148.41ZM134.208 143.383C134.164 143.014 133.991 142.728 133.688 142.525C133.385 142.32 133.005 142.217 132.548 142.217C132.221 142.217 131.938 142.269 131.7 142.373C131.461 142.475 131.277 142.615 131.145 142.794C131.017 142.971 130.953 143.172 130.955 143.398C130.956 143.588 131.001 143.751 131.09 143.889C131.182 144.027 131.301 144.142 131.447 144.236C131.596 144.327 131.755 144.404 131.924 144.466C132.094 144.526 132.256 144.575 132.413 144.614L133.193 144.817C133.448 144.879 133.71 144.963 133.978 145.07C134.247 145.176 134.496 145.317 134.726 145.491C134.955 145.665 135.141 145.88 135.283 146.138C135.428 146.395 135.501 146.703 135.504 147.061C135.507 147.513 135.393 147.915 135.161 148.265C134.933 148.616 134.598 148.893 134.158 149.095C133.72 149.298 133.189 149.399 132.566 149.399C131.968 149.399 131.451 149.305 131.013 149.115C130.575 148.925 130.232 148.656 129.983 148.308C129.733 147.958 129.594 147.542 129.565 147.061H130.773C130.798 147.35 130.893 147.59 131.058 147.782C131.226 147.972 131.439 148.113 131.697 148.207C131.957 148.298 132.242 148.343 132.551 148.343C132.891 148.343 133.194 148.29 133.458 148.184C133.725 148.074 133.934 147.924 134.086 147.731C134.238 147.537 134.313 147.309 134.311 147.05C134.31 146.813 134.241 146.62 134.105 146.469C133.971 146.318 133.79 146.194 133.561 146.095C133.334 145.996 133.077 145.909 132.791 145.834L131.846 145.577C131.206 145.402 130.698 145.147 130.321 144.809C129.947 144.471 129.759 144.024 129.755 143.468C129.752 143.008 129.874 142.607 130.121 142.264C130.368 141.921 130.704 141.655 131.128 141.465C131.553 141.273 132.033 141.177 132.568 141.177C133.109 141.177 133.586 141.272 134.001 141.461C134.417 141.651 134.747 141.912 134.988 142.245C135.229 142.575 135.356 142.954 135.37 143.383H134.208ZM139.445 149.388C138.855 149.388 138.346 149.262 137.919 149.01C137.493 148.755 137.164 148.398 136.929 147.938C136.698 147.476 136.58 146.934 136.575 146.313C136.571 145.7 136.682 145.16 136.907 144.692C137.135 144.224 137.455 143.859 137.866 143.597C138.28 143.335 138.765 143.203 139.321 143.203C139.659 143.203 139.986 143.259 140.304 143.371C140.622 143.483 140.908 143.658 141.161 143.897C141.415 144.136 141.616 144.446 141.764 144.828C141.912 145.208 141.988 145.669 141.991 146.212L141.994 146.625H137.236L137.23 145.752H140.846C140.844 145.445 140.78 145.174 140.654 144.937C140.528 144.698 140.351 144.51 140.124 144.372C139.9 144.235 139.637 144.166 139.335 144.166C139.008 144.166 138.723 144.246 138.48 144.407C138.239 144.566 138.054 144.774 137.923 145.031C137.795 145.286 137.732 145.562 137.734 145.861L137.738 146.543C137.741 146.943 137.813 147.283 137.956 147.564C138.1 147.844 138.301 148.059 138.556 148.207C138.812 148.352 139.11 148.425 139.45 148.425C139.671 148.425 139.872 148.394 140.053 148.332C140.235 148.267 140.391 148.171 140.523 148.043C140.655 147.916 140.755 147.759 140.824 147.572L141.928 147.77C141.842 148.095 141.685 148.38 141.458 148.624C141.234 148.865 140.951 149.054 140.609 149.189C140.269 149.321 139.881 149.388 139.445 149.388ZM145.827 149.388C145.248 149.388 144.748 149.256 144.328 148.994C143.911 148.729 143.589 148.364 143.362 147.899C143.135 147.434 143.02 146.901 143.016 146.301C143.012 145.693 143.122 145.157 143.348 144.692C143.573 144.224 143.893 143.859 144.307 143.597C144.721 143.335 145.21 143.203 145.773 143.203C146.228 143.203 146.634 143.288 146.991 143.457C147.348 143.623 147.637 143.857 147.857 144.158C148.08 144.459 148.213 144.811 148.258 145.214H147.124C147.06 144.934 146.915 144.692 146.69 144.489C146.468 144.287 146.171 144.185 145.8 144.185C145.475 144.185 145.191 144.271 144.948 144.443C144.707 144.611 144.521 144.853 144.388 145.167C144.255 145.479 144.19 145.848 144.193 146.274C144.196 146.711 144.264 147.087 144.399 147.404C144.534 147.721 144.722 147.967 144.965 148.141C145.211 148.315 145.498 148.402 145.828 148.402C146.049 148.402 146.249 148.361 146.428 148.281C146.609 148.198 146.76 148.08 146.881 147.926C147.005 147.773 147.091 147.589 147.138 147.373H148.272C148.234 147.76 148.11 148.106 147.902 148.41C147.693 148.714 147.413 148.953 147.061 149.127C146.711 149.301 146.3 149.388 145.827 149.388ZM149.531 149.267L149.491 143.281H150.617L150.623 144.232H150.686C150.793 143.91 150.983 143.657 151.257 143.472C151.534 143.285 151.848 143.192 152.198 143.192C152.271 143.192 152.357 143.194 152.456 143.199C152.557 143.205 152.636 143.211 152.694 143.219L152.701 144.333C152.654 144.32 152.571 144.306 152.451 144.291C152.332 144.272 152.212 144.263 152.093 144.263C151.817 144.263 151.572 144.322 151.357 144.439C151.145 144.553 150.977 144.713 150.854 144.918C150.731 145.121 150.67 145.352 150.672 145.612L150.697 149.267H149.531ZM156.109 149.388C155.52 149.388 155.011 149.262 154.583 149.01C154.158 148.755 153.828 148.398 153.594 147.938C153.362 147.476 153.244 146.934 153.24 146.313C153.236 145.7 153.346 145.16 153.572 144.692C153.8 144.224 154.119 143.859 154.531 143.597C154.945 143.335 155.429 143.203 155.985 143.203C156.323 143.203 156.651 143.259 156.969 143.371C157.286 143.483 157.572 143.658 157.826 143.897C158.079 144.136 158.28 144.446 158.428 144.828C158.576 145.208 158.652 145.669 158.656 146.212L158.659 146.625H153.9L153.895 145.752H157.511C157.509 145.445 157.445 145.174 157.318 144.937C157.192 144.698 157.015 144.51 156.788 144.372C156.564 144.235 156.301 144.166 156 144.166C155.672 144.166 155.387 144.246 155.144 144.407C154.904 144.566 154.718 144.774 154.587 145.031C154.459 145.286 154.396 145.562 154.398 145.861L154.403 146.543C154.405 146.943 154.478 147.283 154.62 147.564C154.765 147.844 154.965 148.059 155.221 148.207C155.476 148.352 155.774 148.425 156.114 148.425C156.335 148.425 156.536 148.394 156.718 148.332C156.899 148.267 157.056 148.171 157.187 148.043C157.319 147.916 157.419 147.759 157.488 147.572L158.592 147.77C158.506 148.095 158.35 148.38 158.123 148.624C157.898 148.865 157.615 149.054 157.273 149.189C156.934 149.321 156.546 149.388 156.109 149.388ZM162.723 143.281L162.729 144.217H159.46L159.453 143.281H162.723ZM160.32 141.847H161.486L161.524 147.509C161.526 147.735 161.561 147.906 161.629 148.02C161.697 148.132 161.785 148.208 161.892 148.25C162.001 148.289 162.119 148.308 162.247 148.308C162.34 148.308 162.422 148.302 162.492 148.289C162.562 148.276 162.616 148.265 162.655 148.258L162.872 149.22C162.805 149.246 162.709 149.272 162.585 149.298C162.46 149.327 162.304 149.342 162.117 149.345C161.811 149.35 161.525 149.295 161.259 149.181C160.993 149.067 160.777 148.89 160.612 148.651C160.447 148.412 160.363 148.112 160.361 147.751L160.32 141.847ZM166.51 149.388C165.949 149.388 165.459 149.259 165.039 149.002C164.619 148.745 164.291 148.385 164.057 147.922C163.823 147.46 163.703 146.92 163.699 146.301C163.695 145.68 163.807 145.137 164.035 144.672C164.263 144.207 164.585 143.846 165.002 143.589C165.418 143.332 165.907 143.203 166.468 143.203C167.029 143.203 167.52 143.332 167.94 143.589C168.36 143.846 168.687 144.207 168.922 144.672C169.156 145.137 169.275 145.68 169.28 146.301C169.284 146.92 169.172 147.46 168.944 147.922C168.716 148.385 168.393 148.745 167.977 149.002C167.56 149.259 167.072 149.388 166.51 149.388ZM166.508 148.41C166.871 148.41 167.172 148.313 167.41 148.121C167.647 147.929 167.822 147.673 167.934 147.353C168.049 147.034 168.105 146.682 168.103 146.297C168.1 145.916 168.039 145.565 167.92 145.245C167.804 144.923 167.625 144.665 167.385 144.47C167.145 144.275 166.842 144.178 166.479 144.178C166.112 144.178 165.809 144.275 165.569 144.47C165.331 144.665 165.155 144.923 165.04 145.245C164.928 145.565 164.873 145.916 164.876 146.297C164.879 146.682 164.938 147.034 165.055 147.353C165.174 147.673 165.353 147.929 165.594 148.121C165.837 148.313 166.141 148.41 166.508 148.41Z" fill="white"></path><path d="M33.0296 152.341C32.2291 152.338 31.5438 152.127 30.9735 151.708C30.4033 151.289 29.9651 150.68 29.6591 149.879C29.3531 149.079 29.1962 148.115 29.1885 146.987C29.1809 145.862 29.3246 144.901 29.6198 144.104C29.9183 143.307 30.3499 142.699 30.9144 142.28C31.4823 141.862 32.1631 141.652 32.9568 141.652C33.7505 141.652 34.4325 141.863 35.0027 142.285C35.573 142.704 36.0111 143.312 36.3171 144.109C36.6265 144.903 36.785 145.862 36.7927 146.987C36.8004 148.118 36.6566 149.084 36.3615 149.884C36.0664 150.681 35.6365 151.291 35.072 151.713C34.5074 152.132 33.8266 152.341 33.0296 152.341ZM33.0204 150.989C33.7229 150.989 34.2693 150.646 34.6598 149.96C35.0537 149.275 35.2462 148.284 35.2374 146.987C35.2315 146.125 35.1354 145.398 34.949 144.803C34.7659 144.205 34.5044 143.753 34.1646 143.446C33.8281 143.135 33.4285 142.98 32.9658 142.98C32.2667 142.98 31.7203 143.324 31.3264 144.013C30.9326 144.702 30.7384 145.693 30.7438 146.987C30.7497 147.851 30.8442 148.582 31.0272 149.18C31.2137 149.775 31.4751 150.225 31.8115 150.533C32.148 150.837 32.5509 150.989 33.0204 150.989ZM38.6251 152.169L38.6174 151.034L42.1034 147.397C42.4756 147.002 42.7823 146.656 43.0234 146.358C43.2679 146.058 43.4501 145.773 43.5698 145.502C43.6896 145.232 43.7484 144.945 43.7463 144.641C43.744 144.297 43.6609 143.999 43.4971 143.75C43.3332 143.496 43.1107 143.302 42.8295 143.167C42.5482 143.028 42.2319 142.959 41.8807 142.959C41.5092 142.959 41.1855 143.035 40.9096 143.187C40.6337 143.339 40.4223 143.554 40.2756 143.831C40.1289 144.108 40.0568 144.432 40.0593 144.803H38.5649C38.5606 144.172 38.702 143.619 38.9893 143.147C39.2765 142.674 39.6725 142.307 40.1774 142.047C40.6822 141.784 41.2571 141.652 41.9022 141.652C42.554 141.652 43.1291 141.782 43.6273 142.042C44.1289 142.299 44.5214 142.65 44.8047 143.096C45.0881 143.538 45.2316 144.038 45.2354 144.596C45.2381 144.981 45.168 145.357 45.0253 145.725C44.8859 146.093 44.6405 146.504 44.289 146.956C43.9374 147.405 43.448 147.951 42.8208 148.593L40.7736 150.751L40.7741 150.827H45.445L45.4542 152.169H38.6251Z" fill="white"></path><line x1="2.07499" y1="-2.07499" x2="148.215" y2="-2.07499" transform="matrix(0.999967 -0.00378945 0.00832649 0.999976 222.563 147.517)" stroke="#3B3B47" stroke-width="4.14997" stroke-linecap="round"></line><line x1="2.07499" y1="-2.07499" x2="109.858" y2="-2.07499" transform="matrix(1 0 0.00680674 0.999977 222.562 146.972)" stroke="#E72B39" stroke-width="4.14997" stroke-linecap="round"></line><rect x="0.276214" y="0.27434" width="41.1519" height="23.5938" rx="4.11519" transform="matrix(1 0 0.00680674 0.999977 391.026 133.78)" fill="#1E2127" stroke="url(#paint1_linear_721_569)" stroke-width="0.548693"></rect><path d="M404.557 149.376C404.022 149.376 403.543 149.284 403.121 149.099C402.701 148.915 402.368 148.659 402.122 148.332C401.878 148.002 401.745 147.62 401.724 147.186H402.948C402.965 147.422 403.046 147.628 403.19 147.802C403.336 147.973 403.527 148.106 403.762 148.199C403.996 148.293 404.256 148.339 404.542 148.339C404.856 148.339 405.134 148.285 405.375 148.176C405.618 148.067 405.808 147.915 405.944 147.72C406.081 147.522 406.148 147.295 406.146 147.038C406.145 146.77 406.074 146.535 405.935 146.333C405.798 146.127 405.599 145.966 405.335 145.849C405.075 145.732 404.76 145.674 404.391 145.674H403.717L403.71 144.692H404.385C404.681 144.692 404.94 144.639 405.163 144.532C405.388 144.426 405.564 144.278 405.69 144.088C405.816 143.896 405.878 143.671 405.876 143.414C405.874 143.167 405.817 142.953 405.704 142.771C405.594 142.586 405.437 142.442 405.234 142.338C405.033 142.234 404.796 142.182 404.523 142.182C404.264 142.182 404.021 142.23 403.796 142.327C403.573 142.42 403.392 142.555 403.253 142.732C403.114 142.906 403.04 143.115 403.031 143.359H401.866C401.876 142.928 402.001 142.549 402.24 142.221C402.482 141.894 402.802 141.638 403.201 141.454C403.6 141.269 404.044 141.177 404.532 141.177C405.044 141.177 405.486 141.277 405.859 141.477C406.235 141.674 406.525 141.938 406.73 142.268C406.937 142.598 407.041 142.959 407.041 143.351C407.047 143.798 406.924 144.178 406.675 144.489C406.427 144.801 406.096 145.01 405.681 145.117L405.682 145.179C406.212 145.26 406.624 145.47 406.917 145.81C407.213 146.151 407.362 146.573 407.362 147.077C407.368 147.516 407.249 147.909 407.004 148.258C406.762 148.606 406.43 148.88 406.008 149.08C405.586 149.277 405.102 149.376 404.557 149.376ZM409.119 149.267L412.556 142.377L412.556 142.319H408.526L408.519 141.286H413.796L413.803 142.354L410.378 149.267H409.119ZM415.314 149.267L415.26 141.286H416.464L416.49 145.097H416.588L419.909 141.286H421.425L418.231 144.879L421.491 149.267H420.042L417.437 145.701L416.502 146.785L416.519 149.267H415.314Z" fill="#D9D9D9"></path><path d="M85.3594 192.064L85.3051 184.083H88.1499C88.7708 184.083 89.286 184.196 89.6954 184.422C90.1048 184.648 90.4122 184.957 90.6175 185.349C90.8228 185.739 90.9271 186.178 90.9304 186.667C90.9338 187.158 90.8342 187.599 90.6316 187.992C90.4316 188.381 90.1271 188.69 89.7182 188.919C89.3119 189.145 88.7995 189.258 88.1812 189.258H86.2249L86.218 188.237H88.0652C88.4575 188.237 88.7752 188.169 89.0185 188.034C89.2618 187.897 89.4398 187.71 89.5525 187.473C89.6652 187.237 89.7205 186.968 89.7185 186.667C89.7164 186.365 89.6574 186.098 89.5415 185.864C89.4256 185.63 89.2438 185.447 88.9961 185.314C88.751 185.182 88.4284 185.116 88.0283 185.116H86.5163L86.5636 192.064H85.3594ZM92.2853 192.064L92.2446 186.078H93.3708L93.3773 187.029H93.4396C93.5465 186.707 93.7371 186.454 94.0112 186.269C94.2879 186.082 94.6016 185.989 94.9524 185.989C95.0251 185.989 95.1108 185.991 95.2096 185.996C95.311 186.001 95.3902 186.008 95.4475 186.016L95.455 187.13C95.4082 187.117 95.325 187.103 95.2053 187.087C95.0857 187.069 94.9661 187.06 94.8466 187.06C94.5712 187.06 94.3261 187.119 94.1113 187.236C93.899 187.35 93.7313 187.51 93.608 187.715C93.4846 187.917 93.4239 188.149 93.4256 188.408L93.4505 192.064H92.2853ZM98.8048 192.185C98.2436 192.185 97.753 192.056 97.333 191.799C96.913 191.542 96.5858 191.182 96.3514 190.719C96.117 190.257 95.9978 189.717 95.9935 189.098C95.9893 188.477 96.1012 187.934 96.3293 187.469C96.5573 187.004 96.8796 186.643 97.2962 186.386C97.7127 186.129 98.2015 186 98.7627 186C99.3239 186 99.8144 186.129 100.234 186.386C100.654 186.643 100.982 187.004 101.216 187.469C101.45 187.934 101.57 188.477 101.574 189.098C101.578 189.717 101.466 190.257 101.238 190.719C101.01 191.182 100.688 191.542 100.271 191.799C99.8548 192.056 99.3659 192.185 98.8048 192.185ZM98.802 191.206C99.1657 191.206 99.4665 191.11 99.7042 190.918C99.9419 190.726 100.117 190.47 100.229 190.15C100.344 189.831 100.4 189.479 100.397 189.094C100.394 188.712 100.334 188.362 100.215 188.042C100.098 187.72 99.9196 187.462 99.6793 187.267C99.439 187.072 99.1369 186.974 98.7732 186.974C98.4069 186.974 98.1036 187.072 97.8633 187.267C97.6256 187.462 97.4494 187.72 97.3347 188.042C97.2226 188.362 97.1678 188.712 97.1704 189.094C97.173 189.479 97.2326 189.831 97.3491 190.15C97.4681 190.47 97.6478 190.726 97.8882 190.918C98.1311 191.11 98.4357 191.206 98.802 191.206ZM105.136 192.181C104.653 192.181 104.221 192.057 103.84 191.81C103.462 191.561 103.163 191.206 102.944 190.747C102.728 190.284 102.618 189.73 102.613 189.083C102.609 188.436 102.713 187.882 102.926 187.423C103.141 186.963 103.437 186.611 103.815 186.367C104.192 186.122 104.621 186 105.102 186C105.474 186 105.773 186.063 106 186.187C106.229 186.309 106.407 186.452 106.533 186.616C106.661 186.78 106.761 186.924 106.832 187.048H106.902L106.882 184.083H108.047L108.101 192.064H106.963L106.957 191.132H106.859C106.79 191.26 106.69 191.405 106.558 191.569C106.43 191.732 106.251 191.875 106.024 191.997C105.796 192.12 105.5 192.181 105.136 192.181ZM105.387 191.187C105.722 191.187 106.005 191.099 106.235 190.922C106.467 190.743 106.642 190.495 106.759 190.178C106.879 189.861 106.938 189.492 106.935 189.071C106.932 188.655 106.87 188.292 106.748 187.98C106.627 187.668 106.45 187.425 106.217 187.251C105.985 187.077 105.699 186.99 105.358 186.99C105.007 186.99 104.716 187.081 104.483 187.263C104.251 187.445 104.076 187.693 103.958 188.007C103.844 188.321 103.788 188.676 103.79 189.071C103.793 189.471 103.855 189.831 103.977 190.15C104.099 190.47 104.277 190.723 104.512 190.91C104.75 191.095 105.041 191.187 105.387 191.187ZM113.539 189.581L113.515 186.078H114.684L114.725 192.064H113.579L113.572 191.027H113.51C113.374 191.347 113.155 191.613 112.853 191.826C112.553 192.036 112.178 192.142 111.729 192.142C111.344 192.142 111.003 192.057 110.706 191.888C110.411 191.717 110.178 191.464 110.007 191.128C109.839 190.793 109.753 190.379 109.749 189.885L109.723 186.078H110.889L110.914 189.745C110.916 190.153 111.032 190.478 111.259 190.719C111.487 190.961 111.781 191.082 112.142 191.082C112.361 191.082 112.577 191.027 112.792 190.918C113.01 190.809 113.189 190.644 113.33 190.423C113.474 190.202 113.544 189.922 113.539 189.581ZM119.044 186.078L119.05 187.013H115.781L115.774 186.078H119.044ZM116.641 184.644H117.807L117.845 190.306C117.847 190.532 117.882 190.702 117.95 190.817C118.018 190.928 118.106 191.005 118.213 191.047C118.322 191.086 118.44 191.105 118.568 191.105C118.661 191.105 118.743 191.099 118.813 191.086C118.883 191.073 118.938 191.062 118.977 191.054L119.194 192.017C119.126 192.043 119.03 192.069 118.906 192.095C118.781 192.123 118.625 192.139 118.438 192.142C118.132 192.147 117.846 192.092 117.58 191.978C117.314 191.864 117.099 191.687 116.933 191.448C116.768 191.209 116.684 190.909 116.682 190.548L116.641 184.644ZM122.832 192.185C122.27 192.185 121.78 192.056 121.36 191.799C120.94 191.542 120.613 191.182 120.378 190.719C120.144 190.257 120.024 189.717 120.02 189.098C120.016 188.477 120.128 187.934 120.356 187.469C120.584 187.004 120.906 186.643 121.323 186.386C121.739 186.129 122.228 186 122.789 186C123.351 186 123.841 186.129 124.261 186.386C124.681 186.643 125.008 187.004 125.243 187.469C125.477 187.934 125.597 188.477 125.601 189.098C125.605 189.717 125.493 190.257 125.265 190.719C125.037 191.182 124.715 191.542 124.298 191.799C123.882 192.056 123.393 192.185 122.832 192.185ZM122.829 191.206C123.192 191.206 123.493 191.11 123.731 190.918C123.969 190.726 124.144 190.47 124.256 190.15C124.37 189.831 124.426 189.479 124.424 189.094C124.421 188.712 124.36 188.362 124.241 188.042C124.125 187.72 123.946 187.462 123.706 187.267C123.466 187.072 123.164 186.974 122.8 186.974C122.434 186.974 122.13 187.072 121.89 187.267C121.652 187.462 121.476 187.72 121.361 188.042C121.249 188.362 121.195 188.712 121.197 189.094C121.2 189.479 121.259 189.831 121.376 190.15C121.495 190.47 121.675 190.726 121.915 190.918C122.158 191.11 122.462 191.206 122.829 191.206ZM134.232 186.179C134.188 185.811 134.015 185.525 133.712 185.322C133.409 185.117 133.029 185.014 132.572 185.014C132.245 185.014 131.962 185.066 131.723 185.17C131.485 185.271 131.3 185.412 131.169 185.591C131.04 185.768 130.977 185.969 130.978 186.195C130.98 186.385 131.025 186.548 131.114 186.686C131.206 186.824 131.325 186.939 131.471 187.033C131.62 187.124 131.779 187.2 131.948 187.263C132.117 187.323 132.28 187.372 132.436 187.411L133.217 187.614C133.472 187.676 133.734 187.76 134.002 187.867C134.27 187.973 134.519 188.114 134.749 188.288C134.979 188.462 135.165 188.677 135.307 188.935C135.452 189.192 135.525 189.5 135.528 189.858C135.531 190.31 135.416 190.712 135.185 191.062C134.956 191.413 134.622 191.69 134.181 191.892C133.744 192.095 133.213 192.196 132.59 192.196C131.992 192.196 131.474 192.101 131.037 191.912C130.599 191.722 130.255 191.453 130.006 191.105C129.757 190.754 129.618 190.339 129.589 189.858H130.797C130.822 190.146 130.917 190.387 131.082 190.579C131.25 190.769 131.462 190.91 131.72 191.004C131.981 191.095 132.265 191.14 132.575 191.14C132.915 191.14 133.217 191.087 133.482 190.98C133.748 190.871 133.958 190.721 134.11 190.528C134.262 190.334 134.337 190.106 134.335 189.846C134.333 189.61 134.265 189.416 134.128 189.266C133.995 189.115 133.814 188.99 133.584 188.892C133.358 188.793 133.101 188.706 132.815 188.631L131.87 188.373C131.23 188.199 130.721 187.943 130.345 187.606C129.971 187.268 129.782 186.821 129.778 186.265C129.775 185.805 129.897 185.404 130.144 185.061C130.391 184.718 130.727 184.452 131.152 184.262C131.577 184.07 132.057 183.974 132.592 183.974C133.132 183.974 133.61 184.069 134.024 184.258C134.441 184.448 134.77 184.709 135.012 185.042C135.253 185.372 135.38 185.751 135.393 186.179H134.232ZM139.469 192.185C138.879 192.185 138.37 192.059 137.942 191.807C137.517 191.552 137.187 191.195 136.953 190.735C136.721 190.272 136.603 189.731 136.599 189.11C136.595 188.497 136.705 187.956 136.931 187.489C137.159 187.021 137.479 186.656 137.89 186.394C138.304 186.131 138.789 186 139.345 186C139.682 186 140.01 186.056 140.328 186.168C140.646 186.279 140.931 186.455 141.185 186.694C141.439 186.933 141.639 187.243 141.787 187.625C141.936 188.004 142.011 188.466 142.015 189.009L142.018 189.422H137.26L137.254 188.549H140.87C140.868 188.242 140.804 187.971 140.678 187.734C140.551 187.495 140.375 187.307 140.148 187.169C139.923 187.032 139.66 186.963 139.359 186.963C139.032 186.963 138.746 187.043 138.503 187.204C138.263 187.363 138.077 187.571 137.946 187.828C137.818 188.082 137.755 188.359 137.757 188.658L137.762 189.34C137.765 189.74 137.837 190.08 137.979 190.361C138.124 190.641 138.324 190.856 138.58 191.004C138.835 191.149 139.133 191.222 139.474 191.222C139.695 191.222 139.896 191.191 140.077 191.128C140.259 191.064 140.415 190.967 140.547 190.84C140.678 190.713 140.779 190.556 140.847 190.369L141.952 190.567C141.866 190.892 141.709 191.177 141.482 191.421C141.258 191.662 140.974 191.851 140.632 191.986C140.293 192.118 139.905 192.185 139.469 192.185ZM145.851 192.185C145.272 192.185 144.772 192.053 144.352 191.791C143.934 191.526 143.612 191.161 143.386 190.696C143.159 190.231 143.044 189.698 143.04 189.098C143.036 188.49 143.146 187.954 143.372 187.489C143.597 187.021 143.917 186.656 144.331 186.394C144.745 186.131 145.233 186 145.797 186C146.252 186 146.658 186.085 147.015 186.253C147.372 186.42 147.66 186.654 147.881 186.955C148.104 187.256 148.237 187.608 148.281 188.011H147.147C147.083 187.73 146.939 187.489 146.714 187.286C146.492 187.084 146.195 186.982 145.823 186.982C145.499 186.982 145.215 187.068 144.972 187.239C144.731 187.408 144.544 187.65 144.411 187.964C144.278 188.276 144.213 188.645 144.216 189.071C144.219 189.507 144.288 189.884 144.423 190.201C144.557 190.518 144.746 190.763 144.989 190.938C145.234 191.112 145.522 191.199 145.852 191.199C146.073 191.199 146.273 191.158 146.451 191.078C146.633 190.995 146.784 190.876 146.905 190.723C147.028 190.57 147.114 190.385 147.162 190.17H148.296C148.257 190.557 148.134 190.902 147.925 191.206C147.717 191.51 147.437 191.749 147.084 191.923C146.735 192.098 146.324 192.185 145.851 192.185ZM149.555 192.064L149.514 186.078H150.641L150.647 187.029H150.709C150.816 186.707 151.007 186.454 151.281 186.269C151.558 186.082 151.871 185.989 152.222 185.989C152.295 185.989 152.381 185.991 152.479 185.996C152.581 186.001 152.66 186.008 152.717 186.016L152.725 187.13C152.678 187.117 152.595 187.103 152.475 187.087C152.355 187.069 152.236 187.06 152.116 187.06C151.841 187.06 151.596 187.119 151.381 187.236C151.169 187.35 151.001 187.51 150.878 187.715C150.754 187.917 150.694 188.149 150.695 188.408L150.72 192.064H149.555ZM156.133 192.185C155.543 192.185 155.035 192.059 154.607 191.807C154.182 191.552 153.852 191.195 153.617 190.735C153.386 190.272 153.268 189.731 153.263 189.11C153.259 188.497 153.37 187.956 153.595 187.489C153.823 187.021 154.143 186.656 154.554 186.394C154.968 186.131 155.453 186 156.009 186C156.347 186 156.675 186.056 156.992 186.168C157.31 186.279 157.596 186.455 157.849 186.694C158.103 186.933 158.304 187.243 158.452 187.625C158.6 188.004 158.676 188.466 158.68 189.009L158.682 189.422H153.924L153.918 188.549H157.535C157.532 188.242 157.468 187.971 157.342 187.734C157.216 187.495 157.039 187.307 156.812 187.169C156.588 187.032 156.325 186.963 156.023 186.963C155.696 186.963 155.411 187.043 155.168 187.204C154.927 187.363 154.742 187.571 154.611 187.828C154.483 188.082 154.42 188.359 154.422 188.658L154.426 189.34C154.429 189.74 154.501 190.08 154.644 190.361C154.788 190.641 154.989 190.856 155.244 191.004C155.5 191.149 155.798 191.222 156.138 191.222C156.359 191.222 156.56 191.191 156.742 191.128C156.923 191.064 157.079 190.967 157.211 190.84C157.343 190.713 157.443 190.556 157.512 190.369L158.616 190.567C158.53 190.892 158.373 191.177 158.146 191.421C157.922 191.662 157.639 191.851 157.297 191.986C156.957 192.118 156.569 192.185 156.133 192.185ZM162.746 186.078L162.753 187.013H159.483L159.477 186.078H162.746ZM160.344 184.644H161.509L161.548 190.306C161.549 190.532 161.584 190.702 161.653 190.817C161.721 190.928 161.808 191.005 161.915 191.047C162.025 191.086 162.143 191.105 162.27 191.105C162.364 191.105 162.446 191.099 162.516 191.086C162.586 191.073 162.64 191.062 162.679 191.054L162.896 192.017C162.829 192.043 162.733 192.069 162.608 192.095C162.484 192.123 162.328 192.139 162.141 192.142C161.834 192.147 161.548 192.092 161.282 191.978C161.017 191.864 160.801 191.687 160.636 191.448C160.471 191.209 160.387 190.909 160.384 190.548L160.344 184.644ZM166.534 192.185C165.973 192.185 165.482 192.056 165.062 191.799C164.642 191.542 164.315 191.182 164.081 190.719C163.846 190.257 163.727 189.717 163.723 189.098C163.719 188.477 163.83 187.934 164.059 187.469C164.287 187.004 164.609 186.643 165.025 186.386C165.442 186.129 165.931 186 166.492 186C167.053 186 167.544 186.129 167.964 186.386C168.384 186.643 168.711 187.004 168.945 187.469C169.18 187.934 169.299 188.477 169.303 189.098C169.307 189.717 169.196 190.257 168.967 190.719C168.739 191.182 168.417 191.542 168.001 191.799C167.584 192.056 167.095 192.185 166.534 192.185ZM166.531 191.206C166.895 191.206 167.196 191.11 167.433 190.918C167.671 190.726 167.846 190.47 167.958 190.15C168.073 189.831 168.129 189.479 168.126 189.094C168.124 188.712 168.063 188.362 167.944 188.042C167.827 187.72 167.649 187.462 167.409 187.267C167.168 187.072 166.866 186.974 166.502 186.974C166.136 186.974 165.833 187.072 165.593 187.267C165.355 187.462 165.179 187.72 165.064 188.042C164.952 188.362 164.897 188.712 164.9 189.094C164.902 189.479 164.962 189.831 165.078 190.15C165.197 190.47 165.377 190.726 165.617 190.918C165.86 191.11 166.165 191.206 166.531 191.206Z" fill="white"></path><path d="M33.0533 194.041C32.2528 194.038 31.5674 193.827 30.9972 193.408C30.4269 192.989 29.9888 192.379 29.6828 191.579C29.3767 190.779 29.2199 189.814 29.2122 188.686C29.2045 187.562 29.3483 186.601 29.6435 185.804C29.942 185.007 30.3735 184.399 30.9381 183.98C31.506 183.561 32.1868 183.352 32.9805 183.352C33.7742 183.352 34.4562 183.563 35.0264 183.985C35.5967 184.404 36.0348 185.012 36.3408 185.809C36.6502 186.603 36.8087 187.562 36.8163 188.686C36.824 189.818 36.6803 190.784 36.3852 191.584C36.09 192.381 35.6602 192.991 35.0957 193.413C34.5311 193.832 33.8503 194.041 33.0533 194.041ZM33.044 192.688C33.7465 192.688 34.293 192.346 34.6835 191.66C35.0774 190.974 35.2699 189.983 35.2611 188.686C35.2552 187.825 35.1591 187.097 34.9726 186.503C34.7896 185.905 34.5281 185.453 34.1883 185.145C33.8518 184.835 33.4522 184.679 32.9895 184.679C32.2904 184.679 31.7439 185.024 31.3501 185.713C30.9563 186.402 30.7621 187.393 30.7675 188.686C30.7734 189.551 30.8678 190.282 31.0509 190.88C31.2373 191.474 31.4988 191.925 31.8352 192.233C32.1717 192.536 32.5746 192.688 33.044 192.688ZM42.2619 194.011C41.5661 194.011 40.9439 193.891 40.3951 193.651C39.8497 193.411 39.4168 193.079 39.0965 192.653C38.7795 192.224 38.6072 191.728 38.5797 191.164H40.1705C40.1928 191.471 40.2977 191.738 40.4849 191.964C40.6756 192.187 40.9233 192.359 41.2281 192.481C41.5329 192.602 41.8711 192.663 42.2426 192.663C42.6512 192.663 43.0121 192.592 43.3252 192.45C43.6418 192.309 43.8886 192.111 44.0659 191.858C44.2432 191.601 44.3307 191.305 44.3284 190.971C44.326 190.623 44.2344 190.318 44.0536 190.054C43.8762 189.787 43.6164 189.578 43.2743 189.426C42.9355 189.274 42.5263 189.198 42.0467 189.198H41.1703L41.1616 187.921H42.038C42.4231 187.921 42.7603 187.852 43.0498 187.714C43.3427 187.575 43.5711 187.383 43.7349 187.136C43.8987 186.886 43.9794 186.594 43.9772 186.26C43.975 185.939 43.9005 185.66 43.7536 185.424C43.6101 185.184 43.4062 184.997 43.1419 184.862C42.8809 184.726 42.5731 184.659 42.2185 184.659C41.8807 184.659 41.5654 184.721 41.2724 184.846C40.9828 184.968 40.7476 185.144 40.5667 185.373C40.3859 185.6 40.2898 185.871 40.2785 186.189H38.7637C38.7768 185.628 38.9389 185.135 39.2501 184.71C39.5647 184.284 39.9812 183.951 40.4997 183.712C41.0182 183.472 41.5949 183.352 42.2298 183.352C42.8952 183.352 43.4702 183.482 43.955 183.742C44.443 183.999 44.8203 184.341 45.0866 184.77C45.3564 185.199 45.4913 185.669 45.4914 186.179C45.4987 186.76 45.3399 187.253 45.0151 187.658C44.6936 188.063 44.2632 188.335 43.7237 188.474L43.7243 188.555C44.414 188.659 44.9495 188.933 45.3307 189.375C45.7154 189.818 45.9083 190.367 45.9093 191.022C45.9166 191.593 45.7614 192.104 45.4436 192.557C45.1292 193.009 44.6976 193.366 44.1489 193.626C43.6001 193.882 42.9711 194.011 42.2619 194.011Z" fill="white"></path><line x1="2.07499" y1="-2.07499" x2="148.215" y2="-2.07499" transform="matrix(0.999967 -0.00378945 0.00832649 0.999976 222.587 189.218)" stroke="#3B3B47" stroke-width="4.14997" stroke-linecap="round"></line><line x1="2.07499" y1="-2.07499" x2="87.9074" y2="-2.07499" transform="matrix(1 0 0.00680674 0.999977 222.586 188.66)" stroke="#E72B39" stroke-width="4.14997" stroke-linecap="round"></line><rect x="0.276214" y="0.27434" width="40.5933" height="23.5938" rx="4.11519" transform="matrix(1 0 0.00680674 0.999977 391.334 175.479)" fill="#1E2127" stroke="url(#paint2_linear_721_569)" stroke-width="0.548693"></rect><path d="M401.953 190.967L401.947 190.094L404.628 187.296C404.915 186.992 405.151 186.725 405.336 186.497C405.524 186.266 405.664 186.046 405.756 185.838C405.848 185.63 405.894 185.41 405.892 185.176C405.89 184.911 405.826 184.682 405.7 184.49C405.574 184.295 405.403 184.146 405.187 184.042C404.97 183.935 404.727 183.882 404.457 183.882C404.171 183.882 403.922 183.941 403.71 184.057C403.498 184.174 403.335 184.339 403.222 184.552C403.109 184.765 403.054 185.015 403.056 185.301H401.906C401.903 184.815 402.012 184.39 402.233 184.026C402.454 183.663 402.758 183.381 403.147 183.181C403.535 182.978 403.977 182.877 404.474 182.877C404.975 182.877 405.417 182.977 405.801 183.177C406.186 183.374 406.488 183.644 406.706 183.987C406.924 184.328 407.035 184.712 407.038 185.141C407.04 185.437 406.986 185.727 406.876 186.01C406.769 186.293 406.58 186.609 406.31 186.957C406.039 187.302 405.663 187.722 405.18 188.215L403.605 189.875L403.606 189.934H407.199L407.206 190.967H401.953ZM411.282 182.877C411.637 182.879 411.989 182.944 412.335 183.071C412.681 183.199 412.995 183.407 413.275 183.695C413.557 183.983 413.783 184.373 413.953 184.864C414.125 185.352 414.215 185.96 414.222 186.688C414.227 187.387 414.161 188.009 414.025 188.554C413.888 189.097 413.69 189.556 413.43 189.93C413.173 190.304 412.859 190.589 412.489 190.783C412.119 190.978 411.701 191.076 411.236 191.076C410.761 191.076 410.338 190.982 409.968 190.795C409.597 190.608 409.296 190.35 409.062 190.02C408.829 189.687 408.682 189.305 408.622 188.874H409.81C409.891 189.217 410.051 189.495 410.291 189.708C410.534 189.918 410.847 190.024 411.229 190.024C411.813 190.024 412.268 189.769 412.591 189.26C412.915 188.748 413.075 188.034 413.072 187.116H413.009C412.876 187.34 412.708 187.532 412.507 187.693C412.308 187.854 412.084 187.979 411.835 188.067C411.586 188.156 411.32 188.2 411.037 188.2C410.577 188.2 410.158 188.087 409.78 187.861C409.402 187.635 409.1 187.324 408.874 186.929C408.647 186.535 408.533 186.084 408.529 185.577C408.526 185.073 408.637 184.616 408.863 184.205C409.091 183.795 409.411 183.47 409.823 183.231C410.237 182.99 410.723 182.871 411.282 182.877ZM411.292 183.89C410.988 183.89 410.715 183.965 410.472 184.116C410.231 184.264 410.041 184.465 409.903 184.72C409.764 184.972 409.696 185.252 409.698 185.562C409.7 185.871 409.77 186.151 409.907 186.403C410.046 186.653 410.234 186.851 410.472 187C410.712 187.145 410.985 187.218 411.292 187.218C411.52 187.218 411.733 187.174 411.93 187.085C412.127 186.997 412.299 186.875 412.446 186.719C412.593 186.56 412.707 186.381 412.789 186.181C412.871 185.981 412.911 185.771 412.909 185.55C412.907 185.256 412.835 184.984 412.693 184.732C412.554 184.48 412.363 184.277 412.12 184.124C411.877 183.968 411.601 183.89 411.292 183.89ZM415.768 190.967L415.714 182.986H416.918L416.944 186.797H417.042L420.363 182.986H421.879L418.685 186.579L421.945 190.967H420.495L417.891 187.401L416.956 188.484L416.973 190.967H415.768Z" fill="#D9D9D9"></path><defs><linearGradient id="paint0_linear_721_569" x1="39.5591" y1="4.7135" x2="26.1399" y2="17.6024" gradientUnits="userSpaceOnUse"><stop stop-color="#FF9697"></stop><stop offset="1" stop-color="#E72B39"></stop></linearGradient><linearGradient id="paint1_linear_721_569" x1="39.6413" y1="4.7135" x2="26.2211" y2="17.6303" gradientUnits="userSpaceOnUse"><stop stop-color="#FF9697"></stop><stop offset="1" stop-color="#E72B39"></stop></linearGradient><linearGradient id="paint2_linear_721_569" x1="39.1103" y1="4.7135" x2="25.6981" y2="17.4495" gradientUnits="userSpaceOnUse"><stop stop-color="#FF9697"></stop><stop offset="1" stop-color="#E72B39"></stop></linearGradient></defs></svg>